Interstate_Pi-Four.ufo
<glyph name="percent" format="1">
  <advance width="1000"/>
  <unicode hex="0025"/>
  <outline>
    <contour>
      <point x="893" y="64" type="line" smooth="yes"/>
      <point x="893" y="33"/>
      <point x="874" y="13"/>
      <point x="841" y="13" type="curve" smooth="yes"/>
      <point x="159" y="13" type="line" smooth="yes"/>
      <point x="126" y="13"/>
      <point x="107" y="33"/>
      <point x="107" y="64" type="curve" smooth="yes"/>
      <point x="107" y="936" type="line" smooth="yes"/>
      <point x="107" y="967"/>
      <point x="126" y="987"/>
      <point x="159" y="987" type="curve" smooth="yes"/>
      <point x="841" y="987" type="line" smooth="yes"/>
      <point x="874" y="987"/>
      <point x="893" y="967"/>
      <point x="893" y="936" type="curve" smooth="yes"/>
    </contour>
    <contour>
      <point x="890" y="64" type="curve" smooth="yes"/>
      <point x="890" y="936" type="line" smooth="yes"/>
      <point x="890" y="966"/>
      <point x="872" y="984"/>
      <point x="841" y="984" type="curve" smooth="yes"/>
      <point x="159" y="984" type="line" smooth="yes"/>
      <point x="128" y="984"/>
      <point x="110" y="966"/>
      <point x="110" y="936" type="curve" smooth="yes"/>
      <point x="110" y="64" type="line" smooth="yes"/>
      <point x="110" y="34"/>
      <point x="128" y="16"/>
      <point x="159" y="16" type="curve" smooth="yes"/>
      <point x="841" y="16" type="line" smooth="yes"/>
      <point x="872" y="16"/>
      <point x="890" y="34"/>
    </contour>
    <contour>
      <point x="871" y="64" type="line" smooth="yes"/>
      <point x="871" y="46"/>
      <point x="859" y="35"/>
      <point x="841" y="35" type="curve" smooth="yes"/>
      <point x="159" y="35" type="line" smooth="yes"/>
      <point x="141" y="35"/>
      <point x="129" y="46"/>
      <point x="129" y="64" type="curve" smooth="yes"/>
      <point x="129" y="936" type="line" smooth="yes"/>
      <point x="129" y="954"/>
      <point x="141" y="965"/>
      <point x="159" y="965" type="curve" smooth="yes"/>
      <point x="841" y="965" type="line" smooth="yes"/>
      <point x="859" y="965"/>
      <point x="871" y="954"/>
      <point x="871" y="936" type="curve" smooth="yes"/>
    </contour>
    <contour>
      <point x="851" y="64" type="curve" smooth="yes"/>
      <point x="851" y="936" type="line" smooth="yes"/>
      <point x="851" y="942"/>
      <point x="847" y="945"/>
      <point x="841" y="945" type="curve" smooth="yes"/>
      <point x="159" y="945" type="line" smooth="yes"/>
      <point x="153" y="945"/>
      <point x="149" y="942"/>
      <point x="149" y="936" type="curve" smooth="yes"/>
      <point x="149" y="64" type="line" smooth="yes"/>
      <point x="149" y="58"/>
      <point x="153" y="55"/>
      <point x="159" y="55" type="curve" smooth="yes"/>
      <point x="841" y="55" type="line" smooth="yes"/>
      <point x="847" y="55"/>
      <point x="851" y="58"/>
    </contour>
    <contour>
      <point x="658" y="723" type="line"/>
      <point x="574" y="723" type="line"/>
      <point x="574" y="849" type="line"/>
      <point x="655" y="849" type="line"/>
      <point x="655" y="830" type="line"/>
      <point x="593" y="830" type="line"/>
      <point x="593" y="799" type="line"/>
      <point x="629" y="799" type="line"/>
      <point x="629" y="781" type="line"/>
      <point x="593" y="781" type="line"/>
      <point x="593" y="741" type="line"/>
      <point x="658" y="741" type="line"/>
    </contour>
    <contour>
      <point x="547" y="773" type="line" smooth="yes"/>
      <point x="547" y="740"/>
      <point x="527" y="721"/>
      <point x="499" y="721" type="curve" smooth="yes"/>
      <point x="467" y="721"/>
      <point x="446" y="748"/>
      <point x="446" y="786" type="curve" smooth="yes"/>
      <point x="446" y="825"/>
      <point x="467" y="851"/>
      <point x="499" y="851" type="curve" smooth="yes"/>
      <point x="520" y="851"/>
      <point x="534" y="843"/>
      <point x="542" y="828" type="curve"/>
      <point x="526" y="818" type="line"/>
      <point x="519" y="828"/>
      <point x="512" y="833"/>
      <point x="499" y="833" type="curve" smooth="yes"/>
      <point x="477" y="833"/>
      <point x="465" y="815"/>
      <point x="465" y="786" type="curve" smooth="yes"/>
      <point x="465" y="758"/>
      <point x="477" y="740"/>
      <point x="499" y="740" type="curve" smooth="yes"/>
      <point x="520" y="740"/>
      <point x="528" y="754"/>
      <point x="528" y="769" type="curve"/>
      <point x="507" y="769" type="line"/>
      <point x="507" y="787" type="line"/>
      <point x="547" y="787" type="line"/>
    </contour>
    <contour>
      <point x="435" y="723" type="line"/>
      <point x="415" y="723" type="line"/>
      <point x="404" y="753" type="line"/>
      <point x="354" y="753" type="line"/>
      <point x="343" y="723" type="line"/>
      <point x="324" y="723" type="line"/>
      <point x="369" y="849" type="line"/>
      <point x="389" y="849" type="line"/>
    </contour>
    <contour>
      <point x="733" y="637" type="line"/>
      <point x="697" y="637" type="line"/>
      <point x="697" y="530" type="line"/>
      <point x="678" y="530" type="line"/>
      <point x="678" y="637" type="line"/>
      <point x="641" y="637" type="line"/>
      <point x="641" y="656" type="line"/>
      <point x="733" y="656" type="line"/>
    </contour>
    <contour>
      <point x="611" y="530" type="line"/>
      <point x="592" y="530" type="line"/>
      <point x="592" y="656" type="line"/>
      <point x="611" y="656" type="line"/>
    </contour>
    <contour>
      <point x="404" y="530" type="line"/>
      <point x="385" y="530" type="line"/>
      <point x="385" y="656" type="line"/>
      <point x="404" y="656" type="line"/>
    </contour>
    <contour>
      <point x="354" y="530" type="line"/>
      <point x="273" y="530" type="line"/>
      <point x="273" y="656" type="line"/>
      <point x="291" y="656" type="line"/>
      <point x="291" y="548" type="line"/>
      <point x="354" y="548" type="line"/>
    </contour>
    <contour>
      <point x="555" y="530" type="line"/>
      <point x="537" y="530" type="line"/>
      <point x="537" y="619" type="line"/>
      <point x="499" y="528" type="line"/>
      <point x="461" y="619" type="line"/>
      <point x="461" y="530" type="line"/>
      <point x="443" y="530" type="line"/>
      <point x="443" y="656" type="line"/>
      <point x="462" y="656" type="line"/>
      <point x="499" y="570" type="line"/>
      <point x="536" y="656" type="line"/>
      <point x="555" y="656" type="line"/>
    </contour>
    <contour>
      <point x="398" y="770" type="line"/>
      <point x="388" y="799" type="line" smooth="yes"/>
      <point x="385" y="808"/>
      <point x="380" y="823"/>
      <point x="379" y="828" type="curve"/>
      <point x="377" y="823"/>
      <point x="373" y="808"/>
      <point x="370" y="799" type="curve" smooth="yes"/>
      <point x="360" y="770" type="line"/>
    </contour>
  </outline>
</glyph>
<glyph name="ampersand" format="1">
  <advance width="1000"/>
  <unicode hex="0026"/>
  <outline>
    <contour>
      <point x="987" y="306" type="line" smooth="yes"/>
      <point x="987" y="275"/>
      <point x="968" y="255"/>
      <point x="935" y="255" type="curve" smooth="yes"/>
      <point x="65" y="255" type="line" smooth="yes"/>
      <point x="32" y="255"/>
      <point x="13" y="275"/>
      <point x="13" y="306" type="curve" smooth="yes"/>
      <point x="13" y="694" type="line" smooth="yes"/>
      <point x="13" y="725"/>
      <point x="32" y="745"/>
      <point x="65" y="745" type="curve" smooth="yes"/>
      <point x="935" y="745" type="line" smooth="yes"/>
      <point x="968" y="745"/>
      <point x="987" y="725"/>
      <point x="987" y="694" type="curve" smooth="yes"/>
    </contour>
    <contour>
      <point x="984" y="306" type="curve" smooth="yes"/>
      <point x="984" y="694" type="line" smooth="yes"/>
      <point x="984" y="724"/>
      <point x="966" y="742"/>
      <point x="935" y="742" type="curve" smooth="yes"/>
      <point x="65" y="742" type="line" smooth="yes"/>
      <point x="34" y="742"/>
      <point x="16" y="724"/>
      <point x="16" y="694" type="curve" smooth="yes"/>
      <point x="16" y="306" type="line" smooth="yes"/>
      <point x="16" y="276"/>
      <point x="34" y="258"/>
      <point x="65" y="258" type="curve" smooth="yes"/>
      <point x="935" y="258" type="line" smooth="yes"/>
      <point x="966" y="258"/>
      <point x="984" y="276"/>
    </contour>
    <contour>
      <point x="965" y="306" type="line" smooth="yes"/>
      <point x="965" y="288"/>
      <point x="953" y="277"/>
      <point x="935" y="277" type="curve" smooth="yes"/>
      <point x="65" y="277" type="line" smooth="yes"/>
      <point x="47" y="277"/>
      <point x="35" y="288"/>
      <point x="35" y="306" type="curve" smooth="yes"/>
      <point x="35" y="694" type="line" smooth="yes"/>
      <point x="35" y="712"/>
      <point x="47" y="723"/>
      <point x="65" y="723" type="curve" smooth="yes"/>
      <point x="935" y="723" type="line" smooth="yes"/>
      <point x="953" y="723"/>
      <point x="965" y="712"/>
      <point x="965" y="694" type="curve" smooth="yes"/>
    </contour>
    <contour>
      <point x="945" y="306" type="curve" smooth="yes"/>
      <point x="945" y="694" type="line" smooth="yes"/>
      <point x="945" y="700"/>
      <point x="941" y="703"/>
      <point x="935" y="703" type="curve" smooth="yes"/>
      <point x="65" y="703" type="line" smooth="yes"/>
      <point x="59" y="703"/>
      <point x="55" y="700"/>
      <point x="55" y="694" type="curve" smooth="yes"/>
      <point x="55" y="306" type="line" smooth="yes"/>
      <point x="55" y="300"/>
      <point x="59" y="297"/>
      <point x="65" y="297" type="curve" smooth="yes"/>
      <point x="935" y="297" type="line" smooth="yes"/>
      <point x="941" y="297"/>
      <point x="945" y="300"/>
    </contour>
    <contour>
      <point x="867" y="617" type="line"/>
      <point x="825" y="480" type="line"/>
      <point x="825" y="372" type="line"/>
      <point x="794" y="372" type="line"/>
      <point x="794" y="478" type="line"/>
      <point x="749" y="617" type="line"/>
      <point x="784" y="617" type="line"/>
      <point x="810" y="507" type="line"/>
      <point x="833" y="617" type="line"/>
    </contour>
    <contour>
      <point x="731" y="372" type="line"/>
      <point x="698" y="372" type="line"/>
      <point x="675" y="482" type="line"/>
      <point x="661" y="482" type="line"/>
      <point x="661" y="372" type="line"/>
      <point x="629" y="372" type="line"/>
      <point x="629" y="617" type="line"/>
      <point x="674" y="617" type="line" smooth="yes"/>
      <point x="704" y="617"/>
      <point x="728" y="602"/>
      <point x="728" y="551" type="curve" smooth="yes"/>
      <point x="728" y="521"/>
      <point x="720" y="502"/>
      <point x="705" y="491" type="curve"/>
    </contour>
    <contour>
      <point x="593" y="586" type="line"/>
      <point x="559" y="586" type="line"/>
      <point x="559" y="372" type="line"/>
      <point x="527" y="372" type="line"/>
      <point x="527" y="586" type="line"/>
      <point x="493" y="586" type="line"/>
      <point x="493" y="617" type="line"/>
      <point x="593" y="617" type="line"/>
    </contour>
    <contour>
      <point x="481" y="372" type="line"/>
      <point x="401" y="372" type="line"/>
      <point x="401" y="617" type="line"/>
      <point x="432" y="617" type="line"/>
      <point x="432" y="403" type="line"/>
      <point x="481" y="403" type="line"/>
    </contour>
    <contour>
      <point x="223" y="426" type="curve" smooth="yes"/>
      <point x="223" y="393"/>
      <point x="205" y="369"/>
      <point x="175" y="369" type="curve" smooth="yes"/>
      <point x="145" y="369"/>
      <point x="127" y="390"/>
      <point x="123" y="432" type="curve"/>
      <point x="154" y="437" type="line"/>
      <point x="157" y="410"/>
      <point x="164" y="401"/>
      <point x="175" y="401" type="curve" smooth="yes"/>
      <point x="186" y="401"/>
      <point x="192" y="408"/>
      <point x="192" y="424" type="curve" smooth="yes"/>
      <point x="192" y="447"/>
      <point x="184" y="459"/>
      <point x="160" y="489" type="curve" smooth="yes"/>
      <point x="140" y="513"/>
      <point x="125" y="537"/>
      <point x="125" y="565" type="curve" smooth="yes"/>
      <point x="125" y="596"/>
      <point x="141" y="620"/>
      <point x="172" y="620" type="curve" smooth="yes"/>
      <point x="204" y="620"/>
      <point x="217" y="597"/>
      <point x="221" y="565" type="curve"/>
      <point x="191" y="558" type="line"/>
      <point x="188" y="579"/>
      <point x="182" y="588"/>
      <point x="172" y="588" type="curve" smooth="yes"/>
      <point x="163" y="588"/>
      <point x="157" y="581"/>
      <point x="157" y="566" type="curve" smooth="yes"/>
      <point x="157" y="548"/>
      <point x="164" y="538"/>
      <point x="183" y="514" type="curve" smooth="yes"/>
      <point x="207" y="484"/>
      <point x="223" y="457"/>
    </contour>
    <contour>
      <point x="357" y="432" type="line" smooth="yes"/>
      <point x="357" y="391"/>
      <point x="341" y="369"/>
      <point x="306" y="369" type="curve" smooth="yes"/>
      <point x="274" y="369"/>
      <point x="255" y="392"/>
      <point x="255" y="430" type="curve" smooth="yes"/>
      <point x="255" y="617" type="line"/>
      <point x="286" y="617" type="line"/>
      <point x="286" y="431" type="line" smooth="yes"/>
      <point x="286" y="409"/>
      <point x="293" y="400"/>
      <point x="306" y="400" type="curve" smooth="yes"/>
      <point x="321" y="400"/>
      <point x="326" y="409"/>
      <point x="326" y="431" type="curve" smooth="yes"/>
      <point x="326" y="617" type="line"/>
      <point x="357" y="617" type="line"/>
    </contour>
    <contour>
      <point x="696" y="549" type="curve" smooth="yes"/>
      <point x="696" y="577"/>
      <point x="689" y="587"/>
      <point x="674" y="587" type="curve" smooth="yes"/>
      <point x="661" y="587" type="line"/>
      <point x="661" y="511" type="line"/>
      <point x="672" y="511" type="line" smooth="yes"/>
      <point x="687" y="511"/>
      <point x="696" y="521"/>
    </contour>
  </outline>
</glyph>
<glyph name="quotesingle" format="1">
  <advance width="1000"/>
  <unicode hex="0027"/>
  <outline>
    <contour>
      <point x="988" y="500" type="curve" smooth="yes"/>
      <point x="988" y="489"/>
      <point x="983" y="479"/>
      <point x="972" y="468" type="curve" smooth="yes"/>
      <point x="532" y="29" type="line" smooth="yes"/>
      <point x="521" y="18"/>
      <point x="511" y="13"/>
      <point x="500" y="13" type="curve" smooth="yes"/>
      <point x="489" y="13"/>
      <point x="478" y="18"/>
      <point x="467" y="29" type="curve" smooth="yes"/>
      <point x="28" y="468" type="line" smooth="yes"/>
      <point x="17" y="479"/>
      <point x="12" y="489"/>
      <point x="12" y="500" type="curve" smooth="yes"/>
      <point x="12" y="511"/>
      <point x="17" y="522"/>
      <point x="28" y="533" type="curve" smooth="yes"/>
      <point x="467" y="972" type="line" smooth="yes"/>
      <point x="478" y="983"/>
      <point x="489" y="988"/>
      <point x="500" y="988" type="curve" smooth="yes"/>
      <point x="511" y="988"/>
      <point x="522" y="983"/>
      <point x="533" y="972" type="curve" smooth="yes"/>
      <point x="972" y="533" type="line" smooth="yes"/>
      <point x="983" y="522"/>
      <point x="988" y="511"/>
    </contour>
    <contour>
      <point x="985" y="500" type="curve" smooth="yes"/>
      <point x="985" y="510"/>
      <point x="980" y="521"/>
      <point x="970" y="531" type="curve" smooth="yes"/>
      <point x="531" y="970" type="line" smooth="yes"/>
      <point x="521" y="980"/>
      <point x="510" y="985"/>
      <point x="500" y="985" type="curve" smooth="yes"/>
      <point x="490" y="985"/>
      <point x="479" y="980"/>
      <point x="469" y="970" type="curve" smooth="yes"/>
      <point x="30" y="531" type="line" smooth="yes"/>
      <point x="20" y="521"/>
      <point x="15" y="510"/>
      <point x="15" y="500" type="curve" smooth="yes"/>
      <point x="15" y="490"/>
      <point x="20" y="480"/>
      <point x="30" y="470" type="curve" smooth="yes"/>
      <point x="469" y="31" type="line" smooth="yes"/>
      <point x="479" y="21"/>
      <point x="490" y="16"/>
      <point x="500" y="16" type="curve" smooth="yes"/>
      <point x="510" y="16"/>
      <point x="520" y="21"/>
      <point x="530" y="31" type="curve" smooth="yes"/>
      <point x="970" y="470" type="line" smooth="yes"/>
      <point x="980" y="480"/>
      <point x="985" y="490"/>
    </contour>
    <contour>
      <point x="973" y="500" type="curve" smooth="yes"/>
      <point x="973" y="492"/>
      <point x="970" y="485"/>
      <point x="962" y="477" type="curve" smooth="yes"/>
      <point x="523" y="38" type="line" smooth="yes"/>
      <point x="515" y="30"/>
      <point x="508" y="27"/>
      <point x="500" y="27" type="curve" smooth="yes"/>
      <point x="492" y="27"/>
      <point x="485" y="30"/>
      <point x="477" y="38" type="curve" smooth="yes"/>
      <point x="38" y="477" type="line" smooth="yes"/>
      <point x="30" y="485"/>
      <point x="27" y="492"/>
      <point x="27" y="500" type="curve" smooth="yes"/>
      <point x="27" y="508"/>
      <point x="30" y="515"/>
      <point x="38" y="523" type="curve" smooth="yes"/>
      <point x="477" y="962" type="line" smooth="yes"/>
      <point x="485" y="970"/>
      <point x="492" y="973"/>
      <point x="500" y="973" type="curve" smooth="yes"/>
      <point x="508" y="973"/>
      <point x="515" y="970"/>
      <point x="523" y="962" type="curve" smooth="yes"/>
      <point x="962" y="523" type="line" smooth="yes"/>
      <point x="970" y="515"/>
      <point x="973" y="508"/>
    </contour>
    <contour>
      <point x="956" y="500" type="curve" smooth="yes"/>
      <point x="956" y="504"/>
      <point x="954" y="507"/>
      <point x="950" y="511" type="curve" smooth="yes"/>
      <point x="511" y="950" type="line" smooth="yes"/>
      <point x="507" y="954"/>
      <point x="504" y="956"/>
      <point x="500" y="956" type="curve" smooth="yes"/>
      <point x="496" y="956"/>
      <point x="493" y="954"/>
      <point x="489" y="950" type="curve" smooth="yes"/>
      <point x="50" y="511" type="line" smooth="yes"/>
      <point x="46" y="507"/>
      <point x="44" y="504"/>
      <point x="44" y="500" type="curve" smooth="yes"/>
      <point x="44" y="496"/>
      <point x="46" y="493"/>
      <point x="50" y="489" type="curve" smooth="yes"/>
      <point x="489" y="50" type="line" smooth="yes"/>
      <point x="493" y="46"/>
      <point x="496" y="44"/>
      <point x="500" y="44" type="curve" smooth="yes"/>
      <point x="504" y="44"/>
      <point x="507" y="46"/>
      <point x="511" y="50" type="curve" smooth="yes"/>
      <point x="950" y="489" type="line" smooth="yes"/>
      <point x="954" y="493"/>
      <point x="956" y="496"/>
    </contour>
    <contour>
      <point x="672" y="548" type="line"/>
      <point x="587" y="548" type="line"/>
      <point x="587" y="695" type="line"/>
      <point x="669" y="695" type="line"/>
      <point x="669" y="674" type="line"/>
      <point x="609" y="674" type="line"/>
      <point x="609" y="637" type="line"/>
      <point x="646" y="637" type="line"/>
      <point x="646" y="616" type="line"/>
      <point x="609" y="616" type="line"/>
      <point x="609" y="569" type="line"/>
      <point x="672" y="569" type="line"/>
    </contour>
    <contour>
      <point x="552" y="548" type="line"/>
      <point x="530" y="548" type="line"/>
      <point x="530" y="615" type="line"/>
      <point x="476" y="615" type="line"/>
      <point x="476" y="548" type="line"/>
      <point x="454" y="548" type="line"/>
      <point x="454" y="695" type="line"/>
      <point x="476" y="695" type="line"/>
      <point x="476" y="636" type="line"/>
      <point x="530" y="636" type="line"/>
      <point x="530" y="695" type="line"/>
      <point x="552" y="695" type="line"/>
    </contour>
    <contour>
      <point x="423" y="674" type="line"/>
      <point x="388" y="674" type="line"/>
      <point x="388" y="548" type="line"/>
      <point x="366" y="548" type="line"/>
      <point x="366" y="674" type="line"/>
      <point x="331" y="674" type="line"/>
      <point x="331" y="695" type="line"/>
      <point x="423" y="695" type="line"/>
    </contour>
    <contour>
      <point x="684" y="379" type="curve" smooth="yes"/>
      <point x="684" y="332"/>
      <point x="660" y="306"/>
      <point x="625" y="306" type="curve" smooth="yes"/>
      <point x="587" y="306" type="line"/>
      <point x="587" y="452" type="line"/>
      <point x="625" y="452" type="line" smooth="yes"/>
      <point x="661" y="452"/>
      <point x="684" y="426"/>
    </contour>
    <contour>
      <point x="551" y="306" type="line"/>
      <point x="532" y="306" type="line"/>
      <point x="475" y="411" type="line"/>
      <point x="475" y="306" type="line"/>
      <point x="454" y="306" type="line"/>
      <point x="454" y="453" type="line"/>
      <point x="475" y="453" type="line"/>
      <point x="530" y="351" type="line"/>
      <point x="530" y="453" type="line"/>
      <point x="551" y="453" type="line"/>
    </contour>
    <contour>
      <point x="424" y="306" type="line"/>
      <point x="339" y="306" type="line"/>
      <point x="339" y="453" type="line"/>
      <point x="421" y="453" type="line"/>
      <point x="421" y="432" type="line"/>
      <point x="361" y="432" type="line"/>
      <point x="361" y="395" type="line"/>
      <point x="398" y="395" type="line"/>
      <point x="398" y="374" type="line"/>
      <point x="361" y="374" type="line"/>
      <point x="361" y="327" type="line"/>
      <point x="424" y="327" type="line"/>
    </contour>
    <contour>
      <point x="663" y="379" type="curve" smooth="yes"/>
      <point x="663" y="407"/>
      <point x="653" y="432"/>
      <point x="625" y="432" type="curve" smooth="yes"/>
      <point x="609" y="432" type="line"/>
      <point x="609" y="326" type="line"/>
      <point x="625" y="326" type="line" smooth="yes"/>
      <point x="653" y="326"/>
      <point x="663" y="351"/>
    </contour>
  </outline>
</glyph>
<glyph name="asterisk" format="1">
  <advance width="1000"/>
  <unicode hex="002A"/>
  <outline>
    <contour>
      <point x="987" y="306" type="line" smooth="yes"/>
      <point x="987" y="275"/>
      <point x="968" y="255"/>
      <point x="935" y="255" type="curve" smooth="yes"/>
      <point x="65" y="255" type="line" smooth="yes"/>
      <point x="32" y="255"/>
      <point x="13" y="275"/>
      <point x="13" y="306" type="curve" smooth="yes"/>
      <point x="13" y="694" type="line" smooth="yes"/>
      <point x="13" y="725"/>
      <point x="32" y="745"/>
      <point x="65" y="745" type="curve" smooth="yes"/>
      <point x="935" y="745" type="line" smooth="yes"/>
      <point x="968" y="745"/>
      <point x="987" y="725"/>
      <point x="987" y="694" type="curve" smooth="yes"/>
    </contour>
    <contour>
      <point x="984" y="306" type="curve" smooth="yes"/>
      <point x="984" y="694" type="line" smooth="yes"/>
      <point x="984" y="724"/>
      <point x="966" y="742"/>
      <point x="935" y="742" type="curve" smooth="yes"/>
      <point x="65" y="742" type="line" smooth="yes"/>
      <point x="34" y="742"/>
      <point x="16" y="724"/>
      <point x="16" y="694" type="curve" smooth="yes"/>
      <point x="16" y="306" type="line" smooth="yes"/>
      <point x="16" y="276"/>
      <point x="34" y="258"/>
      <point x="65" y="258" type="curve" smooth="yes"/>
      <point x="935" y="258" type="line" smooth="yes"/>
      <point x="966" y="258"/>
      <point x="984" y="276"/>
    </contour>
    <contour>
      <point x="965" y="306" type="line" smooth="yes"/>
      <point x="965" y="288"/>
      <point x="953" y="277"/>
      <point x="935" y="277" type="curve" smooth="yes"/>
      <point x="65" y="277" type="line" smooth="yes"/>
      <point x="47" y="277"/>
      <point x="35" y="288"/>
      <point x="35" y="306" type="curve" smooth="yes"/>
      <point x="35" y="694" type="line" smooth="yes"/>
      <point x="35" y="712"/>
      <point x="47" y="723"/>
      <point x="65" y="723" type="curve" smooth="yes"/>
      <point x="935" y="723" type="line" smooth="yes"/>
      <point x="953" y="723"/>
      <point x="965" y="712"/>
      <point x="965" y="694" type="curve" smooth="yes"/>
    </contour>
    <contour>
      <point x="945" y="306" type="curve" smooth="yes"/>
      <point x="945" y="694" type="line" smooth="yes"/>
      <point x="945" y="700"/>
      <point x="941" y="703"/>
      <point x="935" y="703" type="curve" smooth="yes"/>
      <point x="65" y="703" type="line" smooth="yes"/>
      <point x="59" y="703"/>
      <point x="55" y="700"/>
      <point x="55" y="694" type="curve" smooth="yes"/>
      <point x="55" y="306" type="line" smooth="yes"/>
      <point x="55" y="300"/>
      <point x="59" y="297"/>
      <point x="65" y="297" type="curve" smooth="yes"/>
      <point x="935" y="297" type="line" smooth="yes"/>
      <point x="941" y="297"/>
      <point x="945" y="300"/>
    </contour>
    <contour>
      <point x="886" y="371" type="line"/>
      <point x="766" y="371" type="line"/>
      <point x="766" y="616" type="line"/>
      <point x="881" y="616" type="line"/>
      <point x="881" y="582" type="line"/>
      <point x="800" y="582" type="line"/>
      <point x="800" y="518" type="line"/>
      <point x="853" y="518" type="line"/>
      <point x="853" y="484" type="line"/>
      <point x="800" y="484" type="line"/>
      <point x="800" y="405" type="line"/>
      <point x="886" y="405" type="line"/>
    </contour>
    <contour>
      <point x="733" y="371" type="line"/>
      <point x="694" y="371" type="line"/>
      <point x="657" y="478" type="line"/>
      <point x="630" y="478" type="line"/>
      <point x="630" y="371" type="line"/>
      <point x="595" y="371" type="line"/>
      <point x="595" y="616" type="line"/>
      <point x="664" y="616" type="line" smooth="yes"/>
      <point x="700" y="616"/>
      <point x="732" y="597"/>
      <point x="732" y="548" type="curve" smooth="yes"/>
      <point x="732" y="513"/>
      <point x="717" y="493"/>
      <point x="694" y="484" type="curve"/>
    </contour>
    <contour>
      <point x="564" y="371" type="line"/>
      <point x="444" y="371" type="line"/>
      <point x="444" y="616" type="line"/>
      <point x="559" y="616" type="line"/>
      <point x="559" y="582" type="line"/>
      <point x="478" y="582" type="line"/>
      <point x="478" y="518" type="line"/>
      <point x="531" y="518" type="line"/>
      <point x="531" y="484" type="line"/>
      <point x="478" y="484" type="line"/>
      <point x="478" y="405" type="line"/>
      <point x="564" y="405" type="line"/>
    </contour>
    <contour>
      <point x="404" y="371" type="line"/>
      <point x="369" y="371" type="line"/>
      <point x="369" y="484" type="line"/>
      <point x="301" y="484" type="line"/>
      <point x="301" y="371" type="line"/>
      <point x="266" y="371" type="line"/>
      <point x="266" y="616" type="line"/>
      <point x="301" y="616" type="line"/>
      <point x="301" y="518" type="line"/>
      <point x="369" y="518" type="line"/>
      <point x="369" y="616" type="line"/>
      <point x="404" y="616" type="line"/>
    </contour>
    <contour>
      <point x="238" y="582" type="line"/>
      <point x="193" y="582" type="line"/>
      <point x="193" y="371" type="line"/>
      <point x="159" y="371" type="line"/>
      <point x="159" y="582" type="line"/>
      <point x="114" y="582" type="line"/>
      <point x="114" y="616" type="line"/>
      <point x="238" y="616" type="line"/>
    </contour>
    <contour>
      <point x="697" y="547" type="curve" smooth="yes"/>
      <point x="697" y="573"/>
      <point x="682" y="583"/>
      <point x="661" y="583" type="curve" smooth="yes"/>
      <point x="630" y="583" type="line"/>
      <point x="630" y="511" type="line"/>
      <point x="661" y="511" type="line" smooth="yes"/>
      <point x="683" y="511"/>
      <point x="697" y="522"/>
    </contour>
  </outline>
</glyph>
<glyph name="comma" format="1">
  <advance width="1000"/>
  <unicode hex="002C"/>
  <outline>
    <contour>
      <point x="873" y="64" type="line" smooth="yes"/>
      <point x="873" y="34"/>
      <point x="854" y="14"/>
      <point x="822" y="14" type="curve" smooth="yes"/>
      <point x="178" y="14" type="line" smooth="yes"/>
      <point x="146" y="14"/>
      <point x="127" y="34"/>
      <point x="127" y="64" type="curve" smooth="yes"/>
      <point x="127" y="936" type="line" smooth="yes"/>
      <point x="127" y="966"/>
      <point x="146" y="986"/>
      <point x="178" y="986" type="curve" smooth="yes"/>
      <point x="822" y="986" type="line" smooth="yes"/>
      <point x="854" y="986"/>
      <point x="873" y="966"/>
      <point x="873" y="936" type="curve" smooth="yes"/>
    </contour>
  </outline>
</glyph>
<glyph name="hyphen" format="1">
  <advance width="1000"/>
  <unicode hex="002D"/>
  <unicode hex="2010"/>
  <unicode hex="2011"/>
  <outline>
    <contour>
      <point x="987" y="60" type="line" smooth="yes"/>
      <point x="987" y="31"/>
      <point x="969" y="13"/>
      <point x="939" y="13" type="curve" smooth="yes"/>
      <point x="61" y="13" type="line" smooth="yes"/>
      <point x="31" y="13"/>
      <point x="13" y="31"/>
      <point x="13" y="60" type="curve" smooth="yes"/>
      <point x="13" y="940" type="line" smooth="yes"/>
      <point x="13" y="969"/>
      <point x="31" y="987"/>
      <point x="61" y="987" type="curve" smooth="yes"/>
      <point x="939" y="987" type="line" smooth="yes"/>
      <point x="969" y="987"/>
      <point x="987" y="969"/>
      <point x="987" y="940" type="curve" smooth="yes"/>
    </contour>
    <contour>
      <point x="984" y="60" type="curve" smooth="yes"/>
      <point x="984" y="940" type="line" smooth="yes"/>
      <point x="984" y="967"/>
      <point x="967" y="984"/>
      <point x="939" y="984" type="curve" smooth="yes"/>
      <point x="61" y="984" type="line" smooth="yes"/>
      <point x="33" y="984"/>
      <point x="16" y="967"/>
      <point x="16" y="940" type="curve" smooth="yes"/>
      <point x="16" y="60" type="line" smooth="yes"/>
      <point x="16" y="33"/>
      <point x="33" y="16"/>
      <point x="61" y="16" type="curve" smooth="yes"/>
      <point x="939" y="16" type="line" smooth="yes"/>
      <point x="967" y="16"/>
      <point x="984" y="33"/>
    </contour>
    <contour>
      <point x="971" y="500" type="curve" smooth="yes"/>
      <point x="971" y="240"/>
      <point x="760" y="29"/>
      <point x="500" y="29" type="curve" smooth="yes"/>
      <point x="240" y="29"/>
      <point x="29" y="240"/>
      <point x="29" y="500" type="curve" smooth="yes"/>
      <point x="29" y="760"/>
      <point x="240" y="971"/>
      <point x="500" y="971" type="curve" smooth="yes"/>
      <point x="760" y="971"/>
      <point x="971" y="760"/>
    </contour>
    <contour>
      <point x="816" y="756" type="line"/>
      <point x="816" y="775" type="line"/>
      <point x="734" y="775" type="line"/>
      <point x="734" y="756" type="line"/>
      <point x="765" y="756" type="line"/>
      <point x="765" y="642" type="line"/>
      <point x="785" y="642" type="line"/>
      <point x="785" y="756" type="line"/>
    </contour>
    <contour>
      <point x="719" y="708" type="curve" smooth="yes"/>
      <point x="719" y="748"/>
      <point x="702" y="777"/>
      <point x="671" y="777" type="curve" smooth="yes"/>
      <point x="640" y="777"/>
      <point x="623" y="747"/>
      <point x="623" y="708" type="curve" smooth="yes"/>
      <point x="623" y="668"/>
      <point x="640" y="640"/>
      <point x="671" y="640" type="curve" smooth="yes"/>
      <point x="702" y="640"/>
      <point x="719" y="669"/>
    </contour>
    <contour>
      <point x="601" y="642" type="line"/>
      <point x="601" y="775" type="line"/>
      <point x="582" y="775" type="line"/>
      <point x="582" y="683" type="line"/>
      <point x="533" y="775" type="line"/>
      <point x="513" y="775" type="line"/>
      <point x="513" y="642" type="line"/>
      <point x="532" y="642" type="line"/>
      <point x="532" y="737" type="line"/>
      <point x="584" y="642" type="line"/>
    </contour>
    <contour>
      <point x="382" y="708" type="curve" smooth="yes"/>
      <point x="382" y="748"/>
      <point x="365" y="777"/>
      <point x="334" y="777" type="curve" smooth="yes"/>
      <point x="303" y="777"/>
      <point x="286" y="747"/>
      <point x="286" y="708" type="curve" smooth="yes"/>
      <point x="286" y="668"/>
      <point x="303" y="640"/>
      <point x="334" y="640" type="curve" smooth="yes"/>
      <point x="365" y="640"/>
      <point x="382" y="669"/>
    </contour>
    <contour>
      <point x="267" y="708" type="curve" smooth="yes"/>
      <point x="267" y="751"/>
      <point x="246" y="774"/>
      <point x="213" y="774" type="curve" smooth="yes"/>
      <point x="179" y="774" type="line"/>
      <point x="179" y="642" type="line"/>
      <point x="213" y="642" type="line" smooth="yes"/>
      <point x="245" y="642"/>
      <point x="267" y="665"/>
    </contour>
    <contour>
      <point x="898" y="500" type="curve" smooth="yes"/>
      <point x="898" y="529"/>
      <point x="895" y="557"/>
      <point x="889" y="584" type="curve"/>
      <point x="111" y="584" type="line"/>
      <point x="105" y="557"/>
      <point x="102" y="529"/>
      <point x="102" y="500" type="curve" smooth="yes"/>
      <point x="102" y="471"/>
      <point x="105" y="443"/>
      <point x="111" y="416" type="curve"/>
      <point x="889" y="416" type="line"/>
      <point x="895" y="443"/>
      <point x="898" y="471"/>
    </contour>
    <contour>
      <point x="741" y="225" type="line"/>
      <point x="741" y="244" type="line"/>
      <point x="684" y="244" type="line"/>
      <point x="684" y="287" type="line"/>
      <point x="718" y="287" type="line"/>
      <point x="718" y="305" type="line"/>
      <point x="684" y="305" type="line"/>
      <point x="684" y="339" type="line"/>
      <point x="739" y="339" type="line"/>
      <point x="739" y="358" type="line"/>
      <point x="665" y="358" type="line"/>
      <point x="665" y="225" type="line"/>
    </contour>
    <contour>
      <point x="641" y="358" type="line"/>
      <point x="620" y="358" type="line"/>
      <point x="592" y="256" type="line"/>
      <point x="564" y="358" type="line"/>
      <point x="543" y="358" type="line"/>
      <point x="583" y="225" type="line"/>
      <point x="601" y="225" type="line"/>
    </contour>
    <contour>
      <point x="541" y="225" type="line"/>
      <point x="500" y="358" type="line"/>
      <point x="480" y="358" type="line"/>
      <point x="440" y="225" type="line"/>
      <point x="460" y="225" type="line"/>
      <point x="469" y="259" type="line"/>
      <point x="511" y="259" type="line"/>
      <point x="520" y="225" type="line"/>
    </contour>
    <contour>
      <point x="419" y="225" type="line"/>
      <point x="419" y="244" type="line"/>
      <point x="362" y="244" type="line"/>
      <point x="362" y="287" type="line"/>
      <point x="396" y="287" type="line"/>
      <point x="396" y="305" type="line"/>
      <point x="362" y="305" type="line"/>
      <point x="362" y="339" type="line"/>
      <point x="417" y="339" type="line"/>
      <point x="417" y="358" type="line"/>
      <point x="343" y="358" type="line"/>
      <point x="343" y="225" type="line"/>
    </contour>
    <contour>
      <point x="318" y="225" type="line"/>
      <point x="318" y="244" type="line"/>
      <point x="263" y="244" type="line"/>
      <point x="263" y="358" type="line"/>
      <point x="244" y="358" type="line"/>
      <point x="244" y="225" type="line"/>
    </contour>
    <contour>
      <point x="700" y="708" type="curve" smooth="yes"/>
      <point x="700" y="681"/>
      <point x="691" y="660"/>
      <point x="671" y="660" type="curve" smooth="yes"/>
      <point x="651" y="660"/>
      <point x="643" y="681"/>
      <point x="643" y="708" type="curve" smooth="yes"/>
      <point x="643" y="735"/>
      <point x="651" y="757"/>
      <point x="671" y="757" type="curve" smooth="yes"/>
      <point x="691" y="757"/>
      <point x="700" y="735"/>
    </contour>
    <contour>
      <point x="363" y="708" type="curve" smooth="yes"/>
      <point x="363" y="681"/>
      <point x="354" y="660"/>
      <point x="334" y="660" type="curve" smooth="yes"/>
      <point x="314" y="660"/>
      <point x="306" y="681"/>
      <point x="306" y="708" type="curve" smooth="yes"/>
      <point x="306" y="735"/>
      <point x="314" y="757"/>
      <point x="334" y="757" type="curve" smooth="yes"/>
      <point x="354" y="757"/>
      <point x="363" y="735"/>
    </contour>
    <contour>
      <point x="247" y="708" type="curve" smooth="yes"/>
      <point x="247" y="683"/>
      <point x="238" y="660"/>
      <point x="213" y="660" type="curve" smooth="yes"/>
      <point x="198" y="660" type="line"/>
      <point x="198" y="756" type="line"/>
      <point x="213" y="756" type="line" smooth="yes"/>
      <point x="238" y="756"/>
      <point x="247" y="734"/>
    </contour>
    <contour>
      <point x="506" y="277" type="line"/>
      <point x="474" y="277" type="line"/>
      <point x="490" y="333" type="line"/>
    </contour>
  </outline>
</glyph>
<glyph name="period" format="1">
  <advance width="1000"/>
  <unicode hex="002E"/>
  <outline>
    <contour>
      <point x="986" y="306" type="line" smooth="yes"/>
      <point x="986" y="276"/>
      <point x="967" y="256"/>
      <point x="935" y="256" type="curve" smooth="yes"/>
      <point x="65" y="256" type="line" smooth="yes"/>
      <point x="33" y="256"/>
      <point x="14" y="276"/>
      <point x="14" y="306" type="curve" smooth="yes"/>
      <point x="14" y="694" type="line" smooth="yes"/>
      <point x="14" y="724"/>
      <point x="33" y="744"/>
      <point x="65" y="744" type="curve" smooth="yes"/>
      <point x="935" y="744" type="line" smooth="yes"/>
      <point x="967" y="744"/>
      <point x="986" y="724"/>
      <point x="986" y="694" type="curve" smooth="yes"/>
    </contour>
  </outline>
</glyph>
<glyph name="slash" format="1">
  <advance width="1000"/>
  <unicode hex="002F"/>
  <outline>
    <contour>
      <point x="987" y="500" type="curve" smooth="yes"/>
      <point x="987" y="489"/>
      <point x="982" y="479"/>
      <point x="971" y="469" type="curve" smooth="yes"/>
      <point x="531" y="30" type="line" smooth="yes"/>
      <point x="520" y="20"/>
      <point x="511" y="14"/>
      <point x="500" y="14" type="curve" smooth="yes"/>
      <point x="489" y="14"/>
      <point x="479" y="19"/>
      <point x="468" y="30" type="curve" smooth="yes"/>
      <point x="29" y="469" type="line" smooth="yes"/>
      <point x="18" y="480"/>
      <point x="13" y="489"/>
      <point x="13" y="500" type="curve" smooth="yes"/>
      <point x="13" y="511"/>
      <point x="18" y="521"/>
      <point x="29" y="532" type="curve" smooth="yes"/>
      <point x="468" y="971" type="line" smooth="yes"/>
      <point x="479" y="982"/>
      <point x="489" y="987"/>
      <point x="500" y="987" type="curve" smooth="yes"/>
      <point x="511" y="987"/>
      <point x="521" y="982"/>
      <point x="532" y="971" type="curve" smooth="yes"/>
      <point x="971" y="532" type="line" smooth="yes"/>
      <point x="982" y="521"/>
      <point x="987" y="511"/>
    </contour>
  </outline>
</glyph>
<glyph name="zero" format="1">
  <advance width="1000"/>
  <unicode hex="0030"/>
  <outline>
    <contour>
      <point x="987" y="298" type="line"/>
      <point x="702" y="13" type="line"/>
      <point x="298" y="13" type="line"/>
      <point x="13" y="298" type="line"/>
      <point x="13" y="702" type="line"/>
      <point x="298" y="987" type="line"/>
      <point x="702" y="987" type="line"/>
      <point x="987" y="702" type="line"/>
    </contour>
    <contour>
      <point x="984" y="299" type="line"/>
      <point x="984" y="701" type="line"/>
      <point x="701" y="984" type="line"/>
      <point x="299" y="984" type="line"/>
      <point x="16" y="701" type="line"/>
      <point x="16" y="299" type="line"/>
      <point x="299" y="16" type="line"/>
      <point x="701" y="16" type="line"/>
    </contour>
    <contour>
      <point x="965" y="306" type="line"/>
      <point x="694" y="35" type="line"/>
      <point x="307" y="35" type="line"/>
      <point x="35" y="307" type="line"/>
      <point x="35" y="694" type="line"/>
      <point x="306" y="965" type="line"/>
      <point x="694" y="965" type="line"/>
      <point x="965" y="694" type="line"/>
    </contour>
    <contour>
      <point x="865" y="648" type="curve" smooth="yes"/>
      <point x="865" y="685"/>
      <point x="840" y="699"/>
      <point x="816" y="699" type="curve" smooth="yes"/>
      <point x="767" y="699" type="line"/>
      <point x="767" y="524" type="line"/>
      <point x="791" y="524" type="line"/>
      <point x="791" y="596" type="line"/>
      <point x="814" y="596" type="line" smooth="yes"/>
      <point x="841" y="596"/>
      <point x="865" y="614"/>
    </contour>
    <contour>
      <point x="737" y="611" type="curve" smooth="yes"/>
      <point x="737" y="663"/>
      <point x="721" y="701"/>
      <point x="684" y="701" type="curve" smooth="yes"/>
      <point x="647" y="701"/>
      <point x="631" y="661"/>
      <point x="631" y="611" type="curve" smooth="yes"/>
      <point x="631" y="561"/>
      <point x="647" y="522"/>
      <point x="684" y="522" type="curve" smooth="yes"/>
      <point x="721" y="522"/>
      <point x="737" y="560"/>
    </contour>
    <contour>
      <point x="608" y="567" type="curve"/>
      <point x="586" y="573" type="line"/>
      <point x="581" y="554"/>
      <point x="575" y="546"/>
      <point x="564" y="546" type="curve" smooth="yes"/>
      <point x="542" y="546"/>
      <point x="536" y="581"/>
      <point x="536" y="612" type="curve" smooth="yes"/>
      <point x="536" y="644"/>
      <point x="541" y="677"/>
      <point x="562" y="677" type="curve" smooth="yes"/>
      <point x="575" y="677"/>
      <point x="580" y="670"/>
      <point x="583" y="653" type="curve"/>
      <point x="608" y="659" type="line"/>
      <point x="604" y="684"/>
      <point x="592" y="702"/>
      <point x="563" y="702" type="curve" smooth="yes"/>
      <point x="526" y="702"/>
      <point x="510" y="662"/>
      <point x="510" y="611" type="curve" smooth="yes"/>
      <point x="510" y="563"/>
      <point x="524" y="521"/>
      <point x="562" y="521" type="curve" smooth="yes"/>
      <point x="591" y="521"/>
      <point x="603" y="539"/>
    </contour>
    <contour>
      <point x="389" y="611" type="curve" smooth="yes"/>
      <point x="389" y="663"/>
      <point x="373" y="701"/>
      <point x="336" y="701" type="curve" smooth="yes"/>
      <point x="299" y="701"/>
      <point x="283" y="661"/>
      <point x="283" y="611" type="curve" smooth="yes"/>
      <point x="283" y="561"/>
      <point x="299" y="522"/>
      <point x="336" y="522" type="curve" smooth="yes"/>
      <point x="373" y="522"/>
      <point x="389" y="560"/>
    </contour>
    <contour>
      <point x="251" y="524" type="line"/>
      <point x="251" y="699" type="line"/>
      <point x="227" y="699" type="line"/>
      <point x="227" y="587" type="line"/>
      <point x="177" y="699" type="line"/>
      <point x="153" y="699" type="line"/>
      <point x="153" y="524" type="line"/>
      <point x="177" y="524" type="line"/>
      <point x="177" y="648" type="line"/>
      <point x="231" y="524" type="line"/>
    </contour>
    <contour>
      <point x="902" y="427" type="curve" smooth="yes"/>
      <point x="902" y="464"/>
      <point x="877" y="478"/>
      <point x="853" y="478" type="curve" smooth="yes"/>
      <point x="804" y="478" type="line"/>
      <point x="804" y="303" type="line"/>
      <point x="828" y="303" type="line"/>
      <point x="828" y="375" type="line"/>
      <point x="851" y="375" type="line" smooth="yes"/>
      <point x="878" y="375"/>
      <point x="902" y="393"/>
    </contour>
    <contour>
      <point x="772" y="390" type="curve" smooth="yes"/>
      <point x="772" y="442"/>
      <point x="756" y="480"/>
      <point x="719" y="480" type="curve" smooth="yes"/>
      <point x="682" y="480"/>
      <point x="666" y="440"/>
      <point x="666" y="390" type="curve" smooth="yes"/>
      <point x="666" y="340"/>
      <point x="682" y="301"/>
      <point x="719" y="301" type="curve" smooth="yes"/>
      <point x="756" y="301"/>
      <point x="772" y="339"/>
    </contour>
    <contour>
      <point x="653" y="454" type="line"/>
      <point x="653" y="478" type="line"/>
      <point x="564" y="478" type="line"/>
      <point x="564" y="454" type="line"/>
      <point x="596" y="454" type="line"/>
      <point x="596" y="303" type="line"/>
      <point x="620" y="303" type="line"/>
      <point x="620" y="454" type="line"/>
    </contour>
    <contour>
      <point x="544" y="349" type="curve" smooth="yes"/>
      <point x="544" y="379"/>
      <point x="527" y="391"/>
      <point x="505" y="405" type="curve" smooth="yes"/>
      <point x="485" y="418"/>
      <point x="479" y="424"/>
      <point x="479" y="437" type="curve" smooth="yes"/>
      <point x="479" y="448"/>
      <point x="486" y="456"/>
      <point x="498" y="456" type="curve" smooth="yes"/>
      <point x="509" y="456"/>
      <point x="514" y="452"/>
      <point x="523" y="441" type="curve"/>
      <point x="541" y="457" type="line"/>
      <point x="530" y="472"/>
      <point x="519" y="480"/>
      <point x="498" y="480" type="curve" smooth="yes"/>
      <point x="471" y="480"/>
      <point x="454" y="463"/>
      <point x="454" y="437" type="curve" smooth="yes"/>
      <point x="454" y="410"/>
      <point x="470" y="396"/>
      <point x="489" y="383" type="curve" smooth="yes"/>
      <point x="513" y="368"/>
      <point x="519" y="362"/>
      <point x="519" y="348" type="curve" smooth="yes"/>
      <point x="519" y="333"/>
      <point x="511" y="325"/>
      <point x="498" y="325" type="curve" smooth="yes"/>
      <point x="487" y="325"/>
      <point x="479" y="330"/>
      <point x="469" y="345" type="curve"/>
      <point x="450" y="329" type="line"/>
      <point x="460" y="312"/>
      <point x="474" y="301"/>
      <point x="496" y="301" type="curve" smooth="yes"/>
      <point x="527" y="301"/>
      <point x="544" y="321"/>
    </contour>
    <contour>
      <point x="339" y="390" type="curve" smooth="yes"/>
      <point x="339" y="442"/>
      <point x="323" y="480"/>
      <point x="286" y="480" type="curve" smooth="yes"/>
      <point x="249" y="480"/>
      <point x="233" y="440"/>
      <point x="233" y="390" type="curve" smooth="yes"/>
      <point x="233" y="340"/>
      <point x="249" y="301"/>
      <point x="286" y="301" type="curve" smooth="yes"/>
      <point x="323" y="301"/>
      <point x="339" y="339"/>
    </contour>
    <contour>
      <point x="201" y="303" type="line"/>
      <point x="201" y="478" type="line"/>
      <point x="177" y="478" type="line"/>
      <point x="177" y="366" type="line"/>
      <point x="127" y="478" type="line"/>
      <point x="103" y="478" type="line"/>
      <point x="103" y="303" type="line"/>
      <point x="127" y="303" type="line"/>
      <point x="127" y="427" type="line"/>
      <point x="181" y="303" type="line"/>
    </contour>
    <contour>
      <point x="840" y="648" type="curve" smooth="yes"/>
      <point x="840" y="629"/>
      <point x="829" y="619"/>
      <point x="815" y="619" type="curve" smooth="yes"/>
      <point x="791" y="619" type="line"/>
      <point x="791" y="675" type="line"/>
      <point x="814" y="675" type="line" smooth="yes"/>
      <point x="828" y="675"/>
      <point x="840" y="667"/>
    </contour>
    <contour>
      <point x="712" y="611" type="curve" smooth="yes"/>
      <point x="712" y="578"/>
      <point x="706" y="546"/>
      <point x="685" y="546" type="curve" smooth="yes"/>
      <point x="663" y="546"/>
      <point x="656" y="579"/>
      <point x="656" y="611" type="curve" smooth="yes"/>
      <point x="656" y="644"/>
      <point x="662" y="677"/>
      <point x="684" y="677" type="curve" smooth="yes"/>
      <point x="705" y="677"/>
      <point x="712" y="643"/>
    </contour>
    <contour>
      <point x="364" y="611" type="curve" smooth="yes"/>
      <point x="364" y="578"/>
      <point x="358" y="546"/>
      <point x="337" y="546" type="curve" smooth="yes"/>
      <point x="315" y="546"/>
      <point x="308" y="579"/>
      <point x="308" y="611" type="curve" smooth="yes"/>
      <point x="308" y="644"/>
      <point x="314" y="677"/>
      <point x="336" y="677" type="curve" smooth="yes"/>
      <point x="357" y="677"/>
      <point x="364" y="643"/>
    </contour>
    <contour>
      <point x="877" y="427" type="curve" smooth="yes"/>
      <point x="877" y="408"/>
      <point x="866" y="398"/>
      <point x="852" y="398" type="curve" smooth="yes"/>
      <point x="828" y="398" type="line"/>
      <point x="828" y="454" type="line"/>
      <point x="851" y="454" type="line" smooth="yes"/>
      <point x="865" y="454"/>
      <point x="877" y="446"/>
    </contour>
    <contour>
      <point x="747" y="390" type="curve" smooth="yes"/>
      <point x="747" y="357"/>
      <point x="741" y="325"/>
      <point x="720" y="325" type="curve" smooth="yes"/>
      <point x="698" y="325"/>
      <point x="691" y="358"/>
      <point x="691" y="390" type="curve" smooth="yes"/>
      <point x="691" y="423"/>
      <point x="697" y="456"/>
      <point x="719" y="456" type="curve" smooth="yes"/>
      <point x="740" y="456"/>
      <point x="747" y="422"/>
    </contour>
    <contour>
      <point x="314" y="390" type="curve" smooth="yes"/>
      <point x="314" y="357"/>
      <point x="308" y="325"/>
      <point x="287" y="325" type="curve" smooth="yes"/>
      <point x="265" y="325"/>
      <point x="258" y="358"/>
      <point x="258" y="390" type="curve" smooth="yes"/>
      <point x="258" y="423"/>
      <point x="264" y="456"/>
      <point x="286" y="456" type="curve" smooth="yes"/>
      <point x="307" y="456"/>
      <point x="314" y="422"/>
    </contour>
  </outline>
</glyph>
<glyph name="one" format="1">
  <advance width="1000"/>
  <unicode hex="0031"/>
  <outline>
    <contour>
      <point x="987" y="60" type="line" smooth="yes"/>
      <point x="987" y="31"/>
      <point x="969" y="13"/>
      <point x="939" y="13" type="curve" smooth="yes"/>
      <point x="61" y="13" type="line" smooth="yes"/>
      <point x="31" y="13"/>
      <point x="13" y="31"/>
      <point x="13" y="60" type="curve" smooth="yes"/>
      <point x="13" y="940" type="line" smooth="yes"/>
      <point x="13" y="969"/>
      <point x="31" y="987"/>
      <point x="61" y="987" type="curve" smooth="yes"/>
      <point x="939" y="987" type="line" smooth="yes"/>
      <point x="969" y="987"/>
      <point x="987" y="969"/>
      <point x="987" y="940" type="curve" smooth="yes"/>
    </contour>
    <contour>
      <point x="984" y="60" type="curve" smooth="yes"/>
      <point x="984" y="940" type="line" smooth="yes"/>
      <point x="984" y="967"/>
      <point x="967" y="984"/>
      <point x="939" y="984" type="curve" smooth="yes"/>
      <point x="61" y="984" type="line" smooth="yes"/>
      <point x="33" y="984"/>
      <point x="16" y="967"/>
      <point x="16" y="940" type="curve" smooth="yes"/>
      <point x="16" y="60" type="line" smooth="yes"/>
      <point x="16" y="33"/>
      <point x="33" y="16"/>
      <point x="61" y="16" type="curve" smooth="yes"/>
      <point x="939" y="16" type="line" smooth="yes"/>
      <point x="967" y="16"/>
      <point x="984" y="33"/>
    </contour>
    <contour>
      <point x="965" y="60" type="line" smooth="yes"/>
      <point x="965" y="44"/>
      <point x="955" y="35"/>
      <point x="939" y="35" type="curve" smooth="yes"/>
      <point x="61" y="35" type="line" smooth="yes"/>
      <point x="45" y="35"/>
      <point x="35" y="44"/>
      <point x="35" y="60" type="curve" smooth="yes"/>
      <point x="35" y="940" type="line" smooth="yes"/>
      <point x="35" y="956"/>
      <point x="45" y="965"/>
      <point x="61" y="965" type="curve" smooth="yes"/>
      <point x="939" y="965" type="line" smooth="yes"/>
      <point x="955" y="965"/>
      <point x="965" y="956"/>
      <point x="965" y="940" type="curve" smooth="yes"/>
    </contour>
    <contour>
      <point x="916" y="354" type="curve" smooth="yes"/>
      <point x="916" y="468"/>
      <point x="827" y="526"/>
      <point x="826" y="670" type="curve" smooth="yes"/>
      <point x="825" y="796"/>
      <point x="805" y="924"/>
      <point x="622" y="924" type="curve" smooth="yes"/>
      <point x="350" y="924"/>
      <point x="357" y="831"/>
      <point x="244" y="704" type="curve" smooth="yes"/>
      <point x="153" y="601"/>
      <point x="84" y="561"/>
      <point x="84" y="392" type="curve" smooth="yes"/>
      <point x="84" y="-1"/>
      <point x="488" y="152"/>
      <point x="678" y="154" type="curve" smooth="yes"/>
      <point x="780" y="155"/>
      <point x="916" y="176"/>
    </contour>
    <contour>
      <point x="612" y="436" type="curve" smooth="yes"/>
      <point x="612" y="344"/>
      <point x="536" y="268"/>
      <point x="444" y="268" type="curve" smooth="yes"/>
      <point x="352" y="268"/>
      <point x="276" y="344"/>
      <point x="276" y="436" type="curve" smooth="yes"/>
      <point x="276" y="528"/>
      <point x="352" y="604"/>
      <point x="444" y="604" type="curve" smooth="yes"/>
      <point x="536" y="604"/>
      <point x="612" y="528"/>
    </contour>
    <contour>
      <point x="397" y="535" type="curve" smooth="yes"/>
      <point x="397" y="547"/>
      <point x="388" y="556"/>
      <point x="376" y="556" type="curve" smooth="yes"/>
      <point x="364" y="556"/>
      <point x="355" y="547"/>
      <point x="355" y="535" type="curve" smooth="yes"/>
      <point x="355" y="523"/>
      <point x="364" y="514"/>
      <point x="376" y="514" type="curve" smooth="yes"/>
      <point x="388" y="514"/>
      <point x="397" y="523"/>
    </contour>
  </outline>
</glyph>
<glyph name="two" format="1">
  <advance width="1000"/>
  <unicode hex="0032"/>
  <outline>
    <contour>
      <point x="987" y="60" type="line" smooth="yes"/>
      <point x="987" y="31"/>
      <point x="969" y="13"/>
      <point x="939" y="13" type="curve" smooth="yes"/>
      <point x="61" y="13" type="line" smooth="yes"/>
      <point x="31" y="13"/>
      <point x="13" y="31"/>
      <point x="13" y="60" type="curve" smooth="yes"/>
      <point x="13" y="940" type="line" smooth="yes"/>
      <point x="13" y="969"/>
      <point x="31" y="987"/>
      <point x="61" y="987" type="curve" smooth="yes"/>
      <point x="939" y="987" type="line" smooth="yes"/>
      <point x="969" y="987"/>
      <point x="987" y="969"/>
      <point x="987" y="940" type="curve" smooth="yes"/>
    </contour>
    <contour>
      <point x="984" y="60" type="curve" smooth="yes"/>
      <point x="984" y="940" type="line" smooth="yes"/>
      <point x="984" y="967"/>
      <point x="967" y="984"/>
      <point x="939" y="984" type="curve" smooth="yes"/>
      <point x="61" y="984" type="line" smooth="yes"/>
      <point x="33" y="984"/>
      <point x="16" y="967"/>
      <point x="16" y="940" type="curve" smooth="yes"/>
      <point x="16" y="60" type="line" smooth="yes"/>
      <point x="16" y="33"/>
      <point x="33" y="16"/>
      <point x="61" y="16" type="curve" smooth="yes"/>
      <point x="939" y="16" type="line" smooth="yes"/>
      <point x="967" y="16"/>
      <point x="984" y="33"/>
    </contour>
    <contour>
      <point x="965" y="60" type="line" smooth="yes"/>
      <point x="965" y="44"/>
      <point x="955" y="35"/>
      <point x="939" y="35" type="curve" smooth="yes"/>
      <point x="61" y="35" type="line" smooth="yes"/>
      <point x="45" y="35"/>
      <point x="35" y="44"/>
      <point x="35" y="60" type="curve" smooth="yes"/>
      <point x="35" y="940" type="line" smooth="yes"/>
      <point x="35" y="956"/>
      <point x="45" y="965"/>
      <point x="61" y="965" type="curve" smooth="yes"/>
      <point x="939" y="965" type="line" smooth="yes"/>
      <point x="955" y="965"/>
      <point x="965" y="956"/>
      <point x="965" y="940" type="curve" smooth="yes"/>
    </contour>
    <contour>
      <point x="877" y="698" type="curve" smooth="yes"/>
      <point x="877" y="720"/>
      <point x="850" y="720"/>
      <point x="830" y="728" type="curve" smooth="yes"/>
      <point x="815" y="734"/>
      <point x="815" y="739"/>
      <point x="788" y="739" type="curve" smooth="yes"/>
      <point x="763" y="739"/>
      <point x="742" y="727"/>
      <point x="737" y="726" type="curve" smooth="yes"/>
      <point x="615" y="703" type="line"/>
      <point x="224" y="855" type="line"/>
      <point x="210" y="855"/>
      <point x="206" y="851"/>
      <point x="206" y="851" type="curve"/>
      <point x="189" y="838" type="line"/>
      <point x="386" y="714" type="line"/>
      <point x="428" y="671" type="line"/>
      <point x="338" y="654" type="line"/>
      <point x="286" y="710" type="line" smooth="yes"/>
      <point x="282" y="714"/>
      <point x="269" y="723"/>
      <point x="263" y="722" type="curve" smooth="yes"/>
      <point x="246" y="719" type="line"/>
      <point x="251" y="661" type="line"/>
      <point x="177" y="696" type="line" smooth="yes"/>
      <point x="161" y="704"/>
      <point x="143" y="694"/>
      <point x="148" y="689" type="curve" smooth="yes"/>
      <point x="224" y="618" type="line"/>
      <point x="220" y="616"/>
      <point x="217" y="613"/>
      <point x="217" y="605" type="curve" smooth="yes"/>
      <point x="217" y="599"/>
      <point x="235" y="597"/>
      <point x="242" y="597" type="curve"/>
      <point x="278" y="549" type="line" smooth="yes"/>
      <point x="281" y="545"/>
      <point x="298" y="548"/>
      <point x="299" y="554" type="curve" smooth="yes"/>
      <point x="307" y="588" type="line"/>
      <point x="312" y="588"/>
      <point x="331" y="585"/>
      <point x="401" y="585" type="curve" smooth="yes"/>
      <point x="461" y="585"/>
      <point x="490" y="590"/>
      <point x="495" y="590" type="curve"/>
      <point x="540" y="550" type="line"/>
      <point x="540" y="442" type="line"/>
      <point x="563" y="444" type="line" smooth="yes"/>
      <point x="571" y="445"/>
      <point x="578" y="448"/>
      <point x="583" y="460" type="curve" smooth="yes"/>
      <point x="654" y="615" type="line"/>
      <point x="662" y="615"/>
      <point x="877" y="646"/>
    </contour>
    <contour>
      <point x="511" y="129" type="curve"/>
      <point x="516" y="149"/>
      <point x="514" y="173"/>
      <point x="501" y="186" type="curve" smooth="yes"/>
      <point x="477" y="210"/>
      <point x="426" y="243"/>
      <point x="426" y="243" type="curve"/>
      <point x="427" y="283" type="line"/>
      <point x="410" y="299" type="line"/>
      <point x="391" y="253" type="line"/>
      <point x="374" y="271" type="line"/>
      <point x="369" y="267" type="line"/>
      <point x="387" y="249" type="line"/>
      <point x="341" y="230" type="line"/>
      <point x="357" y="214" type="line"/>
      <point x="397" y="214" type="line"/>
      <point x="397" y="214"/>
      <point x="430" y="164"/>
      <point x="454" y="140" type="curve" smooth="yes"/>
      <point x="468" y="126"/>
      <point x="492" y="125"/>
    </contour>
  </outline>
</glyph>
<glyph name="three" format="1">
  <advance width="1000"/>
  <unicode hex="0033"/>
  <outline>
    <contour>
      <point x="987" y="60" type="line" smooth="yes"/>
      <point x="987" y="31"/>
      <point x="969" y="13"/>
      <point x="939" y="13" type="curve" smooth="yes"/>
      <point x="61" y="13" type="line" smooth="yes"/>
      <point x="31" y="13"/>
      <point x="13" y="31"/>
      <point x="13" y="60" type="curve" smooth="yes"/>
      <point x="13" y="940" type="line" smooth="yes"/>
      <point x="13" y="969"/>
      <point x="31" y="987"/>
      <point x="61" y="987" type="curve" smooth="yes"/>
      <point x="939" y="987" type="line" smooth="yes"/>
      <point x="969" y="987"/>
      <point x="987" y="969"/>
      <point x="987" y="940" type="curve" smooth="yes"/>
    </contour>
    <contour>
      <point x="984" y="60" type="curve" smooth="yes"/>
      <point x="984" y="940" type="line" smooth="yes"/>
      <point x="984" y="967"/>
      <point x="967" y="984"/>
      <point x="939" y="984" type="curve" smooth="yes"/>
      <point x="61" y="984" type="line" smooth="yes"/>
      <point x="33" y="984"/>
      <point x="16" y="967"/>
      <point x="16" y="940" type="curve" smooth="yes"/>
      <point x="16" y="60" type="line" smooth="yes"/>
      <point x="16" y="33"/>
      <point x="33" y="16"/>
      <point x="61" y="16" type="curve" smooth="yes"/>
      <point x="939" y="16" type="line" smooth="yes"/>
      <point x="967" y="16"/>
      <point x="984" y="33"/>
    </contour>
    <contour>
      <point x="965" y="60" type="line" smooth="yes"/>
      <point x="965" y="44"/>
      <point x="955" y="35"/>
      <point x="939" y="35" type="curve" smooth="yes"/>
      <point x="61" y="35" type="line" smooth="yes"/>
      <point x="45" y="35"/>
      <point x="35" y="44"/>
      <point x="35" y="60" type="curve" smooth="yes"/>
      <point x="35" y="940" type="line" smooth="yes"/>
      <point x="35" y="956"/>
      <point x="45" y="965"/>
      <point x="61" y="965" type="curve" smooth="yes"/>
      <point x="939" y="965" type="line" smooth="yes"/>
      <point x="955" y="965"/>
      <point x="965" y="956"/>
      <point x="965" y="940" type="curve" smooth="yes"/>
    </contour>
    <contour>
      <point x="914" y="500" type="curve" smooth="yes"/>
      <point x="914" y="729"/>
      <point x="729" y="914"/>
      <point x="500" y="914" type="curve" smooth="yes"/>
      <point x="271" y="914"/>
      <point x="86" y="729"/>
      <point x="86" y="500" type="curve" smooth="yes"/>
      <point x="86" y="271"/>
      <point x="271" y="86"/>
      <point x="500" y="86" type="curve" smooth="yes"/>
      <point x="729" y="86"/>
      <point x="914" y="271"/>
    </contour>
    <contour>
      <point x="620" y="600" type="line"/>
      <point x="600" y="600" type="line"/>
      <point x="600" y="720" type="line"/>
      <point x="620" y="720" type="line"/>
    </contour>
    <contour>
      <point x="400" y="600" type="line"/>
      <point x="380" y="600" type="line"/>
      <point x="380" y="720" type="line"/>
      <point x="400" y="720" type="line"/>
    </contour>
    <contour>
      <point x="836" y="500" type="line"/>
      <point x="829" y="481" type="line"/>
      <point x="810" y="488" type="line"/>
      <point x="804" y="324"/>
      <point x="672" y="190"/>
      <point x="500" y="190" type="curve" smooth="yes"/>
      <point x="332" y="190"/>
      <point x="196" y="324"/>
      <point x="190" y="488" type="curve"/>
      <point x="171" y="481" type="line"/>
      <point x="164" y="500" type="line"/>
      <point x="227" y="525" type="line"/>
      <point x="234" y="506" type="line"/>
      <point x="210" y="496" type="line"/>
      <point x="212" y="338"/>
      <point x="341" y="210"/>
      <point x="500" y="210" type="curve" smooth="yes"/>
      <point x="659" y="210"/>
      <point x="788" y="338"/>
      <point x="790" y="496" type="curve"/>
      <point x="766" y="506" type="line"/>
      <point x="773" y="525" type="line"/>
    </contour>
  </outline>
</glyph>
<glyph name="four" format="1">
  <advance width="1000"/>
  <unicode hex="0034"/>
  <outline>
    <contour>
      <point x="987" y="60" type="line" smooth="yes"/>
      <point x="987" y="31"/>
      <point x="969" y="13"/>
      <point x="939" y="13" type="curve" smooth="yes"/>
      <point x="61" y="13" type="line" smooth="yes"/>
      <point x="31" y="13"/>
      <point x="13" y="31"/>
      <point x="13" y="60" type="curve" smooth="yes"/>
      <point x="13" y="940" type="line" smooth="yes"/>
      <point x="13" y="969"/>
      <point x="31" y="987"/>
      <point x="61" y="987" type="curve" smooth="yes"/>
      <point x="939" y="987" type="line" smooth="yes"/>
      <point x="969" y="987"/>
      <point x="987" y="969"/>
      <point x="987" y="940" type="curve" smooth="yes"/>
    </contour>
    <contour>
      <point x="984" y="60" type="curve" smooth="yes"/>
      <point x="984" y="940" type="line" smooth="yes"/>
      <point x="984" y="967"/>
      <point x="967" y="984"/>
      <point x="939" y="984" type="curve" smooth="yes"/>
      <point x="61" y="984" type="line" smooth="yes"/>
      <point x="33" y="984"/>
      <point x="16" y="967"/>
      <point x="16" y="940" type="curve" smooth="yes"/>
      <point x="16" y="60" type="line" smooth="yes"/>
      <point x="16" y="33"/>
      <point x="33" y="16"/>
      <point x="61" y="16" type="curve" smooth="yes"/>
      <point x="939" y="16" type="line" smooth="yes"/>
      <point x="967" y="16"/>
      <point x="984" y="33"/>
    </contour>
    <contour>
      <point x="965" y="60" type="line" smooth="yes"/>
      <point x="965" y="44"/>
      <point x="955" y="35"/>
      <point x="939" y="35" type="curve" smooth="yes"/>
      <point x="61" y="35" type="line" smooth="yes"/>
      <point x="45" y="35"/>
      <point x="35" y="44"/>
      <point x="35" y="60" type="curve" smooth="yes"/>
      <point x="35" y="940" type="line" smooth="yes"/>
      <point x="35" y="956"/>
      <point x="45" y="965"/>
      <point x="61" y="965" type="curve" smooth="yes"/>
      <point x="939" y="965" type="line" smooth="yes"/>
      <point x="955" y="965"/>
      <point x="965" y="956"/>
      <point x="965" y="940" type="curve" smooth="yes"/>
    </contour>
    <contour>
      <point x="729" y="385" type="curve" smooth="yes"/>
      <point x="729" y="515"/>
      <point x="623" y="549"/>
      <point x="528" y="571" type="curve" smooth="yes"/>
      <point x="434" y="593"/>
      <point x="409" y="605"/>
      <point x="409" y="642" type="curve" smooth="yes"/>
      <point x="409" y="668"/>
      <point x="430" y="691"/>
      <point x="494" y="691" type="curve" smooth="yes"/>
      <point x="548" y="691"/>
      <point x="591" y="669"/>
      <point x="630" y="630" type="curve"/>
      <point x="716" y="714" type="line"/>
      <point x="673" y="759"/>
      <point x="622" y="790"/>
      <point x="560" y="801" type="curve"/>
      <point x="560" y="888" type="line"/>
      <point x="440" y="888" type="line"/>
      <point x="440" y="802" type="line"/>
      <point x="350" y="785"/>
      <point x="284" y="726"/>
      <point x="284" y="637" type="curve" smooth="yes"/>
      <point x="284" y="519"/>
      <point x="361" y="484"/>
      <point x="471" y="459" type="curve" smooth="yes"/>
      <point x="584" y="433"/>
      <point x="604" y="416"/>
      <point x="604" y="377" type="curve" smooth="yes"/>
      <point x="604" y="332"/>
      <point x="571" y="316"/>
      <point x="501" y="316" type="curve" smooth="yes"/>
      <point x="443" y="316"/>
      <point x="390" y="336"/>
      <point x="348" y="384" type="curve"/>
      <point x="261" y="307" type="line"/>
      <point x="298" y="253"/>
      <point x="363" y="215"/>
      <point x="440" y="204" type="curve"/>
      <point x="440" y="118" type="line"/>
      <point x="560" y="118" type="line"/>
      <point x="560" y="204" type="line"/>
      <point x="677" y="221"/>
      <point x="729" y="288"/>
    </contour>
  </outline>
</glyph>
<glyph name="five" format="1">
  <advance width="1000"/>
  <unicode hex="0035"/>
  <outline>
    <contour>
      <point x="893" y="64" type="line" smooth="yes"/>
      <point x="893" y="33"/>
      <point x="874" y="13"/>
      <point x="841" y="13" type="curve" smooth="yes"/>
      <point x="159" y="13" type="line" smooth="yes"/>
      <point x="126" y="13"/>
      <point x="107" y="33"/>
      <point x="107" y="64" type="curve" smooth="yes"/>
      <point x="107" y="936" type="line" smooth="yes"/>
      <point x="107" y="967"/>
      <point x="126" y="987"/>
      <point x="159" y="987" type="curve" smooth="yes"/>
      <point x="841" y="987" type="line" smooth="yes"/>
      <point x="874" y="987"/>
      <point x="893" y="967"/>
      <point x="893" y="936" type="curve" smooth="yes"/>
    </contour>
    <contour>
      <point x="890" y="64" type="curve" smooth="yes"/>
      <point x="890" y="936" type="line" smooth="yes"/>
      <point x="890" y="966"/>
      <point x="872" y="984"/>
      <point x="841" y="984" type="curve" smooth="yes"/>
      <point x="159" y="984" type="line" smooth="yes"/>
      <point x="128" y="984"/>
      <point x="110" y="966"/>
      <point x="110" y="936" type="curve" smooth="yes"/>
      <point x="110" y="64" type="line" smooth="yes"/>
      <point x="110" y="34"/>
      <point x="128" y="16"/>
      <point x="159" y="16" type="curve" smooth="yes"/>
      <point x="841" y="16" type="line" smooth="yes"/>
      <point x="872" y="16"/>
      <point x="890" y="34"/>
    </contour>
    <contour>
      <point x="871" y="64" type="line" smooth="yes"/>
      <point x="871" y="46"/>
      <point x="859" y="35"/>
      <point x="841" y="35" type="curve" smooth="yes"/>
      <point x="159" y="35" type="line" smooth="yes"/>
      <point x="141" y="35"/>
      <point x="129" y="46"/>
      <point x="129" y="64" type="curve" smooth="yes"/>
      <point x="129" y="936" type="line" smooth="yes"/>
      <point x="129" y="954"/>
      <point x="141" y="965"/>
      <point x="159" y="965" type="curve" smooth="yes"/>
      <point x="841" y="965" type="line" smooth="yes"/>
      <point x="859" y="965"/>
      <point x="871" y="954"/>
      <point x="871" y="936" type="curve" smooth="yes"/>
    </contour>
    <contour>
      <point x="851" y="64" type="curve" smooth="yes"/>
      <point x="851" y="936" type="line" smooth="yes"/>
      <point x="851" y="942"/>
      <point x="847" y="945"/>
      <point x="841" y="945" type="curve" smooth="yes"/>
      <point x="159" y="945" type="line" smooth="yes"/>
      <point x="153" y="945"/>
      <point x="149" y="942"/>
      <point x="149" y="936" type="curve" smooth="yes"/>
      <point x="149" y="64" type="line" smooth="yes"/>
      <point x="149" y="58"/>
      <point x="153" y="55"/>
      <point x="159" y="55" type="curve" smooth="yes"/>
      <point x="841" y="55" type="line" smooth="yes"/>
      <point x="847" y="55"/>
      <point x="851" y="58"/>
    </contour>
    <contour>
      <point x="784" y="714" type="curve" smooth="yes"/>
      <point x="784" y="626"/>
      <point x="736" y="564"/>
      <point x="661" y="564" type="curve" smooth="yes"/>
      <point x="587" y="564"/>
      <point x="538" y="626"/>
      <point x="538" y="714" type="curve" smooth="yes"/>
      <point x="538" y="802"/>
      <point x="587" y="864"/>
      <point x="661" y="864" type="curve" smooth="yes"/>
      <point x="736" y="864"/>
      <point x="784" y="802"/>
    </contour>
    <contour>
      <point x="464" y="569" type="line"/>
      <point x="422" y="569" type="line"/>
      <point x="285" y="784" type="line"/>
      <point x="285" y="569" type="line"/>
      <point x="242" y="569" type="line"/>
      <point x="242" y="859" type="line"/>
      <point x="286" y="859" type="line"/>
      <point x="421" y="644" type="line"/>
      <point x="421" y="859" type="line"/>
      <point x="464" y="859" type="line"/>
    </contour>
    <contour>
      <point x="794" y="404" type="curve" smooth="yes"/>
      <point x="794" y="360"/>
      <point x="766" y="341"/>
      <point x="733" y="341" type="curve" smooth="yes"/>
      <point x="698" y="341" type="line"/>
      <point x="698" y="467" type="line"/>
      <point x="733" y="467" type="line" smooth="yes"/>
      <point x="766" y="467"/>
      <point x="794" y="448"/>
    </contour>
    <contour>
      <point x="661" y="341" type="line"/>
      <point x="577" y="341" type="line"/>
      <point x="577" y="467" type="line"/>
      <point x="658" y="467" type="line"/>
      <point x="658" y="448" type="line"/>
      <point x="596" y="448" type="line"/>
      <point x="596" y="417" type="line"/>
      <point x="632" y="417" type="line"/>
      <point x="632" y="399" type="line"/>
      <point x="596" y="399" type="line"/>
      <point x="596" y="359" type="line"/>
      <point x="661" y="359" type="line"/>
    </contour>
    <contour>
      <point x="538" y="341" type="line"/>
      <point x="454" y="341" type="line"/>
      <point x="454" y="467" type="line"/>
      <point x="535" y="467" type="line"/>
      <point x="535" y="448" type="line"/>
      <point x="473" y="448" type="line"/>
      <point x="473" y="417" type="line"/>
      <point x="509" y="417" type="line"/>
      <point x="509" y="399" type="line"/>
      <point x="473" y="399" type="line"/>
      <point x="473" y="359" type="line"/>
      <point x="538" y="359" type="line"/>
    </contour>
    <contour>
      <point x="423" y="428" type="curve" smooth="yes"/>
      <point x="423" y="402"/>
      <point x="405" y="388"/>
      <point x="381" y="388" type="curve" smooth="yes"/>
      <point x="348" y="388" type="line"/>
      <point x="348" y="341" type="line"/>
      <point x="329" y="341" type="line"/>
      <point x="329" y="467" type="line"/>
      <point x="382" y="467" type="line" smooth="yes"/>
      <point x="404" y="467"/>
      <point x="423" y="453"/>
    </contour>
    <contour>
      <point x="294" y="377" type="curve" smooth="yes"/>
      <point x="294" y="354"/>
      <point x="279" y="339"/>
      <point x="247" y="339" type="curve" smooth="yes"/>
      <point x="229" y="339"/>
      <point x="213" y="347"/>
      <point x="202" y="359" type="curve"/>
      <point x="216" y="372" type="line"/>
      <point x="224" y="363"/>
      <point x="236" y="357"/>
      <point x="248" y="357" type="curve" smooth="yes"/>
      <point x="266" y="357"/>
      <point x="274" y="364"/>
      <point x="274" y="376" type="curve" smooth="yes"/>
      <point x="274" y="386"/>
      <point x="267" y="390"/>
      <point x="246" y="397" type="curve" smooth="yes"/>
      <point x="219" y="405"/>
      <point x="207" y="411"/>
      <point x="207" y="434" type="curve" smooth="yes"/>
      <point x="207" y="456"/>
      <point x="225" y="469"/>
      <point x="248" y="469" type="curve" smooth="yes"/>
      <point x="265" y="469"/>
      <point x="278" y="463"/>
      <point x="289" y="452" type="curve"/>
      <point x="276" y="438" type="line"/>
      <point x="268" y="446"/>
      <point x="259" y="450"/>
      <point x="247" y="450" type="curve" smooth="yes"/>
      <point x="232" y="450"/>
      <point x="226" y="443"/>
      <point x="226" y="435" type="curve" smooth="yes"/>
      <point x="226" y="426"/>
      <point x="231" y="422"/>
      <point x="253" y="415" type="curve" smooth="yes"/>
      <point x="278" y="408"/>
      <point x="294" y="400"/>
    </contour>
    <contour>
      <point x="733" y="255" type="line"/>
      <point x="697" y="255" type="line"/>
      <point x="697" y="148" type="line"/>
      <point x="678" y="148" type="line"/>
      <point x="678" y="255" type="line"/>
      <point x="641" y="255" type="line"/>
      <point x="641" y="274" type="line"/>
      <point x="733" y="274" type="line"/>
    </contour>
    <contour>
      <point x="611" y="148" type="line"/>
      <point x="592" y="148" type="line"/>
      <point x="592" y="274" type="line"/>
      <point x="611" y="274" type="line"/>
    </contour>
    <contour>
      <point x="404" y="148" type="line"/>
      <point x="385" y="148" type="line"/>
      <point x="385" y="274" type="line"/>
      <point x="404" y="274" type="line"/>
    </contour>
    <contour>
      <point x="354" y="148" type="line"/>
      <point x="273" y="148" type="line"/>
      <point x="273" y="274" type="line"/>
      <point x="291" y="274" type="line"/>
      <point x="291" y="166" type="line"/>
      <point x="354" y="166" type="line"/>
    </contour>
    <contour>
      <point x="555" y="148" type="line"/>
      <point x="537" y="148" type="line"/>
      <point x="537" y="237" type="line"/>
      <point x="499" y="146" type="line"/>
      <point x="461" y="237" type="line"/>
      <point x="461" y="148" type="line"/>
      <point x="443" y="148" type="line"/>
      <point x="443" y="274" type="line"/>
      <point x="462" y="274" type="line"/>
      <point x="499" y="188" type="line"/>
      <point x="536" y="274" type="line"/>
      <point x="555" y="274" type="line"/>
    </contour>
    <contour>
      <point x="740" y="714" type="curve" smooth="yes"/>
      <point x="740" y="780"/>
      <point x="713" y="820"/>
      <point x="661" y="820" type="curve" smooth="yes"/>
      <point x="611" y="820"/>
      <point x="583" y="780"/>
      <point x="583" y="714" type="curve" smooth="yes"/>
      <point x="583" y="648"/>
      <point x="611" y="608"/>
      <point x="661" y="608" type="curve" smooth="yes"/>
      <point x="713" y="608"/>
      <point x="740" y="648"/>
    </contour>
    <contour>
      <point x="403" y="428" type="curve" smooth="yes"/>
      <point x="403" y="441"/>
      <point x="395" y="449"/>
      <point x="382" y="449" type="curve" smooth="yes"/>
      <point x="348" y="449" type="line"/>
      <point x="348" y="406" type="line"/>
      <point x="382" y="406" type="line" smooth="yes"/>
      <point x="396" y="406"/>
      <point x="403" y="414"/>
    </contour>
    <contour>
      <point x="775" y="404" type="curve" smooth="yes"/>
      <point x="775" y="430"/>
      <point x="763" y="448"/>
      <point x="733" y="448" type="curve" smooth="yes"/>
      <point x="717" y="448" type="line"/>
      <point x="717" y="360" type="line"/>
      <point x="733" y="360" type="line" smooth="yes"/>
      <point x="763" y="360"/>
      <point x="775" y="378"/>
    </contour>
  </outline>
</glyph>
<glyph name="six" format="1">
  <advance width="1000"/>
  <unicode hex="0036"/>
  <outline>
    <contour>
      <point x="988" y="270" type="line" smooth="yes"/>
      <point x="988" y="203"/>
      <point x="965" y="180"/>
      <point x="898" y="180" type="curve" smooth="yes"/>
      <point x="103" y="180" type="line" smooth="yes"/>
      <point x="36" y="180"/>
      <point x="13" y="203"/>
      <point x="13" y="270" type="curve" smooth="yes"/>
      <point x="13" y="730" type="line" smooth="yes"/>
      <point x="13" y="797"/>
      <point x="36" y="820"/>
      <point x="103" y="820" type="curve" smooth="yes"/>
      <point x="898" y="820" type="line" smooth="yes"/>
      <point x="965" y="820"/>
      <point x="988" y="797"/>
      <point x="988" y="730" type="curve" smooth="yes"/>
    </contour>
    <contour>
      <point x="985" y="270" type="curve" smooth="yes"/>
      <point x="985" y="730" type="line" smooth="yes"/>
      <point x="985" y="795"/>
      <point x="963" y="817"/>
      <point x="898" y="817" type="curve" smooth="yes"/>
      <point x="103" y="817" type="line" smooth="yes"/>
      <point x="38" y="817"/>
      <point x="16" y="795"/>
      <point x="16" y="730" type="curve" smooth="yes"/>
      <point x="16" y="270" type="line" smooth="yes"/>
      <point x="16" y="205"/>
      <point x="38" y="183"/>
      <point x="103" y="183" type="curve" smooth="yes"/>
      <point x="898" y="183" type="line" smooth="yes"/>
      <point x="963" y="183"/>
      <point x="985" y="205"/>
    </contour>
    <contour>
      <point x="966" y="270" type="line" smooth="yes"/>
      <point x="966" y="219"/>
      <point x="949" y="202"/>
      <point x="898" y="202" type="curve" smooth="yes"/>
      <point x="103" y="202" type="line" smooth="yes"/>
      <point x="52" y="202"/>
      <point x="35" y="219"/>
      <point x="35" y="270" type="curve" smooth="yes"/>
      <point x="35" y="730" type="line" smooth="yes"/>
      <point x="35" y="781"/>
      <point x="52" y="798"/>
      <point x="103" y="798" type="curve" smooth="yes"/>
      <point x="898" y="798" type="line" smooth="yes"/>
      <point x="949" y="798"/>
      <point x="966" y="781"/>
      <point x="966" y="730" type="curve" smooth="yes"/>
    </contour>
    <contour>
      <point x="626" y="631" type="curve" smooth="yes"/>
      <point x="626" y="681"/>
      <point x="605" y="718"/>
      <point x="565" y="718" type="curve" smooth="yes"/>
      <point x="525" y="718"/>
      <point x="504" y="681"/>
      <point x="504" y="631" type="curve" smooth="yes"/>
      <point x="504" y="581"/>
      <point x="525" y="544"/>
      <point x="565" y="544" type="curve" smooth="yes"/>
      <point x="604" y="544"/>
      <point x="626" y="581"/>
    </contour>
    <contour>
      <point x="470" y="547" type="line"/>
      <point x="470" y="715" type="line"/>
      <point x="446" y="715" type="line"/>
      <point x="446" y="599" type="line"/>
      <point x="384" y="715" type="line"/>
      <point x="360" y="715" type="line"/>
      <point x="360" y="547" type="line"/>
      <point x="384" y="547" type="line"/>
      <point x="384" y="668" type="line"/>
      <point x="449" y="547" type="line"/>
    </contour>
    <contour>
      <point x="709" y="465" type="line"/>
      <point x="682" y="465" type="line"/>
      <point x="646" y="390" type="line"/>
      <point x="610" y="465" type="line"/>
      <point x="582" y="465" type="line"/>
      <point x="634" y="367" type="line"/>
      <point x="634" y="297" type="line"/>
      <point x="658" y="297" type="line"/>
      <point x="658" y="367" type="line"/>
    </contour>
    <contour>
      <point x="577" y="297" type="line"/>
      <point x="526" y="465" type="line"/>
      <point x="501" y="465" type="line"/>
      <point x="450" y="297" type="line"/>
      <point x="476" y="297" type="line"/>
      <point x="487" y="338" type="line"/>
      <point x="538" y="338" type="line"/>
      <point x="550" y="297" type="line"/>
    </contour>
    <contour>
      <point x="440" y="465" type="line"/>
      <point x="416" y="465" type="line"/>
      <point x="396" y="346" type="line"/>
      <point x="371" y="465" type="line"/>
      <point x="351" y="465" type="line"/>
      <point x="327" y="346" type="line"/>
      <point x="306" y="465" type="line"/>
      <point x="282" y="465" type="line"/>
      <point x="314" y="297" type="line"/>
      <point x="335" y="297" type="line"/>
      <point x="361" y="415" type="line"/>
      <point x="386" y="297" type="line"/>
      <point x="408" y="297" type="line"/>
    </contour>
    <contour>
      <point x="601" y="631" type="curve" smooth="yes"/>
      <point x="601" y="596"/>
      <point x="590" y="569"/>
      <point x="565" y="569" type="curve" smooth="yes"/>
      <point x="540" y="569"/>
      <point x="529" y="597"/>
      <point x="529" y="631" type="curve" smooth="yes"/>
      <point x="529" y="666"/>
      <point x="540" y="693"/>
      <point x="565" y="693" type="curve" smooth="yes"/>
      <point x="590" y="693"/>
      <point x="601" y="665"/>
    </contour>
    <contour>
      <point x="532" y="362" type="line"/>
      <point x="494" y="362" type="line"/>
      <point x="513" y="430" type="line"/>
    </contour>
  </outline>
</glyph>
<glyph name="seven" format="1">
  <advance width="1000"/>
  <unicode hex="0037"/>
  <outline>
    <contour>
      <point x="987" y="306" type="line" smooth="yes"/>
      <point x="987" y="275"/>
      <point x="968" y="255"/>
      <point x="935" y="255" type="curve" smooth="yes"/>
      <point x="65" y="255" type="line" smooth="yes"/>
      <point x="32" y="255"/>
      <point x="13" y="275"/>
      <point x="13" y="306" type="curve" smooth="yes"/>
      <point x="13" y="694" type="line" smooth="yes"/>
      <point x="13" y="725"/>
      <point x="32" y="745"/>
      <point x="65" y="745" type="curve" smooth="yes"/>
      <point x="935" y="745" type="line" smooth="yes"/>
      <point x="968" y="745"/>
      <point x="987" y="725"/>
      <point x="987" y="694" type="curve" smooth="yes"/>
    </contour>
    <contour>
      <point x="984" y="306" type="curve" smooth="yes"/>
      <point x="984" y="694" type="line" smooth="yes"/>
      <point x="984" y="724"/>
      <point x="966" y="742"/>
      <point x="935" y="742" type="curve" smooth="yes"/>
      <point x="65" y="742" type="line" smooth="yes"/>
      <point x="34" y="742"/>
      <point x="16" y="724"/>
      <point x="16" y="694" type="curve" smooth="yes"/>
      <point x="16" y="306" type="line" smooth="yes"/>
      <point x="16" y="276"/>
      <point x="34" y="258"/>
      <point x="65" y="258" type="curve" smooth="yes"/>
      <point x="935" y="258" type="line" smooth="yes"/>
      <point x="966" y="258"/>
      <point x="984" y="276"/>
    </contour>
    <contour>
      <point x="965" y="306" type="line" smooth="yes"/>
      <point x="965" y="288"/>
      <point x="953" y="277"/>
      <point x="935" y="277" type="curve" smooth="yes"/>
      <point x="65" y="277" type="line" smooth="yes"/>
      <point x="47" y="277"/>
      <point x="35" y="288"/>
      <point x="35" y="306" type="curve" smooth="yes"/>
      <point x="35" y="694" type="line" smooth="yes"/>
      <point x="35" y="712"/>
      <point x="47" y="723"/>
      <point x="65" y="723" type="curve" smooth="yes"/>
      <point x="935" y="723" type="line" smooth="yes"/>
      <point x="953" y="723"/>
      <point x="965" y="712"/>
      <point x="965" y="694" type="curve" smooth="yes"/>
    </contour>
    <contour>
      <point x="945" y="306" type="curve" smooth="yes"/>
      <point x="945" y="694" type="line" smooth="yes"/>
      <point x="945" y="700"/>
      <point x="941" y="703"/>
      <point x="935" y="703" type="curve" smooth="yes"/>
      <point x="65" y="703" type="line" smooth="yes"/>
      <point x="59" y="703"/>
      <point x="55" y="700"/>
      <point x="55" y="694" type="curve" smooth="yes"/>
      <point x="55" y="306" type="line" smooth="yes"/>
      <point x="55" y="300"/>
      <point x="59" y="297"/>
      <point x="65" y="297" type="curve" smooth="yes"/>
      <point x="935" y="297" type="line" smooth="yes"/>
      <point x="941" y="297"/>
      <point x="945" y="300"/>
    </contour>
    <contour>
      <point x="902" y="617" type="line"/>
      <point x="841" y="481" type="line"/>
      <point x="841" y="372" type="line"/>
      <point x="807" y="372" type="line"/>
      <point x="807" y="480" type="line"/>
      <point x="745" y="617" type="line"/>
      <point x="784" y="617" type="line"/>
      <point x="825" y="515" type="line"/>
      <point x="865" y="617" type="line"/>
    </contour>
    <contour>
      <point x="727" y="435" type="curve" smooth="yes"/>
      <point x="727" y="396"/>
      <point x="704" y="368"/>
      <point x="661" y="368" type="curve" smooth="yes"/>
      <point x="630" y="368"/>
      <point x="610" y="384"/>
      <point x="596" y="408" type="curve"/>
      <point x="623" y="430" type="line"/>
      <point x="636" y="409"/>
      <point x="648" y="403"/>
      <point x="663" y="403" type="curve" smooth="yes"/>
      <point x="681" y="403"/>
      <point x="692" y="414"/>
      <point x="692" y="434" type="curve" smooth="yes"/>
      <point x="692" y="453"/>
      <point x="684" y="463"/>
      <point x="651" y="485" type="curve" smooth="yes"/>
      <point x="624" y="503"/>
      <point x="602" y="521"/>
      <point x="602" y="560" type="curve" smooth="yes"/>
      <point x="602" y="595"/>
      <point x="626" y="621"/>
      <point x="664" y="621" type="curve" smooth="yes"/>
      <point x="692" y="621"/>
      <point x="709" y="609"/>
      <point x="723" y="588" type="curve"/>
      <point x="698" y="565" type="line"/>
      <point x="686" y="581"/>
      <point x="678" y="587"/>
      <point x="663" y="587" type="curve" smooth="yes"/>
      <point x="646" y="587"/>
      <point x="637" y="576"/>
      <point x="637" y="561" type="curve" smooth="yes"/>
      <point x="637" y="542"/>
      <point x="646" y="532"/>
      <point x="673" y="515" type="curve" smooth="yes"/>
      <point x="703" y="495"/>
      <point x="727" y="476"/>
    </contour>
    <contour>
      <point x="569" y="435" type="curve" smooth="yes"/>
      <point x="569" y="396"/>
      <point x="546" y="368"/>
      <point x="503" y="368" type="curve" smooth="yes"/>
      <point x="472" y="368"/>
      <point x="452" y="384"/>
      <point x="438" y="408" type="curve"/>
      <point x="465" y="430" type="line"/>
      <point x="478" y="409"/>
      <point x="490" y="403"/>
      <point x="505" y="403" type="curve" smooth="yes"/>
      <point x="523" y="403"/>
      <point x="534" y="414"/>
      <point x="534" y="434" type="curve" smooth="yes"/>
      <point x="534" y="453"/>
      <point x="526" y="463"/>
      <point x="493" y="485" type="curve" smooth="yes"/>
      <point x="466" y="503"/>
      <point x="444" y="521"/>
      <point x="444" y="560" type="curve" smooth="yes"/>
      <point x="444" y="595"/>
      <point x="468" y="621"/>
      <point x="506" y="621" type="curve" smooth="yes"/>
      <point x="534" y="621"/>
      <point x="551" y="609"/>
      <point x="565" y="588" type="curve"/>
      <point x="540" y="565" type="line"/>
      <point x="528" y="581"/>
      <point x="520" y="587"/>
      <point x="505" y="587" type="curve" smooth="yes"/>
      <point x="488" y="587"/>
      <point x="479" y="576"/>
      <point x="479" y="561" type="curve" smooth="yes"/>
      <point x="479" y="542"/>
      <point x="488" y="532"/>
      <point x="515" y="515" type="curve" smooth="yes"/>
      <point x="545" y="495"/>
      <point x="569" y="476"/>
    </contour>
    <contour>
      <point x="416" y="372" type="line"/>
      <point x="379" y="372" type="line"/>
      <point x="365" y="437" type="line"/>
      <point x="311" y="437" type="line"/>
      <point x="297" y="372" type="line"/>
      <point x="261" y="372" type="line"/>
      <point x="321" y="617" type="line"/>
      <point x="357" y="617" type="line"/>
    </contour>
    <contour>
      <point x="241" y="435" type="curve" smooth="yes"/>
      <point x="241" y="396"/>
      <point x="218" y="368"/>
      <point x="175" y="368" type="curve" smooth="yes"/>
      <point x="144" y="368"/>
      <point x="124" y="384"/>
      <point x="110" y="408" type="curve"/>
      <point x="137" y="430" type="line"/>
      <point x="150" y="409"/>
      <point x="162" y="403"/>
      <point x="177" y="403" type="curve" smooth="yes"/>
      <point x="195" y="403"/>
      <point x="206" y="414"/>
      <point x="206" y="434" type="curve" smooth="yes"/>
      <point x="206" y="453"/>
      <point x="198" y="463"/>
      <point x="165" y="485" type="curve" smooth="yes"/>
      <point x="138" y="503"/>
      <point x="116" y="521"/>
      <point x="116" y="560" type="curve" smooth="yes"/>
      <point x="116" y="595"/>
      <point x="140" y="621"/>
      <point x="178" y="621" type="curve" smooth="yes"/>
      <point x="206" y="621"/>
      <point x="223" y="609"/>
      <point x="237" y="588" type="curve"/>
      <point x="212" y="565" type="line"/>
      <point x="200" y="581"/>
      <point x="192" y="587"/>
      <point x="177" y="587" type="curve" smooth="yes"/>
      <point x="160" y="587"/>
      <point x="151" y="576"/>
      <point x="151" y="561" type="curve" smooth="yes"/>
      <point x="151" y="542"/>
      <point x="160" y="532"/>
      <point x="187" y="515" type="curve" smooth="yes"/>
      <point x="217" y="495"/>
      <point x="241" y="476"/>
    </contour>
    <contour>
      <point x="358" y="470" type="line"/>
      <point x="338" y="564" type="line"/>
      <point x="318" y="470" type="line"/>
    </contour>
  </outline>
</glyph>
<glyph name="eight" format="1">
  <advance width="1000"/>
  <unicode hex="0038"/>
  <outline>
    <contour>
      <point x="987" y="306" type="line" smooth="yes"/>
      <point x="987" y="275"/>
      <point x="968" y="255"/>
      <point x="935" y="255" type="curve" smooth="yes"/>
      <point x="65" y="255" type="line" smooth="yes"/>
      <point x="32" y="255"/>
      <point x="13" y="275"/>
      <point x="13" y="306" type="curve" smooth="yes"/>
      <point x="13" y="694" type="line" smooth="yes"/>
      <point x="13" y="725"/>
      <point x="32" y="745"/>
      <point x="65" y="745" type="curve" smooth="yes"/>
      <point x="935" y="745" type="line" smooth="yes"/>
      <point x="968" y="745"/>
      <point x="987" y="725"/>
      <point x="987" y="694" type="curve" smooth="yes"/>
    </contour>
    <contour>
      <point x="984" y="306" type="curve" smooth="yes"/>
      <point x="984" y="694" type="line" smooth="yes"/>
      <point x="984" y="724"/>
      <point x="966" y="742"/>
      <point x="935" y="742" type="curve" smooth="yes"/>
      <point x="65" y="742" type="line" smooth="yes"/>
      <point x="34" y="742"/>
      <point x="16" y="724"/>
      <point x="16" y="694" type="curve" smooth="yes"/>
      <point x="16" y="306" type="line" smooth="yes"/>
      <point x="16" y="276"/>
      <point x="34" y="258"/>
      <point x="65" y="258" type="curve" smooth="yes"/>
      <point x="935" y="258" type="line" smooth="yes"/>
      <point x="966" y="258"/>
      <point x="984" y="276"/>
    </contour>
    <contour>
      <point x="965" y="306" type="line" smooth="yes"/>
      <point x="965" y="288"/>
      <point x="953" y="277"/>
      <point x="935" y="277" type="curve" smooth="yes"/>
      <point x="65" y="277" type="line" smooth="yes"/>
      <point x="47" y="277"/>
      <point x="35" y="288"/>
      <point x="35" y="306" type="curve" smooth="yes"/>
      <point x="35" y="694" type="line" smooth="yes"/>
      <point x="35" y="712"/>
      <point x="47" y="723"/>
      <point x="65" y="723" type="curve" smooth="yes"/>
      <point x="935" y="723" type="line" smooth="yes"/>
      <point x="953" y="723"/>
      <point x="965" y="712"/>
      <point x="965" y="694" type="curve" smooth="yes"/>
    </contour>
    <contour>
      <point x="945" y="306" type="curve" smooth="yes"/>
      <point x="945" y="694" type="line" smooth="yes"/>
      <point x="945" y="700"/>
      <point x="941" y="703"/>
      <point x="935" y="703" type="curve" smooth="yes"/>
      <point x="65" y="703" type="line" smooth="yes"/>
      <point x="59" y="703"/>
      <point x="55" y="700"/>
      <point x="55" y="694" type="curve" smooth="yes"/>
      <point x="55" y="306" type="line" smooth="yes"/>
      <point x="55" y="300"/>
      <point x="59" y="297"/>
      <point x="65" y="297" type="curve" smooth="yes"/>
      <point x="935" y="297" type="line" smooth="yes"/>
      <point x="941" y="297"/>
      <point x="945" y="300"/>
    </contour>
    <contour>
      <point x="813" y="372" type="line"/>
      <point x="693" y="372" type="line"/>
      <point x="693" y="617" type="line"/>
      <point x="808" y="617" type="line"/>
      <point x="808" y="583" type="line"/>
      <point x="727" y="583" type="line"/>
      <point x="727" y="519" type="line"/>
      <point x="780" y="519" type="line"/>
      <point x="780" y="485" type="line"/>
      <point x="727" y="485" type="line"/>
      <point x="727" y="406" type="line"/>
      <point x="813" y="406" type="line"/>
    </contour>
    <contour>
      <point x="660" y="372" type="line"/>
      <point x="621" y="372" type="line"/>
      <point x="584" y="479" type="line"/>
      <point x="557" y="479" type="line"/>
      <point x="557" y="372" type="line"/>
      <point x="522" y="372" type="line"/>
      <point x="522" y="617" type="line"/>
      <point x="591" y="617" type="line" smooth="yes"/>
      <point x="627" y="617"/>
      <point x="659" y="598"/>
      <point x="659" y="549" type="curve" smooth="yes"/>
      <point x="659" y="514"/>
      <point x="644" y="494"/>
      <point x="621" y="485" type="curve"/>
    </contour>
    <contour>
      <point x="491" y="372" type="line"/>
      <point x="371" y="372" type="line"/>
      <point x="371" y="617" type="line"/>
      <point x="486" y="617" type="line"/>
      <point x="486" y="583" type="line"/>
      <point x="405" y="583" type="line"/>
      <point x="405" y="519" type="line"/>
      <point x="458" y="519" type="line"/>
      <point x="458" y="485" type="line"/>
      <point x="405" y="485" type="line"/>
      <point x="405" y="406" type="line"/>
      <point x="491" y="406" type="line"/>
    </contour>
    <contour>
      <point x="331" y="372" type="line"/>
      <point x="296" y="372" type="line"/>
      <point x="296" y="485" type="line"/>
      <point x="228" y="485" type="line"/>
      <point x="228" y="372" type="line"/>
      <point x="193" y="372" type="line"/>
      <point x="193" y="617" type="line"/>
      <point x="228" y="617" type="line"/>
      <point x="228" y="519" type="line"/>
      <point x="296" y="519" type="line"/>
      <point x="296" y="617" type="line"/>
      <point x="331" y="617" type="line"/>
    </contour>
    <contour>
      <point x="624" y="548" type="curve" smooth="yes"/>
      <point x="624" y="574"/>
      <point x="609" y="584"/>
      <point x="588" y="584" type="curve" smooth="yes"/>
      <point x="557" y="584" type="line"/>
      <point x="557" y="512" type="line"/>
      <point x="588" y="512" type="line" smooth="yes"/>
      <point x="610" y="512"/>
      <point x="624" y="523"/>
    </contour>
  </outline>
</glyph>
<glyph name="nine" format="1">
  <advance width="1000"/>
  <unicode hex="0039"/>
  <outline>
    <contour>
      <point x="987" y="107" type="line" smooth="yes"/>
      <point x="987" y="78"/>
      <point x="969" y="60"/>
      <point x="939" y="60" type="curve" smooth="yes"/>
      <point x="61" y="60" type="line" smooth="yes"/>
      <point x="31" y="60"/>
      <point x="13" y="78"/>
      <point x="13" y="107" type="curve" smooth="yes"/>
      <point x="13" y="893" type="line" smooth="yes"/>
      <point x="13" y="922"/>
      <point x="31" y="940"/>
      <point x="61" y="940" type="curve" smooth="yes"/>
      <point x="939" y="940" type="line" smooth="yes"/>
      <point x="969" y="940"/>
      <point x="987" y="922"/>
      <point x="987" y="893" type="curve" smooth="yes"/>
    </contour>
    <contour>
      <point x="984" y="107" type="curve" smooth="yes"/>
      <point x="984" y="893" type="line" smooth="yes"/>
      <point x="984" y="920"/>
      <point x="967" y="937"/>
      <point x="939" y="937" type="curve" smooth="yes"/>
      <point x="61" y="937" type="line" smooth="yes"/>
      <point x="33" y="937"/>
      <point x="16" y="920"/>
      <point x="16" y="893" type="curve" smooth="yes"/>
      <point x="16" y="107" type="line" smooth="yes"/>
      <point x="16" y="80"/>
      <point x="33" y="63"/>
      <point x="61" y="63" type="curve" smooth="yes"/>
      <point x="939" y="63" type="line" smooth="yes"/>
      <point x="967" y="63"/>
      <point x="984" y="80"/>
    </contour>
    <contour>
      <point x="965" y="107" type="line" smooth="yes"/>
      <point x="965" y="91"/>
      <point x="955" y="82"/>
      <point x="939" y="82" type="curve" smooth="yes"/>
      <point x="61" y="82" type="line" smooth="yes"/>
      <point x="45" y="82"/>
      <point x="35" y="91"/>
      <point x="35" y="107" type="curve" smooth="yes"/>
      <point x="35" y="893" type="line" smooth="yes"/>
      <point x="35" y="909"/>
      <point x="45" y="918"/>
      <point x="61" y="918" type="curve" smooth="yes"/>
      <point x="939" y="918" type="line" smooth="yes"/>
      <point x="955" y="918"/>
      <point x="965" y="909"/>
      <point x="965" y="893" type="curve" smooth="yes"/>
    </contour>
    <contour>
      <point x="772" y="664" type="line"/>
      <point x="772" y="822" type="line"/>
      <point x="750" y="822" type="line"/>
      <point x="750" y="664" type="line"/>
    </contour>
    <contour>
      <point x="716" y="664" type="line"/>
      <point x="674" y="746" type="line"/>
      <point x="714" y="822" type="line"/>
      <point x="688" y="822" type="line"/>
      <point x="661" y="767" type="line"/>
      <point x="635" y="822" type="line"/>
      <point x="609" y="822" type="line"/>
      <point x="649" y="745" type="line"/>
      <point x="607" y="664" type="line"/>
      <point x="633" y="664" type="line"/>
      <point x="661" y="725" type="line"/>
      <point x="689" y="664" type="line"/>
    </contour>
    <contour>
      <point x="904" y="799" type="line"/>
      <point x="904" y="822" type="line"/>
      <point x="805" y="822" type="line"/>
      <point x="805" y="799" type="line"/>
      <point x="843" y="799" type="line"/>
      <point x="843" y="663" type="line"/>
      <point x="866" y="663" type="line"/>
      <point x="866" y="799" type="line"/>
    </contour>
    <contour>
      <point x="580" y="663" type="line"/>
      <point x="580" y="686" type="line"/>
      <point x="512" y="686" type="line"/>
      <point x="512" y="737" type="line"/>
      <point x="552" y="737" type="line"/>
      <point x="552" y="758" type="line"/>
      <point x="512" y="758" type="line"/>
      <point x="512" y="800" type="line"/>
      <point x="578" y="800" type="line"/>
      <point x="578" y="822" type="line"/>
      <point x="490" y="822" type="line"/>
      <point x="490" y="663" type="line"/>
    </contour>
    <contour>
      <point x="349" y="737" type="curve" smooth="yes"/>
      <point x="349" y="784"/>
      <point x="329" y="819"/>
      <point x="291" y="819" type="curve" smooth="yes"/>
      <point x="255" y="819"/>
      <point x="234" y="784"/>
      <point x="234" y="737" type="curve" smooth="yes"/>
      <point x="234" y="690"/>
      <point x="255" y="655"/>
      <point x="291" y="655" type="curve" smooth="yes"/>
      <point x="329" y="655"/>
      <point x="349" y="690"/>
    </contour>
    <contour>
      <point x="211" y="658" type="line"/>
      <point x="211" y="816" type="line"/>
      <point x="189" y="816" type="line"/>
      <point x="189" y="706" type="line"/>
      <point x="129" y="816" type="line"/>
      <point x="106" y="816" type="line"/>
      <point x="106" y="658" type="line"/>
      <point x="129" y="658" type="line"/>
      <point x="129" y="773" type="line"/>
      <point x="190" y="658" type="line"/>
    </contour>
    <contour>
      <point x="898" y="430" type="line" smooth="yes"/>
      <point x="900" y="438"/>
      <point x="897" y="441"/>
      <point x="889" y="439" type="curve" smooth="yes"/>
      <point x="722" y="404" type="line" smooth="yes"/>
      <point x="718" y="403"/>
      <point x="713" y="401"/>
      <point x="713" y="396" type="curve" smooth="yes"/>
      <point x="713" y="391"/>
      <point x="719" y="388"/>
      <point x="722" y="386" type="curve" smooth="yes"/>
      <point x="783" y="350" type="line"/>
      <point x="618" y="202" type="line"/>
      <point x="661" y="159" type="line"/>
      <point x="809" y="324" type="line"/>
      <point x="845" y="263" type="line" smooth="yes"/>
      <point x="847" y="260"/>
      <point x="850" y="254"/>
      <point x="855" y="254" type="curve" smooth="yes"/>
      <point x="860" y="254"/>
      <point x="862" y="259"/>
      <point x="863" y="263" type="curve" smooth="yes"/>
    </contour>
    <contour>
      <point x="326" y="737" type="curve" smooth="yes"/>
      <point x="326" y="705"/>
      <point x="315" y="678"/>
      <point x="291" y="678" type="curve" smooth="yes"/>
      <point x="268" y="678"/>
      <point x="257" y="705"/>
      <point x="257" y="737" type="curve" smooth="yes"/>
      <point x="257" y="769"/>
      <point x="268" y="795"/>
      <point x="291" y="795" type="curve" smooth="yes"/>
      <point x="315" y="795"/>
      <point x="326" y="769"/>
    </contour>
  </outline>
</glyph>
<glyph name="semicolon" format="1">
  <advance width="1000"/>
  <unicode hex="003B"/>
  <outline>
    <contour>
      <point x="986" y="64" type="line" smooth="yes"/>
      <point x="986" y="33"/>
      <point x="967" y="13"/>
      <point x="934" y="13" type="curve" smooth="yes"/>
      <point x="66" y="13" type="line" smooth="yes"/>
      <point x="33" y="13"/>
      <point x="14" y="33"/>
      <point x="14" y="64" type="curve" smooth="yes"/>
      <point x="14" y="936" type="line" smooth="yes"/>
      <point x="14" y="967"/>
      <point x="33" y="987"/>
      <point x="66" y="987" type="curve" smooth="yes"/>
      <point x="934" y="987" type="line" smooth="yes"/>
      <point x="967" y="987"/>
      <point x="986" y="967"/>
      <point x="986" y="936" type="curve" smooth="yes"/>
    </contour>
    <contour>
      <point x="983" y="64" type="curve" smooth="yes"/>
      <point x="983" y="936" type="line" smooth="yes"/>
      <point x="983" y="966"/>
      <point x="965" y="984"/>
      <point x="934" y="984" type="curve" smooth="yes"/>
      <point x="66" y="984" type="line" smooth="yes"/>
      <point x="35" y="984"/>
      <point x="17" y="966"/>
      <point x="17" y="936" type="curve" smooth="yes"/>
      <point x="17" y="64" type="line" smooth="yes"/>
      <point x="17" y="34"/>
      <point x="35" y="16"/>
      <point x="66" y="16" type="curve" smooth="yes"/>
      <point x="934" y="16" type="line" smooth="yes"/>
      <point x="965" y="16"/>
      <point x="983" y="34"/>
    </contour>
    <contour>
      <point x="964" y="64" type="line" smooth="yes"/>
      <point x="964" y="46"/>
      <point x="952" y="35"/>
      <point x="934" y="35" type="curve" smooth="yes"/>
      <point x="66" y="35" type="line" smooth="yes"/>
      <point x="48" y="35"/>
      <point x="36" y="46"/>
      <point x="36" y="64" type="curve" smooth="yes"/>
      <point x="36" y="936" type="line" smooth="yes"/>
      <point x="36" y="954"/>
      <point x="48" y="965"/>
      <point x="66" y="965" type="curve" smooth="yes"/>
      <point x="934" y="965" type="line" smooth="yes"/>
      <point x="952" y="965"/>
      <point x="964" y="954"/>
      <point x="964" y="936" type="curve" smooth="yes"/>
    </contour>
    <contour>
      <point x="944" y="64" type="curve" smooth="yes"/>
      <point x="944" y="936" type="line" smooth="yes"/>
      <point x="944" y="942"/>
      <point x="940" y="945"/>
      <point x="934" y="945" type="curve" smooth="yes"/>
      <point x="66" y="945" type="line" smooth="yes"/>
      <point x="60" y="945"/>
      <point x="56" y="942"/>
      <point x="56" y="936" type="curve" smooth="yes"/>
      <point x="56" y="64" type="line" smooth="yes"/>
      <point x="56" y="58"/>
      <point x="60" y="55"/>
      <point x="66" y="55" type="curve" smooth="yes"/>
      <point x="934" y="55" type="line" smooth="yes"/>
      <point x="940" y="55"/>
      <point x="944" y="58"/>
    </contour>
    <contour>
      <point x="889" y="825" type="line"/>
      <point x="849" y="825" type="line"/>
      <point x="849" y="680" type="line"/>
      <point x="825" y="680" type="line"/>
      <point x="825" y="825" type="line"/>
      <point x="785" y="825" type="line"/>
      <point x="785" y="848" type="line"/>
      <point x="889" y="848" type="line"/>
    </contour>
    <contour>
      <point x="766" y="764" type="curve" smooth="yes"/>
      <point x="766" y="714"/>
      <point x="744" y="677"/>
      <point x="705" y="677" type="curve" smooth="yes"/>
      <point x="665" y="677"/>
      <point x="644" y="714"/>
      <point x="644" y="764" type="curve" smooth="yes"/>
      <point x="644" y="814"/>
      <point x="665" y="851"/>
      <point x="705" y="851" type="curve" smooth="yes"/>
      <point x="745" y="851"/>
      <point x="766" y="814"/>
    </contour>
    <contour>
      <point x="613" y="680" type="line"/>
      <point x="592" y="680" type="line"/>
      <point x="527" y="801" type="line"/>
      <point x="527" y="680" type="line"/>
      <point x="503" y="680" type="line"/>
      <point x="503" y="848" type="line"/>
      <point x="527" y="848" type="line"/>
      <point x="589" y="732" type="line"/>
      <point x="589" y="848" type="line"/>
      <point x="613" y="848" type="line"/>
    </contour>
    <contour>
      <point x="382" y="764" type="curve" smooth="yes"/>
      <point x="382" y="714"/>
      <point x="360" y="677"/>
      <point x="321" y="677" type="curve" smooth="yes"/>
      <point x="281" y="677"/>
      <point x="260" y="714"/>
      <point x="260" y="764" type="curve" smooth="yes"/>
      <point x="260" y="814"/>
      <point x="281" y="851"/>
      <point x="321" y="851" type="curve" smooth="yes"/>
      <point x="361" y="851"/>
      <point x="382" y="814"/>
    </contour>
    <contour>
      <point x="234" y="764" type="curve" smooth="yes"/>
      <point x="234" y="710"/>
      <point x="206" y="680"/>
      <point x="167" y="680" type="curve" smooth="yes"/>
      <point x="123" y="680" type="line"/>
      <point x="123" y="848" type="line"/>
      <point x="167" y="848" type="line" smooth="yes"/>
      <point x="208" y="848"/>
      <point x="234" y="818"/>
    </contour>
    <contour>
      <point x="766" y="416" type="line"/>
      <point x="744" y="416" type="line"/>
      <point x="680" y="536" type="line"/>
      <point x="680" y="416" type="line"/>
      <point x="656" y="416" type="line"/>
      <point x="656" y="584" type="line"/>
      <point x="680" y="584" type="line"/>
      <point x="742" y="468" type="line"/>
      <point x="742" y="584" type="line"/>
      <point x="766" y="584" type="line"/>
    </contour>
    <contour>
      <point x="623" y="536" type="curve" smooth="yes"/>
      <point x="623" y="510"/>
      <point x="611" y="495"/>
      <point x="591" y="489" type="curve"/>
      <point x="622" y="416" type="line"/>
      <point x="594" y="416" type="line"/>
      <point x="565" y="486" type="line"/>
      <point x="536" y="486" type="line"/>
      <point x="536" y="416" type="line"/>
      <point x="512" y="416" type="line"/>
      <point x="512" y="584" type="line"/>
      <point x="572" y="584" type="line" smooth="yes"/>
      <point x="599" y="584"/>
      <point x="623" y="570"/>
    </contour>
    <contour>
      <point x="331" y="561" type="line"/>
      <point x="291" y="561" type="line"/>
      <point x="291" y="416" type="line"/>
      <point x="267" y="416" type="line"/>
      <point x="267" y="561" type="line"/>
      <point x="227" y="561" type="line"/>
      <point x="227" y="584" type="line"/>
      <point x="331" y="584" type="line"/>
    </contour>
    <contour>
      <point x="474" y="476" type="line" smooth="yes"/>
      <point x="474" y="436"/>
      <point x="453" y="413"/>
      <point x="418" y="413" type="curve" smooth="yes"/>
      <point x="385" y="413"/>
      <point x="363" y="437"/>
      <point x="363" y="475" type="curve" smooth="yes"/>
      <point x="363" y="584" type="line"/>
      <point x="387" y="584" type="line"/>
      <point x="387" y="476" type="line" smooth="yes"/>
      <point x="387" y="453"/>
      <point x="398" y="437"/>
      <point x="418" y="437" type="curve" smooth="yes"/>
      <point x="441" y="437"/>
      <point x="450" y="453"/>
      <point x="450" y="475" type="curve" smooth="yes"/>
      <point x="450" y="584" type="line"/>
      <point x="474" y="584" type="line"/>
    </contour>
    <contour>
      <point x="709" y="236" type="curve" smooth="yes"/>
      <point x="709" y="182"/>
      <point x="681" y="152"/>
      <point x="642" y="152" type="curve" smooth="yes"/>
      <point x="598" y="152" type="line"/>
      <point x="598" y="320" type="line"/>
      <point x="642" y="320" type="line" smooth="yes"/>
      <point x="683" y="320"/>
      <point x="709" y="290"/>
    </contour>
    <contour>
      <point x="563" y="152" type="line"/>
      <point x="466" y="152" type="line"/>
      <point x="466" y="320" type="line"/>
      <point x="560" y="320" type="line"/>
      <point x="560" y="297" type="line"/>
      <point x="491" y="297" type="line"/>
      <point x="491" y="254" type="line"/>
      <point x="533" y="254" type="line"/>
      <point x="533" y="230" type="line"/>
      <point x="491" y="230" type="line"/>
      <point x="491" y="176" type="line"/>
      <point x="563" y="176" type="line"/>
    </contour>
    <contour>
      <point x="428" y="272" type="curve" smooth="yes"/>
      <point x="428" y="246"/>
      <point x="416" y="231"/>
      <point x="396" y="225" type="curve"/>
      <point x="427" y="152" type="line"/>
      <point x="399" y="152" type="line"/>
      <point x="370" y="222" type="line"/>
      <point x="341" y="222" type="line"/>
      <point x="341" y="152" type="line"/>
      <point x="317" y="152" type="line"/>
      <point x="317" y="320" type="line"/>
      <point x="377" y="320" type="line" smooth="yes"/>
      <point x="404" y="320"/>
      <point x="428" y="306"/>
    </contour>
    <contour>
      <point x="741" y="764" type="curve" smooth="yes"/>
      <point x="741" y="798"/>
      <point x="730" y="826"/>
      <point x="705" y="826" type="curve" smooth="yes"/>
      <point x="680" y="826"/>
      <point x="669" y="799"/>
      <point x="669" y="764" type="curve" smooth="yes"/>
      <point x="669" y="730"/>
      <point x="680" y="702"/>
      <point x="705" y="702" type="curve" smooth="yes"/>
      <point x="730" y="702"/>
      <point x="741" y="729"/>
    </contour>
    <contour>
      <point x="357" y="764" type="curve" smooth="yes"/>
      <point x="357" y="798"/>
      <point x="346" y="826"/>
      <point x="321" y="826" type="curve" smooth="yes"/>
      <point x="296" y="826"/>
      <point x="285" y="799"/>
      <point x="285" y="764" type="curve" smooth="yes"/>
      <point x="285" y="730"/>
      <point x="296" y="702"/>
      <point x="321" y="702" type="curve" smooth="yes"/>
      <point x="346" y="702"/>
      <point x="357" y="729"/>
    </contour>
    <contour>
      <point x="209" y="764" type="curve" smooth="yes"/>
      <point x="209" y="796"/>
      <point x="198" y="824"/>
      <point x="167" y="824" type="curve" smooth="yes"/>
      <point x="148" y="824" type="line"/>
      <point x="148" y="704" type="line"/>
      <point x="167" y="704" type="line" smooth="yes"/>
      <point x="198" y="704"/>
      <point x="209" y="732"/>
    </contour>
    <contour>
      <point x="598" y="535" type="curve" smooth="yes"/>
      <point x="598" y="552"/>
      <point x="587" y="561"/>
      <point x="571" y="561" type="curve" smooth="yes"/>
      <point x="536" y="561" type="line"/>
      <point x="536" y="509" type="line"/>
      <point x="571" y="509" type="line" smooth="yes"/>
      <point x="588" y="509"/>
      <point x="598" y="517"/>
    </contour>
    <contour>
      <point x="403" y="271" type="curve" smooth="yes"/>
      <point x="403" y="288"/>
      <point x="392" y="297"/>
      <point x="376" y="297" type="curve" smooth="yes"/>
      <point x="341" y="297" type="line"/>
      <point x="341" y="245" type="line"/>
      <point x="376" y="245" type="line" smooth="yes"/>
      <point x="393" y="245"/>
      <point x="403" y="253"/>
    </contour>
    <contour>
      <point x="684" y="236" type="curve" smooth="yes"/>
      <point x="684" y="268"/>
      <point x="673" y="296"/>
      <point x="642" y="296" type="curve" smooth="yes"/>
      <point x="623" y="296" type="line"/>
      <point x="623" y="176" type="line"/>
      <point x="642" y="176" type="line" smooth="yes"/>
      <point x="673" y="176"/>
      <point x="684" y="204"/>
    </contour>
  </outline>
</glyph>
<glyph name="equal" format="1">
  <advance width="1000"/>
  <unicode hex="003D"/>
  <outline>
    <contour>
      <point x="987" y="192" type="line" smooth="yes"/>
      <point x="987" y="99"/>
      <point x="924" y="36"/>
      <point x="831" y="36" type="curve" smooth="yes"/>
      <point x="169" y="36" type="line" smooth="yes"/>
      <point x="76" y="36"/>
      <point x="13" y="99"/>
      <point x="13" y="192" type="curve" smooth="yes"/>
      <point x="13" y="808" type="line" smooth="yes"/>
      <point x="13" y="901"/>
      <point x="76" y="964"/>
      <point x="169" y="964" type="curve" smooth="yes"/>
      <point x="831" y="964" type="line" smooth="yes"/>
      <point x="924" y="964"/>
      <point x="987" y="901"/>
      <point x="987" y="808" type="curve" smooth="yes"/>
    </contour>
    <contour>
      <point x="975" y="192" type="curve" smooth="yes"/>
      <point x="975" y="808" type="line" smooth="yes"/>
      <point x="975" y="894"/>
      <point x="917" y="952"/>
      <point x="831" y="952" type="curve" smooth="yes"/>
      <point x="169" y="952" type="line" smooth="yes"/>
      <point x="83" y="952"/>
      <point x="25" y="894"/>
      <point x="25" y="808" type="curve" smooth="yes"/>
      <point x="25" y="192" type="line" smooth="yes"/>
      <point x="25" y="106"/>
      <point x="83" y="48"/>
      <point x="169" y="48" type="curve" smooth="yes"/>
      <point x="831" y="48" type="line" smooth="yes"/>
      <point x="917" y="48"/>
      <point x="975" y="106"/>
    </contour>
    <contour>
      <point x="953" y="297" type="line"/>
      <point x="920" y="297" type="line"/>
      <point x="920" y="224" type="line" smooth="yes"/>
      <point x="920" y="177"/>
      <point x="889" y="146"/>
      <point x="842" y="146" type="curve" smooth="yes"/>
      <point x="158" y="146" type="line" smooth="yes"/>
      <point x="111" y="146"/>
      <point x="80" y="177"/>
      <point x="80" y="224" type="curve" smooth="yes"/>
      <point x="80" y="297" type="line"/>
      <point x="47" y="297" type="line"/>
      <point x="47" y="777" type="line" smooth="yes"/>
      <point x="47" y="843"/>
      <point x="91" y="887"/>
      <point x="157" y="887" type="curve" smooth="yes"/>
      <point x="843" y="887" type="line" smooth="yes"/>
      <point x="909" y="887"/>
      <point x="953" y="843"/>
      <point x="953" y="777" type="curve" smooth="yes"/>
    </contour>
    <contour>
      <point x="941" y="309" type="line"/>
      <point x="941" y="777" type="line" smooth="yes"/>
      <point x="941" y="836"/>
      <point x="902" y="875"/>
      <point x="843" y="875" type="curve" smooth="yes"/>
      <point x="157" y="875" type="line" smooth="yes"/>
      <point x="98" y="875"/>
      <point x="59" y="836"/>
      <point x="59" y="777" type="curve" smooth="yes"/>
      <point x="59" y="309" type="line"/>
      <point x="80" y="309" type="line"/>
      <point x="80" y="777" type="line" smooth="yes"/>
      <point x="80" y="824"/>
      <point x="111" y="855"/>
      <point x="158" y="855" type="curve" smooth="yes"/>
      <point x="842" y="855" type="line" smooth="yes"/>
      <point x="889" y="855"/>
      <point x="920" y="824"/>
      <point x="920" y="777" type="curve" smooth="yes"/>
      <point x="920" y="309" type="line"/>
    </contour>
    <contour>
      <point x="908" y="224" type="curve" smooth="yes"/>
      <point x="908" y="777" type="line" smooth="yes"/>
      <point x="908" y="817"/>
      <point x="882" y="843"/>
      <point x="842" y="843" type="curve" smooth="yes"/>
      <point x="158" y="843" type="line" smooth="yes"/>
      <point x="118" y="843"/>
      <point x="92" y="817"/>
      <point x="92" y="777" type="curve" smooth="yes"/>
      <point x="92" y="224" type="line" smooth="yes"/>
      <point x="92" y="184"/>
      <point x="118" y="158"/>
      <point x="158" y="158" type="curve" smooth="yes"/>
      <point x="842" y="158" type="line" smooth="yes"/>
      <point x="882" y="158"/>
      <point x="908" y="184"/>
    </contour>
    <contour>
      <point x="892" y="224" type="line" smooth="yes"/>
      <point x="892" y="194"/>
      <point x="872" y="174"/>
      <point x="842" y="174" type="curve" smooth="yes"/>
      <point x="158" y="174" type="line" smooth="yes"/>
      <point x="128" y="174"/>
      <point x="108" y="194"/>
      <point x="108" y="224" type="curve" smooth="yes"/>
      <point x="108" y="777" type="line" smooth="yes"/>
      <point x="108" y="807"/>
      <point x="128" y="827"/>
      <point x="158" y="827" type="curve" smooth="yes"/>
      <point x="842" y="827" type="line" smooth="yes"/>
      <point x="872" y="827"/>
      <point x="892" y="807"/>
      <point x="892" y="777" type="curve" smooth="yes"/>
    </contour>
    <contour>
      <point x="810" y="243" type="line"/>
      <point x="758" y="386" type="line"/>
      <point x="805" y="464" type="line"/>
      <point x="770" y="464" type="line"/>
      <point x="717" y="373" type="line"/>
      <point x="717" y="464" type="line"/>
      <point x="687" y="464" type="line"/>
      <point x="687" y="243" type="line"/>
      <point x="717" y="243" type="line"/>
      <point x="717" y="324" type="line"/>
      <point x="735" y="354" type="line"/>
      <point x="777" y="243" type="line"/>
    </contour>
    <contour>
      <point x="633" y="243" type="line"/>
      <point x="633" y="274" type="line"/>
      <point x="562" y="274" type="line"/>
      <point x="562" y="464" type="line"/>
      <point x="532" y="464" type="line"/>
      <point x="532" y="243" type="line"/>
    </contour>
    <contour>
      <point x="478" y="243" type="line"/>
      <point x="425" y="464" type="line"/>
      <point x="392" y="464" type="line"/>
      <point x="338" y="243" type="line"/>
      <point x="371" y="243" type="line"/>
      <point x="383" y="303" type="line"/>
      <point x="432" y="303" type="line"/>
      <point x="445" y="243" type="line"/>
    </contour>
    <contour>
      <point x="308" y="433" type="line"/>
      <point x="308" y="464" type="line"/>
      <point x="197" y="464" type="line"/>
      <point x="197" y="433" type="line"/>
      <point x="237" y="433" type="line"/>
      <point x="237" y="243" type="line"/>
      <point x="268" y="243" type="line"/>
      <point x="268" y="433" type="line"/>
    </contour>
    <contour>
      <point x="426" y="332" type="line"/>
      <point x="390" y="332" type="line"/>
      <point x="408" y="418" type="line"/>
    </contour>
  </outline>
</glyph>
<glyph name="Z" format="1">
  <advance width="1000"/>
  <unicode hex="005A"/>
  <outline>
    <contour>
      <point x="987" y="103" type="line" smooth="yes"/>
      <point x="987" y="36"/>
      <point x="964" y="13"/>
      <point x="897" y="13" type="curve" smooth="yes"/>
      <point x="103" y="13" type="line" smooth="yes"/>
      <point x="36" y="13"/>
      <point x="13" y="36"/>
      <point x="13" y="103" type="curve" smooth="yes"/>
      <point x="13" y="897" type="line" smooth="yes"/>
      <point x="13" y="964"/>
      <point x="36" y="987"/>
      <point x="103" y="987" type="curve" smooth="yes"/>
      <point x="897" y="987" type="line" smooth="yes"/>
      <point x="964" y="987"/>
      <point x="987" y="964"/>
      <point x="987" y="897" type="curve" smooth="yes"/>
    </contour>
    <contour>
      <point x="984" y="103" type="curve" smooth="yes"/>
      <point x="984" y="897" type="line" smooth="yes"/>
      <point x="984" y="962"/>
      <point x="962" y="984"/>
      <point x="897" y="984" type="curve" smooth="yes"/>
      <point x="103" y="984" type="line" smooth="yes"/>
      <point x="38" y="984"/>
      <point x="16" y="962"/>
      <point x="16" y="897" type="curve" smooth="yes"/>
      <point x="16" y="103" type="line" smooth="yes"/>
      <point x="16" y="38"/>
      <point x="38" y="16"/>
      <point x="103" y="16" type="curve" smooth="yes"/>
      <point x="897" y="16" type="line" smooth="yes"/>
      <point x="962" y="16"/>
      <point x="984" y="38"/>
    </contour>
    <contour>
      <point x="965" y="103" type="line" smooth="yes"/>
      <point x="965" y="52"/>
      <point x="948" y="35"/>
      <point x="897" y="35" type="curve" smooth="yes"/>
      <point x="103" y="35" type="line" smooth="yes"/>
      <point x="52" y="35"/>
      <point x="35" y="52"/>
      <point x="35" y="103" type="curve" smooth="yes"/>
      <point x="35" y="897" type="line" smooth="yes"/>
      <point x="35" y="948"/>
      <point x="52" y="965"/>
      <point x="103" y="965" type="curve" smooth="yes"/>
      <point x="897" y="965" type="line" smooth="yes"/>
      <point x="948" y="965"/>
      <point x="965" y="948"/>
      <point x="965" y="897" type="curve" smooth="yes"/>
    </contour>
    <contour>
      <point x="945" y="103" type="curve" smooth="yes"/>
      <point x="945" y="897" type="line" smooth="yes"/>
      <point x="945" y="933"/>
      <point x="933" y="945"/>
      <point x="897" y="945" type="curve" smooth="yes"/>
      <point x="103" y="945" type="line" smooth="yes"/>
      <point x="67" y="945"/>
      <point x="55" y="933"/>
      <point x="55" y="897" type="curve" smooth="yes"/>
      <point x="55" y="103" type="line" smooth="yes"/>
      <point x="55" y="67"/>
      <point x="67" y="55"/>
      <point x="103" y="55" type="curve" smooth="yes"/>
      <point x="897" y="55" type="line" smooth="yes"/>
      <point x="933" y="55"/>
      <point x="945" y="67"/>
    </contour>
    <contour>
      <point x="445" y="646" type="curve"/>
      <point x="444" y="631"/>
      <point x="431" y="623"/>
      <point x="415" y="624" type="curve" smooth="yes"/>
      <point x="345" y="628" type="line" smooth="yes"/>
      <point x="326" y="629"/>
      <point x="315" y="647"/>
      <point x="317" y="662" type="curve" smooth="yes"/>
      <point x="320" y="679"/>
      <point x="332" y="689"/>
      <point x="348" y="687" type="curve" smooth="yes"/>
      <point x="419" y="676" type="line" smooth="yes"/>
      <point x="435" y="674"/>
      <point x="448" y="661"/>
    </contour>
    <contour>
      <point x="466" y="584" type="curve"/>
      <point x="467" y="569"/>
      <point x="453" y="557"/>
      <point x="437" y="557" type="curve" smooth="yes"/>
      <point x="327" y="555" type="line" smooth="yes"/>
      <point x="312" y="555"/>
      <point x="296" y="572"/>
      <point x="297" y="588" type="curve"/>
      <point x="296" y="604"/>
      <point x="310" y="620"/>
      <point x="325" y="619" type="curve" smooth="yes"/>
      <point x="438" y="613" type="line" smooth="yes"/>
      <point x="453" y="612"/>
      <point x="467" y="601"/>
    </contour>
    <contour>
      <point x="472" y="519" type="curve"/>
      <point x="471" y="499"/>
      <point x="455" y="488"/>
      <point x="438" y="487" type="curve" smooth="yes"/>
      <point x="327" y="478" type="line" smooth="yes"/>
      <point x="312" y="477"/>
      <point x="295" y="490"/>
      <point x="292" y="510" type="curve"/>
      <point x="293" y="529"/>
      <point x="308" y="545"/>
      <point x="324" y="545" type="curve" smooth="yes"/>
      <point x="435" y="547" type="line" smooth="yes"/>
      <point x="452" y="547"/>
      <point x="469" y="539"/>
    </contour>
    <contour>
      <point x="748" y="460" type="curve"/>
      <point x="748" y="669" type="line"/>
      <point x="716" y="661"/>
      <point x="655" y="660"/>
      <point x="578" y="692" type="curve" smooth="yes"/>
      <point x="536" y="710"/>
      <point x="454" y="697"/>
      <point x="409" y="692" type="curve"/>
      <point x="404" y="690"/>
      <point x="402" y="691"/>
      <point x="400" y="687" type="curve"/>
      <point x="452" y="682"/>
      <point x="453" y="662"/>
      <point x="453" y="646" type="curve" smooth="yes"/>
      <point x="452" y="628"/>
      <point x="443" y="626"/>
      <point x="436" y="621" type="curve"/>
      <point x="460" y="618"/>
      <point x="473" y="604"/>
      <point x="473" y="585" type="curve" smooth="yes"/>
      <point x="473" y="566"/>
      <point x="462" y="556"/>
      <point x="450" y="552" type="curve"/>
      <point x="462" y="549"/>
      <point x="475" y="541"/>
      <point x="478" y="519" type="curve"/>
      <point x="478" y="496"/>
      <point x="466" y="489"/>
      <point x="452" y="484" type="curve"/>
      <point x="465" y="482"/>
      <point x="480" y="472"/>
      <point x="483" y="449" type="curve" smooth="yes"/>
      <point x="486" y="426"/>
      <point x="469" y="410"/>
      <point x="448" y="408" type="curve" smooth="yes"/>
      <point x="396" y="402" type="line"/>
      <point x="395" y="393"/>
      <point x="419" y="398"/>
      <point x="429" y="366" type="curve" smooth="yes"/>
      <point x="435" y="347"/>
      <point x="414" y="311"/>
      <point x="421" y="276" type="curve" smooth="yes"/>
      <point x="426" y="247"/>
      <point x="445" y="221"/>
      <point x="460" y="222" type="curve" smooth="yes"/>
      <point x="485" y="225"/>
      <point x="481" y="267"/>
      <point x="482" y="281" type="curve" smooth="yes"/>
      <point x="484" y="297"/>
      <point x="511" y="353"/>
      <point x="514" y="365" type="curve"/>
      <point x="564" y="407"/>
      <point x="592" y="445"/>
      <point x="613" y="460" type="curve" smooth="yes"/>
      <point x="654" y="488"/>
      <point x="709" y="463"/>
    </contour>
    <contour>
      <point x="476" y="449" type="curve" smooth="yes"/>
      <point x="478" y="429"/>
      <point x="463" y="417"/>
      <point x="445" y="415" type="curve" smooth="yes"/>
      <point x="333" y="401" type="line" smooth="yes"/>
      <point x="316" y="399"/>
      <point x="299" y="413"/>
      <point x="297" y="433" type="curve" smooth="yes"/>
      <point x="295" y="453"/>
      <point x="309" y="468"/>
      <point x="327" y="469" type="curve" smooth="yes"/>
      <point x="440" y="478" type="line" smooth="yes"/>
      <point x="457" y="479"/>
      <point x="473" y="469"/>
    </contour>
  </outline>
</glyph>
<glyph name="backslash" format="1">
  <advance width="1000"/>
  <unicode hex="005C"/>
  <outline>
    <contour>
      <point x="988" y="500" type="curve" smooth="yes"/>
      <point x="988" y="489"/>
      <point x="983" y="479"/>
      <point x="972" y="468" type="curve" smooth="yes"/>
      <point x="532" y="29" type="line" smooth="yes"/>
      <point x="521" y="18"/>
      <point x="511" y="13"/>
      <point x="500" y="13" type="curve" smooth="yes"/>
      <point x="489" y="13"/>
      <point x="478" y="18"/>
      <point x="467" y="29" type="curve" smooth="yes"/>
      <point x="28" y="468" type="line" smooth="yes"/>
      <point x="17" y="479"/>
      <point x="12" y="489"/>
      <point x="12" y="500" type="curve" smooth="yes"/>
      <point x="12" y="511"/>
      <point x="17" y="522"/>
      <point x="28" y="533" type="curve" smooth="yes"/>
      <point x="467" y="972" type="line" smooth="yes"/>
      <point x="478" y="983"/>
      <point x="489" y="988"/>
      <point x="500" y="988" type="curve" smooth="yes"/>
      <point x="511" y="988"/>
      <point x="522" y="983"/>
      <point x="533" y="972" type="curve" smooth="yes"/>
      <point x="972" y="533" type="line" smooth="yes"/>
      <point x="983" y="522"/>
      <point x="988" y="511"/>
    </contour>
    <contour>
      <point x="985" y="500" type="curve" smooth="yes"/>
      <point x="985" y="510"/>
      <point x="980" y="521"/>
      <point x="970" y="531" type="curve" smooth="yes"/>
      <point x="531" y="970" type="line" smooth="yes"/>
      <point x="521" y="980"/>
      <point x="510" y="985"/>
      <point x="500" y="985" type="curve" smooth="yes"/>
      <point x="490" y="985"/>
      <point x="479" y="980"/>
      <point x="469" y="970" type="curve" smooth="yes"/>
      <point x="30" y="531" type="line" smooth="yes"/>
      <point x="20" y="521"/>
      <point x="15" y="510"/>
      <point x="15" y="500" type="curve" smooth="yes"/>
      <point x="15" y="490"/>
      <point x="20" y="480"/>
      <point x="30" y="470" type="curve" smooth="yes"/>
      <point x="469" y="31" type="line" smooth="yes"/>
      <point x="479" y="21"/>
      <point x="490" y="16"/>
      <point x="500" y="16" type="curve" smooth="yes"/>
      <point x="510" y="16"/>
      <point x="520" y="21"/>
      <point x="530" y="31" type="curve" smooth="yes"/>
      <point x="970" y="470" type="line" smooth="yes"/>
      <point x="980" y="480"/>
      <point x="985" y="490"/>
    </contour>
    <contour>
      <point x="973" y="500" type="curve" smooth="yes"/>
      <point x="973" y="492"/>
      <point x="970" y="485"/>
      <point x="962" y="477" type="curve" smooth="yes"/>
      <point x="523" y="38" type="line" smooth="yes"/>
      <point x="515" y="30"/>
      <point x="508" y="27"/>
      <point x="500" y="27" type="curve" smooth="yes"/>
      <point x="492" y="27"/>
      <point x="485" y="30"/>
      <point x="477" y="38" type="curve" smooth="yes"/>
      <point x="38" y="477" type="line" smooth="yes"/>
      <point x="30" y="485"/>
      <point x="27" y="492"/>
      <point x="27" y="500" type="curve" smooth="yes"/>
      <point x="27" y="508"/>
      <point x="30" y="515"/>
      <point x="38" y="523" type="curve" smooth="yes"/>
      <point x="477" y="962" type="line" smooth="yes"/>
      <point x="485" y="970"/>
      <point x="492" y="973"/>
      <point x="500" y="973" type="curve" smooth="yes"/>
      <point x="508" y="973"/>
      <point x="515" y="970"/>
      <point x="523" y="962" type="curve" smooth="yes"/>
      <point x="962" y="523" type="line" smooth="yes"/>
      <point x="970" y="515"/>
      <point x="973" y="508"/>
    </contour>
    <contour>
      <point x="956" y="500" type="curve" smooth="yes"/>
      <point x="956" y="504"/>
      <point x="954" y="507"/>
      <point x="950" y="511" type="curve" smooth="yes"/>
      <point x="511" y="950" type="line" smooth="yes"/>
      <point x="507" y="954"/>
      <point x="504" y="956"/>
      <point x="500" y="956" type="curve" smooth="yes"/>
      <point x="496" y="956"/>
      <point x="493" y="954"/>
      <point x="489" y="950" type="curve" smooth="yes"/>
      <point x="50" y="511" type="line" smooth="yes"/>
      <point x="46" y="507"/>
      <point x="44" y="504"/>
      <point x="44" y="500" type="curve" smooth="yes"/>
      <point x="44" y="496"/>
      <point x="46" y="493"/>
      <point x="50" y="489" type="curve" smooth="yes"/>
      <point x="489" y="50" type="line" smooth="yes"/>
      <point x="493" y="46"/>
      <point x="496" y="44"/>
      <point x="500" y="44" type="curve" smooth="yes"/>
      <point x="504" y="44"/>
      <point x="507" y="46"/>
      <point x="511" y="50" type="curve" smooth="yes"/>
      <point x="950" y="489" type="line" smooth="yes"/>
      <point x="954" y="493"/>
      <point x="956" y="496"/>
    </contour>
    <contour>
      <point x="666" y="571" type="curve" smooth="yes"/>
      <point x="666" y="551"/>
      <point x="654" y="537"/>
      <point x="631" y="537" type="curve" smooth="yes"/>
      <point x="615" y="537"/>
      <point x="605" y="545"/>
      <point x="598" y="557" type="curve"/>
      <point x="612" y="568" type="line"/>
      <point x="619" y="558"/>
      <point x="625" y="554"/>
      <point x="632" y="554" type="curve" smooth="yes"/>
      <point x="642" y="554"/>
      <point x="647" y="560"/>
      <point x="647" y="570" type="curve" smooth="yes"/>
      <point x="647" y="580"/>
      <point x="643" y="586"/>
      <point x="626" y="597" type="curve" smooth="yes"/>
      <point x="612" y="606"/>
      <point x="601" y="615"/>
      <point x="601" y="635" type="curve" smooth="yes"/>
      <point x="601" y="654"/>
      <point x="613" y="667"/>
      <point x="633" y="667" type="curve" smooth="yes"/>
      <point x="647" y="667"/>
      <point x="656" y="661"/>
      <point x="663" y="650" type="curve"/>
      <point x="651" y="638" type="line"/>
      <point x="644" y="646"/>
      <point x="640" y="649"/>
      <point x="632" y="649" type="curve" smooth="yes"/>
      <point x="624" y="649"/>
      <point x="619" y="644"/>
      <point x="619" y="636" type="curve" smooth="yes"/>
      <point x="619" y="626"/>
      <point x="624" y="621"/>
      <point x="638" y="612" type="curve" smooth="yes"/>
      <point x="653" y="602"/>
      <point x="666" y="592"/>
    </contour>
    <contour>
      <point x="587" y="665" type="line"/>
      <point x="556" y="596" type="line"/>
      <point x="556" y="539" type="line"/>
      <point x="538" y="539" type="line"/>
      <point x="538" y="595" type="line"/>
      <point x="506" y="665" type="line"/>
      <point x="526" y="665" type="line"/>
      <point x="547" y="613" type="line"/>
      <point x="568" y="665" type="line"/>
    </contour>
    <contour>
      <point x="492" y="539" type="line"/>
      <point x="431" y="539" type="line"/>
      <point x="431" y="665" type="line"/>
      <point x="490" y="665" type="line"/>
      <point x="490" y="648" type="line"/>
      <point x="448" y="648" type="line"/>
      <point x="448" y="614" type="line"/>
      <point x="475" y="614" type="line"/>
      <point x="475" y="597" type="line"/>
      <point x="448" y="597" type="line"/>
      <point x="448" y="556" type="line"/>
      <point x="492" y="556" type="line"/>
    </contour>
    <contour>
      <point x="406" y="539" type="line"/>
      <point x="387" y="539" type="line"/>
      <point x="364" y="602" type="line"/>
      <point x="354" y="585" type="line"/>
      <point x="354" y="539" type="line"/>
      <point x="336" y="539" type="line"/>
      <point x="336" y="665" type="line"/>
      <point x="354" y="665" type="line"/>
      <point x="354" y="613" type="line"/>
      <point x="384" y="665" type="line"/>
      <point x="404" y="665" type="line"/>
      <point x="377" y="620" type="line"/>
    </contour>
    <contour>
      <point x="746" y="444" type="line"/>
      <point x="723" y="444" type="line"/>
      <point x="723" y="335" type="line"/>
      <point x="705" y="335" type="line"/>
      <point x="705" y="444" type="line"/>
      <point x="682" y="444" type="line"/>
      <point x="682" y="461" type="line"/>
      <point x="746" y="461" type="line"/>
    </contour>
    <contour>
      <point x="666" y="335" type="line"/>
      <point x="605" y="335" type="line"/>
      <point x="605" y="461" type="line"/>
      <point x="664" y="461" type="line"/>
      <point x="664" y="444" type="line"/>
      <point x="622" y="444" type="line"/>
      <point x="622" y="410" type="line"/>
      <point x="649" y="410" type="line"/>
      <point x="649" y="393" type="line"/>
      <point x="622" y="393" type="line"/>
      <point x="622" y="352" type="line"/>
      <point x="666" y="352" type="line"/>
    </contour>
    <contour>
      <point x="588" y="335" type="line"/>
      <point x="530" y="335" type="line"/>
      <point x="530" y="461" type="line"/>
      <point x="547" y="461" type="line"/>
      <point x="547" y="353" type="line"/>
      <point x="588" y="353" type="line"/>
    </contour>
    <contour>
      <point x="514" y="335" type="line"/>
      <point x="456" y="335" type="line"/>
      <point x="456" y="461" type="line"/>
      <point x="473" y="461" type="line"/>
      <point x="473" y="353" type="line"/>
      <point x="514" y="353" type="line"/>
    </contour>
    <contour>
      <point x="439" y="335" type="line"/>
      <point x="420" y="335" type="line"/>
      <point x="413" y="369" type="line"/>
      <point x="385" y="369" type="line"/>
      <point x="378" y="335" type="line"/>
      <point x="359" y="335" type="line"/>
      <point x="390" y="461" type="line"/>
      <point x="409" y="461" type="line"/>
    </contour>
    <contour>
      <point x="357" y="461" type="line"/>
      <point x="334" y="335" type="line"/>
      <point x="320" y="335" type="line"/>
      <point x="306" y="414" type="line"/>
      <point x="291" y="335" type="line"/>
      <point x="278" y="335" type="line"/>
      <point x="255" y="461" type="line"/>
      <point x="273" y="461" type="line"/>
      <point x="287" y="377" type="line"/>
      <point x="300" y="461" type="line"/>
      <point x="313" y="461" type="line"/>
      <point x="326" y="377" type="line"/>
      <point x="339" y="461" type="line"/>
    </contour>
    <contour>
      <point x="409" y="385" type="line"/>
      <point x="399" y="434" type="line"/>
      <point x="389" y="385" type="line"/>
    </contour>
  </outline>
</glyph>
<glyph name="bracketright" format="1">
  <advance width="1000"/>
  <unicode hex="005D"/>
  <outline>
    <contour>
      <point x="988" y="500" type="curve" smooth="yes"/>
      <point x="988" y="489"/>
      <point x="983" y="479"/>
      <point x="972" y="468" type="curve" smooth="yes"/>
      <point x="532" y="29" type="line" smooth="yes"/>
      <point x="521" y="18"/>
      <point x="511" y="13"/>
      <point x="500" y="13" type="curve" smooth="yes"/>
      <point x="489" y="13"/>
      <point x="478" y="18"/>
      <point x="467" y="29" type="curve" smooth="yes"/>
      <point x="28" y="468" type="line" smooth="yes"/>
      <point x="17" y="479"/>
      <point x="12" y="489"/>
      <point x="12" y="500" type="curve" smooth="yes"/>
      <point x="12" y="511"/>
      <point x="17" y="522"/>
      <point x="28" y="533" type="curve" smooth="yes"/>
      <point x="467" y="972" type="line" smooth="yes"/>
      <point x="478" y="983"/>
      <point x="489" y="988"/>
      <point x="500" y="988" type="curve" smooth="yes"/>
      <point x="511" y="988"/>
      <point x="522" y="983"/>
      <point x="533" y="972" type="curve" smooth="yes"/>
      <point x="972" y="533" type="line" smooth="yes"/>
      <point x="983" y="522"/>
      <point x="988" y="511"/>
    </contour>
    <contour>
      <point x="985" y="500" type="curve" smooth="yes"/>
      <point x="985" y="510"/>
      <point x="980" y="521"/>
      <point x="970" y="531" type="curve" smooth="yes"/>
      <point x="531" y="970" type="line" smooth="yes"/>
      <point x="521" y="980"/>
      <point x="510" y="985"/>
      <point x="500" y="985" type="curve" smooth="yes"/>
      <point x="490" y="985"/>
      <point x="479" y="980"/>
      <point x="469" y="970" type="curve" smooth="yes"/>
      <point x="30" y="531" type="line" smooth="yes"/>
      <point x="20" y="521"/>
      <point x="15" y="510"/>
      <point x="15" y="500" type="curve" smooth="yes"/>
      <point x="15" y="490"/>
      <point x="20" y="480"/>
      <point x="30" y="470" type="curve" smooth="yes"/>
      <point x="469" y="31" type="line" smooth="yes"/>
      <point x="479" y="21"/>
      <point x="490" y="16"/>
      <point x="500" y="16" type="curve" smooth="yes"/>
      <point x="510" y="16"/>
      <point x="520" y="21"/>
      <point x="530" y="31" type="curve" smooth="yes"/>
      <point x="970" y="470" type="line" smooth="yes"/>
      <point x="980" y="480"/>
      <point x="985" y="490"/>
    </contour>
    <contour>
      <point x="973" y="500" type="curve" smooth="yes"/>
      <point x="973" y="492"/>
      <point x="970" y="485"/>
      <point x="962" y="477" type="curve" smooth="yes"/>
      <point x="523" y="38" type="line" smooth="yes"/>
      <point x="515" y="30"/>
      <point x="508" y="27"/>
      <point x="500" y="27" type="curve" smooth="yes"/>
      <point x="492" y="27"/>
      <point x="485" y="30"/>
      <point x="477" y="38" type="curve" smooth="yes"/>
      <point x="38" y="477" type="line" smooth="yes"/>
      <point x="30" y="485"/>
      <point x="27" y="492"/>
      <point x="27" y="500" type="curve" smooth="yes"/>
      <point x="27" y="508"/>
      <point x="30" y="515"/>
      <point x="38" y="523" type="curve" smooth="yes"/>
      <point x="477" y="962" type="line" smooth="yes"/>
      <point x="485" y="970"/>
      <point x="492" y="973"/>
      <point x="500" y="973" type="curve" smooth="yes"/>
      <point x="508" y="973"/>
      <point x="515" y="970"/>
      <point x="523" y="962" type="curve" smooth="yes"/>
      <point x="962" y="523" type="line" smooth="yes"/>
      <point x="970" y="515"/>
      <point x="973" y="508"/>
    </contour>
    <contour>
      <point x="956" y="500" type="curve" smooth="yes"/>
      <point x="956" y="504"/>
      <point x="954" y="507"/>
      <point x="950" y="511" type="curve" smooth="yes"/>
      <point x="511" y="950" type="line" smooth="yes"/>
      <point x="507" y="954"/>
      <point x="504" y="956"/>
      <point x="500" y="956" type="curve" smooth="yes"/>
      <point x="496" y="956"/>
      <point x="493" y="954"/>
      <point x="489" y="950" type="curve" smooth="yes"/>
      <point x="50" y="511" type="line" smooth="yes"/>
      <point x="46" y="507"/>
      <point x="44" y="504"/>
      <point x="44" y="500" type="curve" smooth="yes"/>
      <point x="44" y="496"/>
      <point x="46" y="493"/>
      <point x="50" y="489" type="curve" smooth="yes"/>
      <point x="489" y="50" type="line" smooth="yes"/>
      <point x="493" y="46"/>
      <point x="496" y="44"/>
      <point x="500" y="44" type="curve" smooth="yes"/>
      <point x="504" y="44"/>
      <point x="507" y="46"/>
      <point x="511" y="50" type="curve" smooth="yes"/>
      <point x="950" y="489" type="line" smooth="yes"/>
      <point x="954" y="493"/>
      <point x="956" y="496"/>
    </contour>
    <contour>
      <point x="612" y="495" type="line"/>
      <point x="572" y="495" type="line"/>
      <point x="572" y="513" type="line"/>
      <point x="612" y="513" type="line"/>
    </contour>
    <contour>
      <point x="842" y="476" type="line" smooth="yes"/>
      <point x="842" y="455"/>
      <point x="832" y="437"/>
      <point x="806" y="437" type="curve" smooth="yes"/>
      <point x="780" y="437"/>
      <point x="768" y="466"/>
      <point x="768" y="502" type="curve" smooth="yes"/>
      <point x="768" y="540"/>
      <point x="781" y="567"/>
      <point x="807" y="567" type="curve" smooth="yes"/>
      <point x="827" y="567"/>
      <point x="837" y="555"/>
      <point x="841" y="536" type="curve"/>
      <point x="823" y="532" type="line"/>
      <point x="820" y="545"/>
      <point x="815" y="549"/>
      <point x="806" y="549" type="curve" smooth="yes"/>
      <point x="793" y="549"/>
      <point x="787" y="529"/>
      <point x="787" y="502" type="curve" smooth="yes"/>
      <point x="787" y="481"/>
      <point x="791" y="455"/>
      <point x="808" y="455" type="curve" smooth="yes"/>
      <point x="820" y="455"/>
      <point x="824" y="462"/>
      <point x="824" y="478" type="curve" smooth="yes"/>
      <point x="824" y="487" type="line"/>
      <point x="810" y="487" type="line"/>
      <point x="810" y="504" type="line"/>
      <point x="842" y="504" type="line"/>
    </contour>
    <contour>
      <point x="751" y="439" type="line"/>
      <point x="737" y="439" type="line"/>
      <point x="698" y="528" type="line"/>
      <point x="698" y="439" type="line"/>
      <point x="681" y="439" type="line"/>
      <point x="681" y="565" type="line"/>
      <point x="698" y="565" type="line"/>
      <point x="734" y="485" type="line"/>
      <point x="734" y="565" type="line"/>
      <point x="751" y="565" type="line"/>
    </contour>
    <contour>
      <point x="661" y="439" type="line"/>
      <point x="643" y="439" type="line"/>
      <point x="643" y="565" type="line"/>
      <point x="661" y="565" type="line"/>
    </contour>
    <contour>
      <point x="560" y="439" type="line"/>
      <point x="540" y="439" type="line"/>
      <point x="523" y="486" type="line"/>
      <point x="505" y="439" type="line"/>
      <point x="486" y="439" type="line"/>
      <point x="514" y="504" type="line"/>
      <point x="488" y="565" type="line"/>
      <point x="508" y="565" type="line"/>
      <point x="523" y="522" type="line"/>
      <point x="539" y="565" type="line"/>
      <point x="558" y="565" type="line"/>
      <point x="532" y="504" type="line"/>
    </contour>
    <contour>
      <point x="470" y="439" type="line"/>
      <point x="409" y="439" type="line"/>
      <point x="409" y="565" type="line"/>
      <point x="468" y="565" type="line"/>
      <point x="468" y="548" type="line"/>
      <point x="426" y="548" type="line"/>
      <point x="426" y="514" type="line"/>
      <point x="453" y="514" type="line"/>
      <point x="453" y="497" type="line"/>
      <point x="426" y="497" type="line"/>
      <point x="426" y="456" type="line"/>
      <point x="470" y="456" type="line"/>
    </contour>
    <contour>
      <point x="390" y="503" type="curve" smooth="yes"/>
      <point x="390" y="465"/>
      <point x="376" y="439"/>
      <point x="350" y="439" type="curve" smooth="yes"/>
      <point x="319" y="439" type="line"/>
      <point x="319" y="565" type="line"/>
      <point x="350" y="565" type="line" smooth="yes"/>
      <point x="378" y="565"/>
      <point x="390" y="540"/>
    </contour>
    <contour>
      <point x="300" y="439" type="line"/>
      <point x="239" y="439" type="line"/>
      <point x="239" y="565" type="line"/>
      <point x="298" y="565" type="line"/>
      <point x="298" y="548" type="line"/>
      <point x="256" y="548" type="line"/>
      <point x="256" y="514" type="line"/>
      <point x="283" y="514" type="line"/>
      <point x="283" y="497" type="line"/>
      <point x="256" y="497" type="line"/>
      <point x="256" y="456" type="line"/>
      <point x="300" y="456" type="line"/>
    </contour>
    <contour>
      <point x="221" y="548" type="line"/>
      <point x="179" y="548" type="line"/>
      <point x="179" y="513" type="line"/>
      <point x="206" y="513" type="line"/>
      <point x="206" y="496" type="line"/>
      <point x="179" y="496" type="line"/>
      <point x="179" y="439" type="line"/>
      <point x="161" y="439" type="line"/>
      <point x="161" y="565" type="line"/>
      <point x="221" y="565" type="line"/>
    </contour>
    <contour>
      <point x="371" y="503" type="curve" smooth="yes"/>
      <point x="371" y="525"/>
      <point x="367" y="548"/>
      <point x="349" y="548" type="curve" smooth="yes"/>
      <point x="337" y="548" type="line"/>
      <point x="337" y="456" type="line"/>
      <point x="350" y="456" type="line" smooth="yes"/>
      <point x="367" y="456"/>
      <point x="371" y="480"/>
    </contour>
  </outline>
</glyph>
<glyph name="asciicircum" format="1">
  <advance width="1000"/>
  <unicode hex="005E"/>
  <outline>
    <contour>
      <point x="988" y="270" type="line" smooth="yes"/>
      <point x="988" y="203"/>
      <point x="965" y="180"/>
      <point x="898" y="180" type="curve" smooth="yes"/>
      <point x="103" y="180" type="line" smooth="yes"/>
      <point x="36" y="180"/>
      <point x="13" y="203"/>
      <point x="13" y="270" type="curve" smooth="yes"/>
      <point x="13" y="730" type="line" smooth="yes"/>
      <point x="13" y="797"/>
      <point x="36" y="820"/>
      <point x="103" y="820" type="curve" smooth="yes"/>
      <point x="898" y="820" type="line" smooth="yes"/>
      <point x="965" y="820"/>
      <point x="988" y="797"/>
      <point x="988" y="730" type="curve" smooth="yes"/>
    </contour>
    <contour>
      <point x="985" y="270" type="curve" smooth="yes"/>
      <point x="985" y="730" type="line" smooth="yes"/>
      <point x="985" y="795"/>
      <point x="963" y="817"/>
      <point x="898" y="817" type="curve" smooth="yes"/>
      <point x="103" y="817" type="line" smooth="yes"/>
      <point x="38" y="817"/>
      <point x="16" y="795"/>
      <point x="16" y="730" type="curve" smooth="yes"/>
      <point x="16" y="270" type="line" smooth="yes"/>
      <point x="16" y="205"/>
      <point x="38" y="183"/>
      <point x="103" y="183" type="curve" smooth="yes"/>
      <point x="898" y="183" type="line" smooth="yes"/>
      <point x="963" y="183"/>
      <point x="985" y="205"/>
    </contour>
    <contour>
      <point x="966" y="270" type="line" smooth="yes"/>
      <point x="966" y="219"/>
      <point x="949" y="202"/>
      <point x="898" y="202" type="curve" smooth="yes"/>
      <point x="103" y="202" type="line" smooth="yes"/>
      <point x="52" y="202"/>
      <point x="35" y="219"/>
      <point x="35" y="270" type="curve" smooth="yes"/>
      <point x="35" y="730" type="line" smooth="yes"/>
      <point x="35" y="781"/>
      <point x="52" y="798"/>
      <point x="103" y="798" type="curve" smooth="yes"/>
      <point x="898" y="798" type="line" smooth="yes"/>
      <point x="949" y="798"/>
      <point x="966" y="781"/>
      <point x="966" y="730" type="curve" smooth="yes"/>
    </contour>
    <contour>
      <point x="709" y="584" type="line"/>
      <point x="682" y="584" type="line"/>
      <point x="646" y="509" type="line"/>
      <point x="610" y="584" type="line"/>
      <point x="582" y="584" type="line"/>
      <point x="634" y="486" type="line"/>
      <point x="634" y="416" type="line"/>
      <point x="658" y="416" type="line"/>
      <point x="658" y="486" type="line"/>
    </contour>
    <contour>
      <point x="577" y="416" type="line"/>
      <point x="526" y="584" type="line"/>
      <point x="501" y="584" type="line"/>
      <point x="450" y="416" type="line"/>
      <point x="476" y="416" type="line"/>
      <point x="487" y="457" type="line"/>
      <point x="538" y="457" type="line"/>
      <point x="550" y="416" type="line"/>
    </contour>
    <contour>
      <point x="440" y="584" type="line"/>
      <point x="416" y="584" type="line"/>
      <point x="396" y="465" type="line"/>
      <point x="371" y="584" type="line"/>
      <point x="351" y="584" type="line"/>
      <point x="327" y="465" type="line"/>
      <point x="306" y="584" type="line"/>
      <point x="282" y="584" type="line"/>
      <point x="314" y="416" type="line"/>
      <point x="335" y="416" type="line"/>
      <point x="361" y="534" type="line"/>
      <point x="386" y="416" type="line"/>
      <point x="408" y="416" type="line"/>
    </contour>
    <contour>
      <point x="532" y="481" type="line"/>
      <point x="494" y="481" type="line"/>
      <point x="513" y="549" type="line"/>
    </contour>
  </outline>
</glyph>
<glyph name="a" format="1">
  <advance width="1000"/>
  <unicode hex="0061"/>
  <outline>
    <contour>
      <point x="988" y="500" type="curve" smooth="yes"/>
      <point x="988" y="489"/>
      <point x="983" y="479"/>
      <point x="972" y="468" type="curve" smooth="yes"/>
      <point x="532" y="29" type="line" smooth="yes"/>
      <point x="521" y="18"/>
      <point x="511" y="13"/>
      <point x="500" y="13" type="curve" smooth="yes"/>
      <point x="489" y="13"/>
      <point x="478" y="18"/>
      <point x="467" y="29" type="curve" smooth="yes"/>
      <point x="28" y="468" type="line" smooth="yes"/>
      <point x="17" y="479"/>
      <point x="12" y="489"/>
      <point x="12" y="500" type="curve" smooth="yes"/>
      <point x="12" y="511"/>
      <point x="17" y="522"/>
      <point x="28" y="533" type="curve" smooth="yes"/>
      <point x="467" y="972" type="line" smooth="yes"/>
      <point x="478" y="983"/>
      <point x="489" y="988"/>
      <point x="500" y="988" type="curve" smooth="yes"/>
      <point x="511" y="988"/>
      <point x="522" y="983"/>
      <point x="533" y="972" type="curve" smooth="yes"/>
      <point x="972" y="533" type="line" smooth="yes"/>
      <point x="983" y="522"/>
      <point x="988" y="511"/>
    </contour>
    <contour>
      <point x="985" y="500" type="curve" smooth="yes"/>
      <point x="985" y="510"/>
      <point x="980" y="521"/>
      <point x="970" y="531" type="curve" smooth="yes"/>
      <point x="531" y="970" type="line" smooth="yes"/>
      <point x="521" y="980"/>
      <point x="510" y="985"/>
      <point x="500" y="985" type="curve" smooth="yes"/>
      <point x="490" y="985"/>
      <point x="479" y="980"/>
      <point x="469" y="970" type="curve" smooth="yes"/>
      <point x="30" y="531" type="line" smooth="yes"/>
      <point x="20" y="521"/>
      <point x="15" y="510"/>
      <point x="15" y="500" type="curve" smooth="yes"/>
      <point x="15" y="490"/>
      <point x="20" y="480"/>
      <point x="30" y="470" type="curve" smooth="yes"/>
      <point x="469" y="31" type="line" smooth="yes"/>
      <point x="479" y="21"/>
      <point x="490" y="16"/>
      <point x="500" y="16" type="curve" smooth="yes"/>
      <point x="510" y="16"/>
      <point x="520" y="21"/>
      <point x="530" y="31" type="curve" smooth="yes"/>
      <point x="970" y="470" type="line" smooth="yes"/>
      <point x="980" y="480"/>
      <point x="985" y="490"/>
    </contour>
    <contour>
      <point x="973" y="500" type="curve" smooth="yes"/>
      <point x="973" y="492"/>
      <point x="970" y="485"/>
      <point x="962" y="477" type="curve" smooth="yes"/>
      <point x="523" y="38" type="line" smooth="yes"/>
      <point x="515" y="30"/>
      <point x="508" y="27"/>
      <point x="500" y="27" type="curve" smooth="yes"/>
      <point x="492" y="27"/>
      <point x="485" y="30"/>
      <point x="477" y="38" type="curve" smooth="yes"/>
      <point x="38" y="477" type="line" smooth="yes"/>
      <point x="30" y="485"/>
      <point x="27" y="492"/>
      <point x="27" y="500" type="curve" smooth="yes"/>
      <point x="27" y="508"/>
      <point x="30" y="515"/>
      <point x="38" y="523" type="curve" smooth="yes"/>
      <point x="477" y="962" type="line" smooth="yes"/>
      <point x="485" y="970"/>
      <point x="492" y="973"/>
      <point x="500" y="973" type="curve" smooth="yes"/>
      <point x="508" y="973"/>
      <point x="515" y="970"/>
      <point x="523" y="962" type="curve" smooth="yes"/>
      <point x="962" y="523" type="line" smooth="yes"/>
      <point x="970" y="515"/>
      <point x="973" y="508"/>
    </contour>
    <contour>
      <point x="956" y="500" type="curve" smooth="yes"/>
      <point x="956" y="504"/>
      <point x="954" y="507"/>
      <point x="950" y="511" type="curve" smooth="yes"/>
      <point x="511" y="950" type="line" smooth="yes"/>
      <point x="507" y="954"/>
      <point x="504" y="956"/>
      <point x="500" y="956" type="curve" smooth="yes"/>
      <point x="496" y="956"/>
      <point x="493" y="954"/>
      <point x="489" y="950" type="curve" smooth="yes"/>
      <point x="50" y="511" type="line" smooth="yes"/>
      <point x="46" y="507"/>
      <point x="44" y="504"/>
      <point x="44" y="500" type="curve" smooth="yes"/>
      <point x="44" y="496"/>
      <point x="46" y="493"/>
      <point x="50" y="489" type="curve" smooth="yes"/>
      <point x="489" y="50" type="line" smooth="yes"/>
      <point x="493" y="46"/>
      <point x="496" y="44"/>
      <point x="500" y="44" type="curve" smooth="yes"/>
      <point x="504" y="44"/>
      <point x="507" y="46"/>
      <point x="511" y="50" type="curve" smooth="yes"/>
      <point x="950" y="489" type="line" smooth="yes"/>
      <point x="954" y="493"/>
      <point x="956" y="496"/>
    </contour>
    <contour>
      <point x="697" y="539" type="line"/>
      <point x="636" y="539" type="line"/>
      <point x="636" y="665" type="line"/>
      <point x="695" y="665" type="line"/>
      <point x="695" y="648" type="line"/>
      <point x="653" y="648" type="line"/>
      <point x="653" y="614" type="line"/>
      <point x="680" y="614" type="line"/>
      <point x="680" y="597" type="line"/>
      <point x="653" y="597" type="line"/>
      <point x="653" y="556" type="line"/>
      <point x="697" y="556" type="line"/>
    </contour>
    <contour>
      <point x="617" y="571" type="curve" smooth="yes"/>
      <point x="617" y="551"/>
      <point x="605" y="537"/>
      <point x="582" y="537" type="curve" smooth="yes"/>
      <point x="566" y="537"/>
      <point x="556" y="545"/>
      <point x="549" y="557" type="curve"/>
      <point x="563" y="568" type="line"/>
      <point x="570" y="558"/>
      <point x="576" y="554"/>
      <point x="583" y="554" type="curve" smooth="yes"/>
      <point x="593" y="554"/>
      <point x="598" y="560"/>
      <point x="598" y="570" type="curve" smooth="yes"/>
      <point x="598" y="580"/>
      <point x="594" y="586"/>
      <point x="577" y="597" type="curve" smooth="yes"/>
      <point x="563" y="606"/>
      <point x="552" y="615"/>
      <point x="552" y="635" type="curve" smooth="yes"/>
      <point x="552" y="654"/>
      <point x="564" y="667"/>
      <point x="584" y="667" type="curve" smooth="yes"/>
      <point x="598" y="667"/>
      <point x="607" y="661"/>
      <point x="614" y="650" type="curve"/>
      <point x="602" y="638" type="line"/>
      <point x="595" y="646"/>
      <point x="591" y="649"/>
      <point x="583" y="649" type="curve" smooth="yes"/>
      <point x="575" y="649"/>
      <point x="570" y="644"/>
      <point x="570" y="636" type="curve" smooth="yes"/>
      <point x="570" y="626"/>
      <point x="575" y="621"/>
      <point x="589" y="612" type="curve" smooth="yes"/>
      <point x="604" y="602"/>
      <point x="617" y="592"/>
    </contour>
    <contour>
      <point x="537" y="602" type="curve" smooth="yes"/>
      <point x="537" y="566"/>
      <point x="525" y="537"/>
      <point x="499" y="537" type="curve" smooth="yes"/>
      <point x="472" y="537"/>
      <point x="461" y="565"/>
      <point x="461" y="602" type="curve" smooth="yes"/>
      <point x="461" y="638"/>
      <point x="472" y="667"/>
      <point x="499" y="667" type="curve" smooth="yes"/>
      <point x="526" y="667"/>
      <point x="537" y="639"/>
    </contour>
    <contour>
      <point x="445" y="602" type="curve" smooth="yes"/>
      <point x="445" y="566"/>
      <point x="433" y="537"/>
      <point x="407" y="537" type="curve" smooth="yes"/>
      <point x="380" y="537"/>
      <point x="369" y="565"/>
      <point x="369" y="602" type="curve" smooth="yes"/>
      <point x="369" y="638"/>
      <point x="380" y="667"/>
      <point x="407" y="667" type="curve" smooth="yes"/>
      <point x="434" y="667"/>
      <point x="445" y="639"/>
    </contour>
    <contour>
      <point x="358" y="539" type="line"/>
      <point x="300" y="539" type="line"/>
      <point x="300" y="665" type="line"/>
      <point x="317" y="665" type="line"/>
      <point x="317" y="557" type="line"/>
      <point x="358" y="557" type="line"/>
    </contour>
    <contour>
      <point x="749" y="335" type="line"/>
      <point x="688" y="335" type="line"/>
      <point x="688" y="461" type="line"/>
      <point x="747" y="461" type="line"/>
      <point x="747" y="444" type="line"/>
      <point x="705" y="444" type="line"/>
      <point x="705" y="410" type="line"/>
      <point x="732" y="410" type="line"/>
      <point x="732" y="393" type="line"/>
      <point x="705" y="393" type="line"/>
      <point x="705" y="352" type="line"/>
      <point x="749" y="352" type="line"/>
    </contour>
    <contour>
      <point x="667" y="372" type="line" smooth="yes"/>
      <point x="667" y="351"/>
      <point x="657" y="333"/>
      <point x="631" y="333" type="curve" smooth="yes"/>
      <point x="605" y="333"/>
      <point x="593" y="362"/>
      <point x="593" y="398" type="curve" smooth="yes"/>
      <point x="593" y="436"/>
      <point x="606" y="463"/>
      <point x="632" y="463" type="curve" smooth="yes"/>
      <point x="652" y="463"/>
      <point x="662" y="451"/>
      <point x="666" y="432" type="curve"/>
      <point x="648" y="428" type="line"/>
      <point x="645" y="441"/>
      <point x="640" y="445"/>
      <point x="631" y="445" type="curve" smooth="yes"/>
      <point x="618" y="445"/>
      <point x="612" y="425"/>
      <point x="612" y="398" type="curve" smooth="yes"/>
      <point x="612" y="377"/>
      <point x="616" y="351"/>
      <point x="633" y="351" type="curve" smooth="yes"/>
      <point x="645" y="351"/>
      <point x="649" y="358"/>
      <point x="649" y="374" type="curve" smooth="yes"/>
      <point x="649" y="383" type="line"/>
      <point x="635" y="383" type="line"/>
      <point x="635" y="400" type="line"/>
      <point x="667" y="400" type="line"/>
    </contour>
    <contour>
      <point x="574" y="335" type="line"/>
      <point x="560" y="335" type="line"/>
      <point x="521" y="424" type="line"/>
      <point x="521" y="335" type="line"/>
      <point x="504" y="335" type="line"/>
      <point x="504" y="461" type="line"/>
      <point x="521" y="461" type="line"/>
      <point x="557" y="381" type="line"/>
      <point x="557" y="461" type="line"/>
      <point x="574" y="461" type="line"/>
    </contour>
    <contour>
      <point x="486" y="335" type="line"/>
      <point x="467" y="335" type="line"/>
      <point x="460" y="369" type="line"/>
      <point x="432" y="369" type="line"/>
      <point x="425" y="335" type="line"/>
      <point x="406" y="335" type="line"/>
      <point x="437" y="461" type="line"/>
      <point x="456" y="461" type="line"/>
    </contour>
    <contour>
      <point x="388" y="335" type="line"/>
      <point x="371" y="335" type="line"/>
      <point x="371" y="393" type="line"/>
      <point x="335" y="393" type="line"/>
      <point x="335" y="335" type="line"/>
      <point x="318" y="335" type="line"/>
      <point x="318" y="461" type="line"/>
      <point x="335" y="461" type="line"/>
      <point x="335" y="410" type="line"/>
      <point x="371" y="410" type="line"/>
      <point x="371" y="461" type="line"/>
      <point x="388" y="461" type="line"/>
    </contour>
    <contour>
      <point x="299" y="365" type="line"/>
      <point x="295" y="346"/>
      <point x="286" y="333"/>
      <point x="266" y="333" type="curve" smooth="yes"/>
      <point x="238" y="333"/>
      <point x="228" y="362"/>
      <point x="228" y="398" type="curve" smooth="yes"/>
      <point x="228" y="434"/>
      <point x="239" y="463"/>
      <point x="266" y="463" type="curve" smooth="yes"/>
      <point x="287" y="463"/>
      <point x="296" y="450"/>
      <point x="299" y="432" type="curve"/>
      <point x="281" y="428" type="line"/>
      <point x="279" y="439"/>
      <point x="275" y="445"/>
      <point x="266" y="445" type="curve" smooth="yes"/>
      <point x="250" y="445"/>
      <point x="247" y="420"/>
      <point x="247" y="398" type="curve" smooth="yes"/>
      <point x="247" y="375"/>
      <point x="251" y="351"/>
      <point x="267" y="351" type="curve" smooth="yes"/>
      <point x="275" y="351"/>
      <point x="279" y="356"/>
      <point x="283" y="370" type="curve"/>
    </contour>
    <contour>
      <point x="519" y="602" type="curve" smooth="yes"/>
      <point x="519" y="625"/>
      <point x="514" y="649"/>
      <point x="499" y="649" type="curve" smooth="yes"/>
      <point x="483" y="649"/>
      <point x="479" y="626"/>
      <point x="479" y="602" type="curve" smooth="yes"/>
      <point x="479" y="579"/>
      <point x="484" y="555"/>
      <point x="499" y="555" type="curve" smooth="yes"/>
      <point x="515" y="555"/>
      <point x="519" y="578"/>
    </contour>
    <contour>
      <point x="427" y="602" type="curve" smooth="yes"/>
      <point x="427" y="625"/>
      <point x="422" y="649"/>
      <point x="407" y="649" type="curve" smooth="yes"/>
      <point x="391" y="649"/>
      <point x="387" y="626"/>
      <point x="387" y="602" type="curve" smooth="yes"/>
      <point x="387" y="579"/>
      <point x="392" y="555"/>
      <point x="407" y="555" type="curve" smooth="yes"/>
      <point x="423" y="555"/>
      <point x="427" y="578"/>
    </contour>
    <contour>
      <point x="456" y="385" type="line"/>
      <point x="446" y="434" type="line"/>
      <point x="436" y="385" type="line"/>
    </contour>
  </outline>
</glyph>
<glyph name="b" format="1">
  <advance width="1000"/>
  <unicode hex="0062"/>
  <outline>
    <contour>
      <point x="987" y="306" type="line" smooth="yes"/>
      <point x="987" y="275"/>
      <point x="968" y="255"/>
      <point x="935" y="255" type="curve" smooth="yes"/>
      <point x="65" y="255" type="line" smooth="yes"/>
      <point x="32" y="255"/>
      <point x="13" y="275"/>
      <point x="13" y="306" type="curve" smooth="yes"/>
      <point x="13" y="694" type="line" smooth="yes"/>
      <point x="13" y="725"/>
      <point x="32" y="745"/>
      <point x="65" y="745" type="curve" smooth="yes"/>
      <point x="935" y="745" type="line" smooth="yes"/>
      <point x="968" y="745"/>
      <point x="987" y="725"/>
      <point x="987" y="694" type="curve" smooth="yes"/>
    </contour>
    <contour>
      <point x="984" y="306" type="curve" smooth="yes"/>
      <point x="984" y="694" type="line" smooth="yes"/>
      <point x="984" y="724"/>
      <point x="966" y="742"/>
      <point x="935" y="742" type="curve" smooth="yes"/>
      <point x="65" y="742" type="line" smooth="yes"/>
      <point x="34" y="742"/>
      <point x="16" y="724"/>
      <point x="16" y="694" type="curve" smooth="yes"/>
      <point x="16" y="306" type="line" smooth="yes"/>
      <point x="16" y="276"/>
      <point x="34" y="258"/>
      <point x="65" y="258" type="curve" smooth="yes"/>
      <point x="935" y="258" type="line" smooth="yes"/>
      <point x="966" y="258"/>
      <point x="984" y="276"/>
    </contour>
    <contour>
      <point x="965" y="306" type="line" smooth="yes"/>
      <point x="965" y="288"/>
      <point x="953" y="277"/>
      <point x="935" y="277" type="curve" smooth="yes"/>
      <point x="65" y="277" type="line" smooth="yes"/>
      <point x="47" y="277"/>
      <point x="35" y="288"/>
      <point x="35" y="306" type="curve" smooth="yes"/>
      <point x="35" y="694" type="line" smooth="yes"/>
      <point x="35" y="712"/>
      <point x="47" y="723"/>
      <point x="65" y="723" type="curve" smooth="yes"/>
      <point x="935" y="723" type="line" smooth="yes"/>
      <point x="953" y="723"/>
      <point x="965" y="712"/>
      <point x="965" y="694" type="curve" smooth="yes"/>
    </contour>
    <contour>
      <point x="945" y="306" type="curve" smooth="yes"/>
      <point x="945" y="694" type="line" smooth="yes"/>
      <point x="945" y="700"/>
      <point x="941" y="703"/>
      <point x="935" y="703" type="curve" smooth="yes"/>
      <point x="65" y="703" type="line" smooth="yes"/>
      <point x="59" y="703"/>
      <point x="55" y="700"/>
      <point x="55" y="694" type="curve" smooth="yes"/>
      <point x="55" y="306" type="line" smooth="yes"/>
      <point x="55" y="300"/>
      <point x="59" y="297"/>
      <point x="65" y="297" type="curve" smooth="yes"/>
      <point x="935" y="297" type="line" smooth="yes"/>
      <point x="941" y="297"/>
      <point x="945" y="300"/>
    </contour>
  </outline>
</glyph>
<glyph name="c" format="1">
  <advance width="1000"/>
  <unicode hex="0063"/>
  <outline>
    <contour>
      <point x="987" y="103" type="line" smooth="yes"/>
      <point x="987" y="36"/>
      <point x="964" y="13"/>
      <point x="897" y="13" type="curve" smooth="yes"/>
      <point x="103" y="13" type="line" smooth="yes"/>
      <point x="36" y="13"/>
      <point x="13" y="36"/>
      <point x="13" y="103" type="curve" smooth="yes"/>
      <point x="13" y="897" type="line" smooth="yes"/>
      <point x="13" y="964"/>
      <point x="36" y="987"/>
      <point x="103" y="987" type="curve" smooth="yes"/>
      <point x="897" y="987" type="line" smooth="yes"/>
      <point x="964" y="987"/>
      <point x="987" y="964"/>
      <point x="987" y="897" type="curve" smooth="yes"/>
    </contour>
    <contour>
      <point x="984" y="103" type="curve" smooth="yes"/>
      <point x="984" y="897" type="line" smooth="yes"/>
      <point x="984" y="962"/>
      <point x="962" y="984"/>
      <point x="897" y="984" type="curve" smooth="yes"/>
      <point x="103" y="984" type="line" smooth="yes"/>
      <point x="38" y="984"/>
      <point x="16" y="962"/>
      <point x="16" y="897" type="curve" smooth="yes"/>
      <point x="16" y="103" type="line" smooth="yes"/>
      <point x="16" y="38"/>
      <point x="38" y="16"/>
      <point x="103" y="16" type="curve" smooth="yes"/>
      <point x="897" y="16" type="line" smooth="yes"/>
      <point x="962" y="16"/>
      <point x="984" y="38"/>
    </contour>
    <contour>
      <point x="965" y="103" type="line" smooth="yes"/>
      <point x="965" y="52"/>
      <point x="948" y="35"/>
      <point x="897" y="35" type="curve" smooth="yes"/>
      <point x="103" y="35" type="line" smooth="yes"/>
      <point x="52" y="35"/>
      <point x="35" y="52"/>
      <point x="35" y="103" type="curve" smooth="yes"/>
      <point x="35" y="897" type="line" smooth="yes"/>
      <point x="35" y="948"/>
      <point x="52" y="965"/>
      <point x="103" y="965" type="curve" smooth="yes"/>
      <point x="897" y="965" type="line" smooth="yes"/>
      <point x="948" y="965"/>
      <point x="965" y="948"/>
      <point x="965" y="897" type="curve" smooth="yes"/>
    </contour>
    <contour>
      <point x="945" y="103" type="curve" smooth="yes"/>
      <point x="945" y="897" type="line" smooth="yes"/>
      <point x="945" y="933"/>
      <point x="933" y="945"/>
      <point x="897" y="945" type="curve" smooth="yes"/>
      <point x="103" y="945" type="line" smooth="yes"/>
      <point x="67" y="945"/>
      <point x="55" y="933"/>
      <point x="55" y="897" type="curve" smooth="yes"/>
      <point x="55" y="103" type="line" smooth="yes"/>
      <point x="55" y="67"/>
      <point x="67" y="55"/>
      <point x="103" y="55" type="curve" smooth="yes"/>
      <point x="897" y="55" type="line" smooth="yes"/>
      <point x="933" y="55"/>
      <point x="945" y="67"/>
    </contour>
    <contour>
      <point x="697" y="493" type="curve"/>
      <point x="677" y="493" type="line"/>
      <point x="677" y="514"/>
      <point x="672" y="531"/>
      <point x="651" y="531" type="curve" smooth="yes"/>
      <point x="599" y="531" type="line" smooth="yes"/>
      <point x="571" y="531"/>
      <point x="558" y="551"/>
      <point x="558" y="570" type="curve" smooth="yes"/>
      <point x="558" y="589"/>
      <point x="571" y="605"/>
      <point x="585" y="609" type="curve"/>
      <point x="534" y="613"/>
      <point x="495" y="639"/>
      <point x="495" y="693" type="curve" smooth="yes"/>
      <point x="495" y="747"/>
      <point x="538" y="789"/>
      <point x="591" y="789" type="curve" smooth="yes"/>
      <point x="645" y="789" type="line"/>
      <point x="645" y="769" type="line"/>
      <point x="591" y="769" type="line" smooth="yes"/>
      <point x="549" y="769"/>
      <point x="515" y="735"/>
      <point x="515" y="693" type="curve" smooth="yes"/>
      <point x="515" y="650"/>
      <point x="545" y="637"/>
      <point x="563" y="633" type="curve" smooth="yes"/>
      <point x="589" y="627"/>
      <point x="605" y="627"/>
      <point x="605" y="609" type="curve" smooth="yes"/>
      <point x="605" y="601"/>
      <point x="601" y="596"/>
      <point x="589" y="590" type="curve" smooth="yes"/>
      <point x="582" y="587"/>
      <point x="578" y="577"/>
      <point x="578" y="570" type="curve" smooth="yes"/>
      <point x="578" y="563"/>
      <point x="583" y="551"/>
      <point x="599" y="551" type="curve" smooth="yes"/>
      <point x="651" y="551" type="line" smooth="yes"/>
      <point x="683" y="551"/>
      <point x="697" y="524"/>
    </contour>
    <contour>
      <point x="751" y="676" type="curve" smooth="yes"/>
      <point x="751" y="625"/>
      <point x="711" y="600"/>
      <point x="666" y="594" type="curve"/>
      <point x="709" y="587"/>
      <point x="737" y="544"/>
      <point x="737" y="502" type="curve" smooth="yes"/>
      <point x="737" y="493" type="line"/>
      <point x="717" y="493" type="line"/>
      <point x="717" y="501" type="line" smooth="yes"/>
      <point x="717" y="530"/>
      <point x="697" y="564"/>
      <point x="670" y="572" type="curve" smooth="yes"/>
      <point x="659" y="575"/>
      <point x="646" y="580"/>
      <point x="646" y="593" type="curve" smooth="yes"/>
      <point x="646" y="607"/>
      <point x="660" y="613"/>
      <point x="671" y="615" type="curve" smooth="yes"/>
      <point x="706" y="622"/>
      <point x="731" y="638"/>
      <point x="731" y="676" type="curve" smooth="yes"/>
      <point x="731" y="717"/>
      <point x="698" y="750"/>
      <point x="657" y="750" type="curve"/>
      <point x="657" y="770" type="line"/>
      <point x="708" y="770"/>
      <point x="751" y="727"/>
    </contour>
    <contour>
      <point x="737" y="409" type="line"/>
      <point x="717" y="409" type="line"/>
      <point x="717" y="468" type="line"/>
      <point x="737" y="468" type="line"/>
    </contour>
    <contour>
      <point x="697" y="409" type="line"/>
      <point x="677" y="409" type="line"/>
      <point x="677" y="468" type="line"/>
      <point x="697" y="468" type="line"/>
    </contour>
    <contour>
      <point x="657" y="409" type="line"/>
      <point x="190" y="409" type="line"/>
      <point x="190" y="468" type="line"/>
      <point x="657" y="468" type="line"/>
    </contour>
  </outline>
</glyph>
<glyph name="e" format="1">
  <advance width="1000"/>
  <unicode hex="0065"/>
  <outline>
    <contour>
      <point x="988" y="500" type="curve" smooth="yes"/>
      <point x="988" y="489"/>
      <point x="983" y="479"/>
      <point x="972" y="468" type="curve" smooth="yes"/>
      <point x="532" y="29" type="line" smooth="yes"/>
      <point x="521" y="18"/>
      <point x="511" y="13"/>
      <point x="500" y="13" type="curve" smooth="yes"/>
      <point x="489" y="13"/>
      <point x="478" y="18"/>
      <point x="467" y="29" type="curve" smooth="yes"/>
      <point x="28" y="468" type="line" smooth="yes"/>
      <point x="17" y="479"/>
      <point x="12" y="489"/>
      <point x="12" y="500" type="curve" smooth="yes"/>
      <point x="12" y="511"/>
      <point x="17" y="522"/>
      <point x="28" y="533" type="curve" smooth="yes"/>
      <point x="467" y="972" type="line" smooth="yes"/>
      <point x="478" y="983"/>
      <point x="489" y="988"/>
      <point x="500" y="988" type="curve" smooth="yes"/>
      <point x="511" y="988"/>
      <point x="522" y="983"/>
      <point x="533" y="972" type="curve" smooth="yes"/>
      <point x="972" y="533" type="line" smooth="yes"/>
      <point x="983" y="522"/>
      <point x="988" y="511"/>
    </contour>
    <contour>
      <point x="985" y="500" type="curve" smooth="yes"/>
      <point x="985" y="510"/>
      <point x="980" y="521"/>
      <point x="970" y="531" type="curve" smooth="yes"/>
      <point x="531" y="970" type="line" smooth="yes"/>
      <point x="521" y="980"/>
      <point x="510" y="985"/>
      <point x="500" y="985" type="curve" smooth="yes"/>
      <point x="490" y="985"/>
      <point x="479" y="980"/>
      <point x="469" y="970" type="curve" smooth="yes"/>
      <point x="30" y="531" type="line" smooth="yes"/>
      <point x="20" y="521"/>
      <point x="15" y="510"/>
      <point x="15" y="500" type="curve" smooth="yes"/>
      <point x="15" y="490"/>
      <point x="20" y="480"/>
      <point x="30" y="470" type="curve" smooth="yes"/>
      <point x="469" y="31" type="line" smooth="yes"/>
      <point x="479" y="21"/>
      <point x="490" y="16"/>
      <point x="500" y="16" type="curve" smooth="yes"/>
      <point x="510" y="16"/>
      <point x="520" y="21"/>
      <point x="530" y="31" type="curve" smooth="yes"/>
      <point x="970" y="470" type="line" smooth="yes"/>
      <point x="980" y="480"/>
      <point x="985" y="490"/>
    </contour>
    <contour>
      <point x="973" y="500" type="curve" smooth="yes"/>
      <point x="973" y="492"/>
      <point x="970" y="485"/>
      <point x="962" y="477" type="curve" smooth="yes"/>
      <point x="523" y="38" type="line" smooth="yes"/>
      <point x="515" y="30"/>
      <point x="508" y="27"/>
      <point x="500" y="27" type="curve" smooth="yes"/>
      <point x="492" y="27"/>
      <point x="485" y="30"/>
      <point x="477" y="38" type="curve" smooth="yes"/>
      <point x="38" y="477" type="line" smooth="yes"/>
      <point x="30" y="485"/>
      <point x="27" y="492"/>
      <point x="27" y="500" type="curve" smooth="yes"/>
      <point x="27" y="508"/>
      <point x="30" y="515"/>
      <point x="38" y="523" type="curve" smooth="yes"/>
      <point x="477" y="962" type="line" smooth="yes"/>
      <point x="485" y="970"/>
      <point x="492" y="973"/>
      <point x="500" y="973" type="curve" smooth="yes"/>
      <point x="508" y="973"/>
      <point x="515" y="970"/>
      <point x="523" y="962" type="curve" smooth="yes"/>
      <point x="962" y="523" type="line" smooth="yes"/>
      <point x="970" y="515"/>
      <point x="973" y="508"/>
    </contour>
    <contour>
      <point x="956" y="500" type="curve" smooth="yes"/>
      <point x="956" y="504"/>
      <point x="954" y="507"/>
      <point x="950" y="511" type="curve" smooth="yes"/>
      <point x="511" y="950" type="line" smooth="yes"/>
      <point x="507" y="954"/>
      <point x="504" y="956"/>
      <point x="500" y="956" type="curve" smooth="yes"/>
      <point x="496" y="956"/>
      <point x="493" y="954"/>
      <point x="489" y="950" type="curve" smooth="yes"/>
      <point x="50" y="511" type="line" smooth="yes"/>
      <point x="46" y="507"/>
      <point x="44" y="504"/>
      <point x="44" y="500" type="curve" smooth="yes"/>
      <point x="44" y="496"/>
      <point x="46" y="493"/>
      <point x="50" y="489" type="curve" smooth="yes"/>
      <point x="489" y="50" type="line" smooth="yes"/>
      <point x="493" y="46"/>
      <point x="496" y="44"/>
      <point x="500" y="44" type="curve" smooth="yes"/>
      <point x="504" y="44"/>
      <point x="507" y="46"/>
      <point x="511" y="50" type="curve" smooth="yes"/>
      <point x="950" y="489" type="line" smooth="yes"/>
      <point x="954" y="493"/>
      <point x="956" y="496"/>
    </contour>
    <contour>
      <point x="786" y="542" type="curve" smooth="yes"/>
      <point x="806" y="475"/>
      <point x="766" y="405"/>
      <point x="699" y="385" type="curve" smooth="yes"/>
      <point x="640" y="368"/>
      <point x="581" y="394"/>
      <point x="554" y="445" type="curve"/>
      <point x="520" y="427" type="line"/>
      <point x="519" y="423"/>
      <point x="517" y="418"/>
      <point x="515" y="415" type="curve"/>
      <point x="532" y="382" type="line"/>
      <point x="541" y="384" type="line"/>
      <point x="545" y="373" type="line"/>
      <point x="517" y="364" type="line"/>
      <point x="513" y="376" type="line"/>
      <point x="519" y="378" type="line"/>
      <point x="503" y="409" type="line"/>
      <point x="494" y="408"/>
      <point x="485" y="414"/>
      <point x="482" y="423" type="curve"/>
      <point x="482" y="425"/>
      <point x="482" y="426"/>
      <point x="482" y="428" type="curve"/>
      <point x="320" y="526" type="line"/>
      <point x="316" y="467" type="line" smooth="yes"/>
      <point x="315" y="445"/>
      <point x="298" y="411"/>
      <point x="289" y="394" type="curve"/>
      <point x="290" y="387"/>
      <point x="287" y="381"/>
      <point x="279" y="379" type="curve" smooth="yes"/>
      <point x="271" y="377"/>
      <point x="264" y="381"/>
      <point x="262" y="389" type="curve"/>
      <point x="259" y="396"/>
      <point x="264" y="404"/>
      <point x="271" y="406" type="curve"/>
      <point x="280" y="420"/>
      <point x="297" y="449"/>
      <point x="298" y="467" type="curve" smooth="yes"/>
      <point x="306" y="616" type="line"/>
      <point x="284" y="630" type="line"/>
      <point x="301" y="664" type="line"/>
      <point x="354" y="680" type="line"/>
      <point x="360" y="661" type="line"/>
      <point x="315" y="647" type="line"/>
      <point x="310" y="636" type="line"/>
      <point x="326" y="628" type="line"/>
      <point x="323" y="582" type="line"/>
      <point x="495" y="632" type="line"/>
      <point x="496" y="644" type="line"/>
      <point x="472" y="639"/>
      <point x="448" y="643"/>
      <point x="448" y="643" type="curve"/>
      <point x="448" y="643"/>
      <point x="437" y="650"/>
      <point x="446" y="653" type="curve" smooth="yes"/>
      <point x="540" y="689" type="line" smooth="yes"/>
      <point x="554" y="694"/>
      <point x="549" y="665"/>
      <point x="517" y="650" type="curve"/>
      <point x="516" y="629" type="line"/>
      <point x="516" y="629"/>
      <point x="570" y="591"/>
      <point x="569" y="590" type="curve"/>
      <point x="585" y="607"/>
      <point x="604" y="619"/>
      <point x="628" y="626" type="curve" smooth="yes"/>
      <point x="696" y="647"/>
      <point x="767" y="608"/>
    </contour>
    <contour>
      <point x="495" y="611" type="line"/>
      <point x="323" y="560" type="line"/>
      <point x="322" y="549" type="line"/>
      <point x="481" y="449" type="line"/>
      <point x="469" y="469" type="line"/>
      <point x="461" y="467" type="line"/>
      <point x="458" y="478" type="line"/>
      <point x="485" y="486" type="line"/>
      <point x="488" y="475" type="line"/>
      <point x="483" y="473" type="line"/>
      <point x="489" y="461" type="line"/>
      <point x="491" y="459"/>
      <point x="494" y="452"/>
      <point x="494" y="452" type="curve"/>
    </contour>
    <contour>
      <point x="557" y="574" type="curve"/>
      <point x="515" y="604" type="line"/>
      <point x="511" y="445" type="line"/>
      <point x="545" y="463" type="line"/>
      <point x="545" y="465"/>
      <point x="543" y="468"/>
      <point x="543" y="469" type="curve"/>
      <point x="532" y="506"/>
      <point x="539" y="543"/>
    </contour>
    <contour>
      <point x="643" y="512" type="line"/>
      <point x="578" y="559" type="line"/>
      <point x="563" y="534"/>
      <point x="558" y="505"/>
      <point x="566" y="477" type="curve"/>
      <point x="566" y="476"/>
      <point x="566" y="475"/>
      <point x="567" y="474" type="curve"/>
    </contour>
    <contour>
      <point x="763" y="535" type="curve" smooth="yes"/>
      <point x="747" y="588"/>
      <point x="689" y="620"/>
      <point x="635" y="603" type="curve" smooth="yes"/>
      <point x="617" y="598"/>
      <point x="602" y="589"/>
      <point x="590" y="576" type="curve"/>
      <point x="659" y="527" type="line"/>
      <point x="667" y="529"/>
      <point x="675" y="524"/>
      <point x="677" y="515" type="curve" smooth="yes"/>
      <point x="679" y="506"/>
      <point x="675" y="499"/>
      <point x="667" y="497" type="curve"/>
      <point x="663" y="495"/>
      <point x="659" y="495"/>
      <point x="656" y="496" type="curve"/>
      <point x="575" y="456" type="line"/>
      <point x="598" y="415"/>
      <point x="647" y="394"/>
      <point x="693" y="408" type="curve" smooth="yes"/>
      <point x="747" y="424"/>
      <point x="778" y="482"/>
    </contour>
  </outline>
</glyph>
<glyph name="f" format="1">
  <advance width="1000"/>
  <unicode hex="0066"/>
  <outline>
    <contour>
      <point x="988" y="500" type="curve" smooth="yes"/>
      <point x="988" y="489"/>
      <point x="983" y="479"/>
      <point x="972" y="468" type="curve" smooth="yes"/>
      <point x="532" y="29" type="line" smooth="yes"/>
      <point x="521" y="18"/>
      <point x="511" y="13"/>
      <point x="500" y="13" type="curve" smooth="yes"/>
      <point x="489" y="13"/>
      <point x="478" y="18"/>
      <point x="467" y="29" type="curve" smooth="yes"/>
      <point x="28" y="468" type="line" smooth="yes"/>
      <point x="17" y="479"/>
      <point x="12" y="489"/>
      <point x="12" y="500" type="curve" smooth="yes"/>
      <point x="12" y="511"/>
      <point x="17" y="522"/>
      <point x="28" y="533" type="curve" smooth="yes"/>
      <point x="467" y="972" type="line" smooth="yes"/>
      <point x="478" y="983"/>
      <point x="489" y="988"/>
      <point x="500" y="988" type="curve" smooth="yes"/>
      <point x="511" y="988"/>
      <point x="522" y="983"/>
      <point x="533" y="972" type="curve" smooth="yes"/>
      <point x="972" y="533" type="line" smooth="yes"/>
      <point x="983" y="522"/>
      <point x="988" y="511"/>
    </contour>
    <contour>
      <point x="985" y="500" type="curve" smooth="yes"/>
      <point x="985" y="510"/>
      <point x="980" y="521"/>
      <point x="970" y="531" type="curve" smooth="yes"/>
      <point x="531" y="970" type="line" smooth="yes"/>
      <point x="521" y="980"/>
      <point x="510" y="985"/>
      <point x="500" y="985" type="curve" smooth="yes"/>
      <point x="490" y="985"/>
      <point x="479" y="980"/>
      <point x="469" y="970" type="curve" smooth="yes"/>
      <point x="30" y="531" type="line" smooth="yes"/>
      <point x="20" y="521"/>
      <point x="15" y="510"/>
      <point x="15" y="500" type="curve" smooth="yes"/>
      <point x="15" y="490"/>
      <point x="20" y="480"/>
      <point x="30" y="470" type="curve" smooth="yes"/>
      <point x="469" y="31" type="line" smooth="yes"/>
      <point x="479" y="21"/>
      <point x="490" y="16"/>
      <point x="500" y="16" type="curve" smooth="yes"/>
      <point x="510" y="16"/>
      <point x="520" y="21"/>
      <point x="530" y="31" type="curve" smooth="yes"/>
      <point x="970" y="470" type="line" smooth="yes"/>
      <point x="980" y="480"/>
      <point x="985" y="490"/>
    </contour>
    <contour>
      <point x="973" y="500" type="curve" smooth="yes"/>
      <point x="973" y="492"/>
      <point x="970" y="485"/>
      <point x="962" y="477" type="curve" smooth="yes"/>
      <point x="523" y="38" type="line" smooth="yes"/>
      <point x="515" y="30"/>
      <point x="508" y="27"/>
      <point x="500" y="27" type="curve" smooth="yes"/>
      <point x="492" y="27"/>
      <point x="485" y="30"/>
      <point x="477" y="38" type="curve" smooth="yes"/>
      <point x="38" y="477" type="line" smooth="yes"/>
      <point x="30" y="485"/>
      <point x="27" y="492"/>
      <point x="27" y="500" type="curve" smooth="yes"/>
      <point x="27" y="508"/>
      <point x="30" y="515"/>
      <point x="38" y="523" type="curve" smooth="yes"/>
      <point x="477" y="962" type="line" smooth="yes"/>
      <point x="485" y="970"/>
      <point x="492" y="973"/>
      <point x="500" y="973" type="curve" smooth="yes"/>
      <point x="508" y="973"/>
      <point x="515" y="970"/>
      <point x="523" y="962" type="curve" smooth="yes"/>
      <point x="962" y="523" type="line" smooth="yes"/>
      <point x="970" y="515"/>
      <point x="973" y="508"/>
    </contour>
    <contour>
      <point x="956" y="500" type="curve" smooth="yes"/>
      <point x="956" y="504"/>
      <point x="954" y="507"/>
      <point x="950" y="511" type="curve" smooth="yes"/>
      <point x="511" y="950" type="line" smooth="yes"/>
      <point x="507" y="954"/>
      <point x="504" y="956"/>
      <point x="500" y="956" type="curve" smooth="yes"/>
      <point x="496" y="956"/>
      <point x="493" y="954"/>
      <point x="489" y="950" type="curve" smooth="yes"/>
      <point x="50" y="511" type="line" smooth="yes"/>
      <point x="46" y="507"/>
      <point x="44" y="504"/>
      <point x="44" y="500" type="curve" smooth="yes"/>
      <point x="44" y="496"/>
      <point x="46" y="493"/>
      <point x="50" y="489" type="curve" smooth="yes"/>
      <point x="489" y="50" type="line" smooth="yes"/>
      <point x="493" y="46"/>
      <point x="496" y="44"/>
      <point x="500" y="44" type="curve" smooth="yes"/>
      <point x="504" y="44"/>
      <point x="507" y="46"/>
      <point x="511" y="50" type="curve" smooth="yes"/>
      <point x="950" y="489" type="line" smooth="yes"/>
      <point x="954" y="493"/>
      <point x="956" y="496"/>
    </contour>
    <contour>
      <point x="739" y="554" type="line"/>
      <point x="704" y="554" type="line"/>
      <point x="704" y="428" type="line"/>
      <point x="682" y="428" type="line"/>
      <point x="682" y="554" type="line"/>
      <point x="647" y="554" type="line"/>
      <point x="647" y="575" type="line"/>
      <point x="739" y="575" type="line"/>
    </contour>
    <contour>
      <point x="631" y="501" type="curve" smooth="yes"/>
      <point x="631" y="458"/>
      <point x="612" y="425"/>
      <point x="578" y="425" type="curve" smooth="yes"/>
      <point x="543" y="425"/>
      <point x="525" y="457"/>
      <point x="525" y="501" type="curve" smooth="yes"/>
      <point x="525" y="544"/>
      <point x="543" y="577"/>
      <point x="578" y="577" type="curve" smooth="yes"/>
      <point x="613" y="577"/>
      <point x="631" y="545"/>
    </contour>
    <contour>
      <point x="496" y="428" type="line"/>
      <point x="474" y="428" type="line"/>
      <point x="474" y="574" type="line"/>
      <point x="496" y="574" type="line"/>
    </contour>
    <contour>
      <point x="445" y="501" type="curve" smooth="yes"/>
      <point x="445" y="454"/>
      <point x="421" y="428"/>
      <point x="386" y="428" type="curve" smooth="yes"/>
      <point x="348" y="428" type="line"/>
      <point x="348" y="574" type="line"/>
      <point x="386" y="574" type="line" smooth="yes"/>
      <point x="422" y="574"/>
      <point x="445" y="548"/>
    </contour>
    <contour>
      <point x="315" y="428" type="line"/>
      <point x="293" y="428" type="line"/>
      <point x="293" y="574" type="line"/>
      <point x="315" y="574" type="line"/>
    </contour>
    <contour>
      <point x="610" y="501" type="curve" smooth="yes"/>
      <point x="610" y="531"/>
      <point x="600" y="556"/>
      <point x="578" y="556" type="curve" smooth="yes"/>
      <point x="556" y="556"/>
      <point x="547" y="531"/>
      <point x="547" y="501" type="curve" smooth="yes"/>
      <point x="547" y="471"/>
      <point x="556" y="446"/>
      <point x="578" y="446" type="curve" smooth="yes"/>
      <point x="600" y="446"/>
      <point x="610" y="471"/>
    </contour>
    <contour>
      <point x="424" y="501" type="curve" smooth="yes"/>
      <point x="424" y="529"/>
      <point x="414" y="554"/>
      <point x="386" y="554" type="curve" smooth="yes"/>
      <point x="370" y="554" type="line"/>
      <point x="370" y="448" type="line"/>
      <point x="386" y="448" type="line" smooth="yes"/>
      <point x="414" y="448"/>
      <point x="424" y="473"/>
    </contour>
  </outline>
</glyph>
